//Event file generated from Sappy .s format.
	#include "MPlayDef.event"

	#define	duskfalls_grp  voicegroup000
	#define	duskfalls_pri  0
	#define	duskfalls_rev  0
	#define	duskfalls_mvl  127
	#define	duskfalls_key  0
	#define	duskfalls_tbs  1
	#define	duskfalls_exg  0
	#define	duskfalls_cmp  1

	// .rodata
	//	duskfalls
	ALIGN 4

//**************** Track 1 (Midi-Chn.1) ****************//

duskfalls_1:
	BYTE	KEYSH   duskfalls_key+0
// 000   ----------------------------------------
	BYTE	TEMPO   184*duskfalls_tbs/2
	BYTE		VOICE   75
	BYTE		VOL     127*duskfalls_mvl/mxv
	BYTE		PAN     c_v+0
	BYTE		N05     Ds4   v064
	BYTE	W06
	BYTE		        Fn4 
	BYTE	W06
	BYTE		TIE     Ds4 
	BYTE	W96
	BYTE	W36
// 001   ----------------------------------------
	BYTE	W96
	BYTE	W40
	BYTE		EOT   
	BYTE	W08
// 002   ----------------------------------------
	BYTE	W96
	BYTE	W48
// 003   ----------------------------------------
	BYTE	W96
	BYTE	W48
duskfalls_1_B1:
// 004   ----------------------------------------
duskfalls_1_004:
	BYTE		N32     Ds4   v116
	BYTE	W36
	BYTE		N05     Gs4 
	BYTE	W06
	BYTE		N36     As4 
	BYTE	W42
	BYTE		N11     Cs5 
	BYTE	W12
	BYTE		        Cn5 
	BYTE	W12
	BYTE		        Gs4 
	BYTE	W12
	BYTE		        As4 
	BYTE	W12
	BYTE		        Cn5 
	BYTE	W12
	BYTE	PEND
// 005   ----------------------------------------
duskfalls_1_005:
	BYTE		N11     As4   v116
	BYTE	W12
	BYTE		        Ds4 
	BYTE	W12
	BYTE		N11   
	BYTE	W12
	BYTE		N05     Gs4 
	BYTE	W06
	BYTE		N40     As4 
	BYTE	W42
	BYTE		N11     Gs4 
	BYTE	W12
	BYTE		        Fs4 
	BYTE	W12
	BYTE		        Fn4 
	BYTE	W12
	BYTE		        Fs4 
	BYTE	W12
	BYTE		        Gs4 
	BYTE	W12
	BYTE	PEND
// 006   ----------------------------------------
duskfalls_1_006:
	BYTE		N11     As4   v116
	BYTE	W12
	BYTE		N22     Ds4 
	BYTE	W24
	BYTE		N23   
	BYTE	W24
	BYTE		N11     Gs4 
	BYTE	W12
	BYTE		N23     Fn4 
	BYTE	W24
	BYTE		N05     Fs4 
	BYTE	W06
	BYTE		        Fn4 
	BYTE	W06
	BYTE		N23     Ds4 
	BYTE	W24
	BYTE		N11     Cs4 
	BYTE	W12
	BYTE	PEND
// 007   ----------------------------------------
duskfalls_1_007:
	BYTE		TIE     Ds4   v116
	BYTE	W96
	BYTE	W40
	BYTE	PEND
	BYTE		EOT   
	BYTE	W08
// 008   ----------------------------------------
duskfalls_1_008:
	BYTE		N32     Ds4   v127
	BYTE	W36
	BYTE		N05     Gs4 
	BYTE	W06
	BYTE		N36     As4 
	BYTE	W42
	BYTE		N11     Cs5 
	BYTE	W12
	BYTE		        Cn5 
	BYTE	W12
	BYTE		        Gs4 
	BYTE	W12
	BYTE		        As4 
	BYTE	W12
	BYTE		        Cn5 
	BYTE	W12
	BYTE	PEND
// 009   ----------------------------------------
duskfalls_1_009:
	BYTE		N11     As4   v127
	BYTE	W12
	BYTE		        Ds4 
	BYTE	W12
	BYTE		N11   
	BYTE	W12
	BYTE		N05     Gs4 
	BYTE	W06
	BYTE		N40     As4 
	BYTE	W42
	BYTE		N11     Gs4 
	BYTE	W12
	BYTE		        Fs4 
	BYTE	W12
	BYTE		        Fn4 
	BYTE	W12
	BYTE		        Fs4 
	BYTE	W12
	BYTE		        Gs4 
	BYTE	W12
	BYTE	PEND
// 010   ----------------------------------------
duskfalls_1_010:
	BYTE		N11     As4   v127
	BYTE	W12
	BYTE		N22     Ds4 
	BYTE	W24
	BYTE		N23   
	BYTE	W24
	BYTE		N11     Gs4 
	BYTE	W12
	BYTE		N23     Fn4 
	BYTE	W24
	BYTE		N05     Fs4 
	BYTE	W06
	BYTE		        Fn4 
	BYTE	W06
	BYTE		N23     Ds4 
	BYTE	W24
	BYTE		N11     Cs4 
	BYTE	W12
	BYTE	PEND
// 011   ----------------------------------------
duskfalls_1_011:
	BYTE		N32     Ds4   v127
	BYTE	W36
	BYTE		N80     As4 
	BYTE	W84
	BYTE		N11     Cn5 
	BYTE	W12
	BYTE		        Cs5 
	BYTE	W12
	BYTE	PEND
// 012   ----------------------------------------
duskfalls_1_012:
	BYTE		N44     Ds5   v127
	BYTE	W48
	BYTE		N11     Fn5 
	BYTE	W12
	BYTE		        Fs5 
	BYTE	W12
	BYTE		        Gs5 
	BYTE	W12
	BYTE		        Fs5 
	BYTE	W12
	BYTE		        Fn5 
	BYTE	W12
	BYTE		TIE     Ds5 
	BYTE	W36
	BYTE	PEND
// 013   ----------------------------------------
	BYTE	W96
	BYTE	W04
	BYTE		EOT   
	BYTE	W08
	BYTE		N32     As4 
	BYTE	W36
// 014   ----------------------------------------
	BYTE	PATT
	 POIN2	duskfalls_1_012
// 015   ----------------------------------------
	BYTE	W96
	BYTE	W04
	BYTE		EOT     Ds5 
	BYTE	W08
	BYTE		N11     As4   v127
	BYTE	W12
	BYTE		        Bn4 
	BYTE	W12
	BYTE		        Cs5 
	BYTE	W12
// 016   ----------------------------------------
duskfalls_1_016:
	BYTE		N32     Ds5   v127
	BYTE	W36
	BYTE		N11   
	BYTE	W12
	BYTE		        En5 
	BYTE	W12
	BYTE		        Fs5 
	BYTE	W12
	BYTE		        Gs5 
	BYTE	W12
	BYTE		        Fs5 
	BYTE	W12
	BYTE		        Fn5 
	BYTE	W12
	BYTE		N68     Ds5 
	BYTE	W36
	BYTE	PEND
// 017   ----------------------------------------
duskfalls_1_017:
	BYTE	W36
	BYTE		N68     Ds5   v127
	BYTE	W72
	BYTE		N11     Dn5 
	BYTE	W12
	BYTE		        Ds5 
	BYTE	W12
	BYTE		        Fn5 
	BYTE	W12
	BYTE	PEND
// 018   ----------------------------------------
duskfalls_1_018:
	BYTE		N22     Fs5   v127
	BYTE	W24
	BYTE		N11     Bn4 
	BYTE	W12
	BYTE		N23     Fs5 
	BYTE	W24
	BYTE		N05     Fn5 
	BYTE	W06
	BYTE		        Fs5 
	BYTE	W06
	BYTE		N11     Fn5 
	BYTE	W12
	BYTE		        Ds5 
	BYTE	W12
	BYTE		        Cs5 
	BYTE	W12
	BYTE		N05     Ds5 
	BYTE	W06
	BYTE		        Fn5 
	BYTE	W06
	BYTE		TIE     Ds5 
	BYTE	W24
	BYTE	PEND
// 019   ----------------------------------------
	BYTE	W96
	BYTE	W40
	BYTE		EOT   
	BYTE	W08
// 020   ----------------------------------------
	BYTE	W96
	BYTE	W48
// 021   ----------------------------------------
	BYTE	W96
	BYTE	W48
// 022   ----------------------------------------
	BYTE	W96
	BYTE	W48
// 023   ----------------------------------------
	BYTE	W96
	BYTE	W48
// 024   ----------------------------------------
duskfalls_1_024:
	BYTE		N32     Ds4   v127
	BYTE	W36
	BYTE		N44     As4 
	BYTE	W48
	BYTE		N11     Cs5 
	BYTE	W12
	BYTE		        Cn5 
	BYTE	W12
	BYTE		        Gs4 
	BYTE	W12
	BYTE		        As4 
	BYTE	W12
	BYTE		        Cn5 
	BYTE	W12
	BYTE	PEND
// 025   ----------------------------------------
duskfalls_1_025:
	BYTE		N11     As4   v127
	BYTE	W12
	BYTE		N22     Ds4 
	BYTE	W24
	BYTE		N44     As4 
	BYTE	W48
	BYTE		N11     Gs4 
	BYTE	W12
	BYTE		        Fs4 
	BYTE	W12
	BYTE		        Fn4 
	BYTE	W12
	BYTE		        Fs4 
	BYTE	W12
	BYTE		        Gs4 
	BYTE	W12
	BYTE	PEND
// 026   ----------------------------------------
duskfalls_1_026:
	BYTE		N11     As4   v127
	BYTE	W12
	BYTE		N22     Ds4 
	BYTE	W24
	BYTE		N23   
	BYTE	W24
	BYTE		N11     Gs4 
	BYTE	W12
	BYTE		N32     Fn4 
	BYTE	W36
	BYTE		N23     Ds4 
	BYTE	W24
	BYTE		N11     Cs4 
	BYTE	W12
	BYTE	PEND
// 027   ----------------------------------------
duskfalls_1_027:
	BYTE		N32     Ds4   v127
	BYTE	W36
	BYTE		TIE     As4 
	BYTE	W96
	BYTE	W06
	BYTE	PEND
	BYTE		EOT   
	BYTE	W06
// 028   ----------------------------------------
	BYTE	W96
	BYTE	W48
// 029   ----------------------------------------
duskfalls_1_029:
	BYTE		N44     As4   v096
	BYTE	W48
	BYTE		N11     Gs4   v116
	BYTE	W12
	BYTE		        Ds5 
	BYTE	W12
	BYTE		N05     Gs4   v096
	BYTE	W06
	BYTE		N36     As4 
	BYTE	W42
	BYTE		N11     Gs4   v116
	BYTE	W12
	BYTE		        Ds5 
	BYTE	W12
	BYTE	PEND
// 030   ----------------------------------------
duskfalls_1_030:
	BYTE		N05     Gs4   v096
	BYTE	W06
	BYTE		TIE     As4 
	BYTE	W96
	BYTE	W32
	BYTE	W03
	BYTE	PEND
	BYTE		EOT   
	BYTE	W07
// 031   ----------------------------------------
duskfalls_1_031:
	BYTE		N44     Ds4   v127
	BYTE	W48
	BYTE		N11     Cs4 
	BYTE	W12
	BYTE		        Gs4 
	BYTE	W12
	BYTE		N05     Cs4   v096
	BYTE	W06
	BYTE		N36     Ds4 
	BYTE	W42
	BYTE		N11     Cs4   v127
	BYTE	W12
	BYTE		        As4 
	BYTE	W12
	BYTE	PEND
// 032   ----------------------------------------
	BYTE	PATT
	 POIN2	duskfalls_1_007
	BYTE		EOT     Ds4 
	BYTE	W08
// 033   ----------------------------------------
duskfalls_1_033:
	BYTE		N44     As4   v116
	BYTE	W48
	BYTE		N11     Gs4 
	BYTE	W12
	BYTE		        Ds5 
	BYTE	W12
	BYTE		TIE     As4 
	BYTE	W72
	BYTE	PEND
// 034   ----------------------------------------
	BYTE	W64
	BYTE		EOT   
	BYTE	W80
// 035   ----------------------------------------
	BYTE	W96
	BYTE	W48
// 036   ----------------------------------------
duskfalls_1_036:
	BYTE		N11     Ds4   v127
	BYTE	W12
	BYTE		        As4 
	BYTE	W12
	BYTE		N11   
	BYTE	W12
	BYTE		        Ds4 
	BYTE	W12
	BYTE		        Gs4 
	BYTE	W12
	BYTE		        As4 
	BYTE	W12
	BYTE		        Cs5 
	BYTE	W12
	BYTE		N05     Cn5 
	BYTE	W06
	BYTE		        Cs5 
	BYTE	W06
	BYTE		N11     Cn5 
	BYTE	W12
	BYTE		        As4 
	BYTE	W12
	BYTE		        Gs4 
	BYTE	W12
	BYTE		        Fs4 
	BYTE	W12
	BYTE	PEND
// 037   ----------------------------------------
duskfalls_1_037:
	BYTE		N11     Ds4   v127
	BYTE	W12
	BYTE		        As4 
	BYTE	W12
	BYTE		N11   
	BYTE	W12
	BYTE		        Ds4 
	BYTE	W12
	BYTE		        Gs4 
	BYTE	W12
	BYTE		        As4 
	BYTE	W12
	BYTE		        Cn5 
	BYTE	W12
	BYTE		N05     As4 
	BYTE	W06
	BYTE		        Cn5 
	BYTE	W06
	BYTE		N11     As4 
	BYTE	W12
	BYTE		        Gs4 
	BYTE	W12
	BYTE		        Fs4 
	BYTE	W12
	BYTE		        Fn4 
	BYTE	W12
	BYTE	PEND
// 038   ----------------------------------------
	BYTE	PATT
	 POIN2	duskfalls_1_036
// 039   ----------------------------------------
	BYTE	PATT
	 POIN2	duskfalls_1_037
// 040   ----------------------------------------
	BYTE	PATT
	 POIN2	duskfalls_1_036
// 041   ----------------------------------------
	BYTE	PATT
	 POIN2	duskfalls_1_037
// 042   ----------------------------------------
duskfalls_1_042:
	BYTE		N11     Fs4   v127
	BYTE	W12
	BYTE		        Gs4 
	BYTE	W12
	BYTE		        As4 
	BYTE	W12
	BYTE		N32     Ds4 
	BYTE	W36
	BYTE		N11   
	BYTE	W12
	BYTE		        Fn4 
	BYTE	W12
	BYTE		        Fs4 
	BYTE	W12
	BYTE		N32     Gs4 
	BYTE	W36
	BYTE	PEND
// 043   ----------------------------------------
duskfalls_1_043:
	BYTE		N11     Fn4   v127
	BYTE	W12
	BYTE		        Fs4 
	BYTE	W12
	BYTE		        Gs4 
	BYTE	W12
	BYTE		        As4 
	BYTE	W12
	BYTE		N05     Gs4 
	BYTE	W06
	BYTE		        As4 
	BYTE	W06
	BYTE		N11     Gs4 
	BYTE	W12
	BYTE		        Fs4 
	BYTE	W12
	BYTE		        Fn4 
	BYTE	W12
	BYTE		        Fs4 
	BYTE	W12
	BYTE		        Fn4 
	BYTE	W12
	BYTE		        Ds4 
	BYTE	W12
	BYTE		        Cs4 
	BYTE	W12
	BYTE	PEND
// 044   ----------------------------------------
duskfalls_1_044:
	BYTE		TIE     Ds4   v116
	BYTE	W96
	BYTE	W48
	BYTE	PEND
// 045   ----------------------------------------
	BYTE	W92
	BYTE	W03
	BYTE		EOT   
	BYTE	W13
	BYTE		N32     Cs4 
	BYTE	W36
// 046   ----------------------------------------
	BYTE	PATT
	 POIN2	duskfalls_1_044
// 047   ----------------------------------------
	BYTE	W92
	BYTE	W03
	BYTE		EOT     Ds4 
	BYTE	W13
	BYTE		N32     Cs4   v116
	BYTE	W36
// 048   ----------------------------------------
	BYTE	PATT
	 POIN2	duskfalls_1_044
// 049   ----------------------------------------
	BYTE	W92
	BYTE	W03
	BYTE		EOT     Ds4 
	BYTE	W13
	BYTE		N32     Fn4   v116
	BYTE	W36
// 050   ----------------------------------------
duskfalls_1_050:
	BYTE		N11     Fs4   v116
	BYTE	W12
	BYTE		        Gs4 
	BYTE	W12
	BYTE		        As4 
	BYTE	W12
	BYTE		TIE     Ds4 
	BYTE	W96
	BYTE	W10
	BYTE	PEND
	BYTE		EOT   
	BYTE	W02
// 051   ----------------------------------------
duskfalls_1_051:
	BYTE		N11     Fn4   v116
	BYTE	W12
	BYTE		        Fs4 
	BYTE	W12
	BYTE		        Gs4 
	BYTE	W12
	BYTE		        As4 
	BYTE	W12
	BYTE		N05     Gs4 
	BYTE	W06
	BYTE		        As4 
	BYTE	W06
	BYTE		N11     Gs4 
	BYTE	W12
	BYTE		        Fs4 
	BYTE	W12
	BYTE		        Fn4 
	BYTE	W12
	BYTE		        Fs4 
	BYTE	W12
	BYTE		        Fn4 
	BYTE	W12
	BYTE		        Ds4 
	BYTE	W12
	BYTE		        Cs4 
	BYTE	W12
	BYTE	PEND
// 052   ----------------------------------------
duskfalls_1_052:
	BYTE		N32     Ds4   v116
	BYTE	W36
	BYTE		N11     As4   v120
	BYTE	W12
	BYTE		        As3   v124
	BYTE	W12
	BYTE		        Fn4 
	BYTE	W12
	BYTE		N32     Ds4 
	BYTE	W36
	BYTE		N11     As4   v127
	BYTE	W12
	BYTE		        As3 
	BYTE	W12
	BYTE		        Fn4 
	BYTE	W12
	BYTE	PEND
// 053   ----------------------------------------
duskfalls_1_053:
	BYTE		N32     Ds4   v127
	BYTE	W36
	BYTE		N11     As4 
	BYTE	W12
	BYTE		        As3 
	BYTE	W12
	BYTE		        Fn4 
	BYTE	W12
	BYTE		N32     Ds4 
	BYTE	W36
	BYTE		N11     As4 
	BYTE	W12
	BYTE		        As3 
	BYTE	W12
	BYTE		        Fn4 
	BYTE	W12
	BYTE	PEND
// 054   ----------------------------------------
	BYTE	W96
	BYTE	W48
// 055   ----------------------------------------
	BYTE	W96
	BYTE	W48
// 056   ----------------------------------------
	BYTE	W96
	BYTE	W48
// 057   ----------------------------------------
	BYTE	W96
	BYTE	W48
// 058   ----------------------------------------
	BYTE	W96
	BYTE	W48
// 059   ----------------------------------------
	BYTE	W96
	BYTE	W48
// 060   ----------------------------------------
	BYTE	W96
	BYTE	W48
// 061   ----------------------------------------
	BYTE	W96
	BYTE	W48
// 062   ----------------------------------------
	BYTE	W96
	BYTE	W48
// 063   ----------------------------------------
	BYTE	W96
	BYTE	W48
// 064   ----------------------------------------
	BYTE	W96
	BYTE	W48
// 065   ----------------------------------------
	BYTE	W96
	BYTE	W48
// 066   ----------------------------------------
	BYTE	W96
	BYTE	W48
// 067   ----------------------------------------
	BYTE	W96
	BYTE	W48
// 068   ----------------------------------------
	BYTE	W96
	BYTE	W48
// 069   ----------------------------------------
	BYTE	W96
	BYTE	W48
// 070   ----------------------------------------
duskfalls_1_070:
	BYTE		N11     Fn4   v127
	BYTE	W12
	BYTE		        Gn4 
	BYTE	W12
	BYTE		        Gs4 
	BYTE	W12
	BYTE		        As4 
	BYTE	W12
	BYTE		        Gs4 
	BYTE	W12
	BYTE		        Gn4 
	BYTE	W12
	BYTE		        Fn4 
	BYTE	W12
	BYTE		        Gn4 
	BYTE	W12
	BYTE		        Gs4 
	BYTE	W12
	BYTE		        As4 
	BYTE	W12
	BYTE		        Gs4 
	BYTE	W12
	BYTE		        Gn4 
	BYTE	W12
	BYTE	PEND
// 071   ----------------------------------------
	BYTE	PATT
	 POIN2	duskfalls_1_070
// 072   ----------------------------------------
	BYTE	PATT
	 POIN2	duskfalls_1_070
// 073   ----------------------------------------
	BYTE	PATT
	 POIN2	duskfalls_1_070
// 074   ----------------------------------------
	BYTE	PATT
	 POIN2	duskfalls_1_070
// 075   ----------------------------------------
	BYTE	PATT
	 POIN2	duskfalls_1_070
// 076   ----------------------------------------
duskfalls_1_076:
	BYTE		N11     Fn4   v127
	BYTE	W12
	BYTE		        Gn4 
	BYTE	W12
	BYTE		        Gs4   v124
	BYTE	W12
	BYTE		        As4   v120
	BYTE	W12
	BYTE		        Gs4   v116
	BYTE	W12
	BYTE		        Gn4   v112
	BYTE	W12
	BYTE		        Fn4   v108
	BYTE	W12
	BYTE		        Gn4   v100
	BYTE	W12
	BYTE		        Gs4   v096
	BYTE	W12
	BYTE		        As4   v092
	BYTE	W12
	BYTE		        Gs4   v088
	BYTE	W12
	BYTE		        Gn4   v084
	BYTE	W12
	BYTE	PEND
// 077   ----------------------------------------
	BYTE		        Fn4   v076
	BYTE	W12
	BYTE		        Gn4 
	BYTE	W12
	BYTE		        Gs4 
	BYTE	W12
	BYTE		        As4 
	BYTE	W12
	BYTE		        Gs4 
	BYTE	W12
	BYTE		        Gn4 
	BYTE	W12
	BYTE		        Fn4 
	BYTE	W12
	BYTE		        Gn4 
	BYTE	W12
	BYTE		        Gs4 
	BYTE	W12
	BYTE		        As4 
	BYTE	W12
	BYTE		        Gs4 
	BYTE	W12
	BYTE		        Gn4 
	BYTE	W12
// 078   ----------------------------------------
	BYTE	TEMPO   184*duskfalls_tbs/2
	BYTE		N05     Ds4   v064
	BYTE	W06
	BYTE		        Fn4 
	BYTE	W06
	BYTE		TIE     Ds4 
	BYTE	W96
	BYTE	W36
// 079   ----------------------------------------
	BYTE	W96
	BYTE	W40
	BYTE		EOT   
	BYTE	W08
// 080   ----------------------------------------
	BYTE	W96
	BYTE	W48
// 081   ----------------------------------------
	BYTE	W96
	BYTE	W48
// 082   ----------------------------------------
	BYTE	PATT
	 POIN2	duskfalls_1_004
// 083   ----------------------------------------
	BYTE	PATT
	 POIN2	duskfalls_1_005
// 084   ----------------------------------------
	BYTE	PATT
	 POIN2	duskfalls_1_006
// 085   ----------------------------------------
	BYTE	PATT
	 POIN2	duskfalls_1_007
	BYTE		EOT     Ds4 
	BYTE	W08
// 086   ----------------------------------------
	BYTE	PATT
	 POIN2	duskfalls_1_008
// 087   ----------------------------------------
	BYTE	PATT
	 POIN2	duskfalls_1_009
// 088   ----------------------------------------
	BYTE	PATT
	 POIN2	duskfalls_1_010
// 089   ----------------------------------------
	BYTE	PATT
	 POIN2	duskfalls_1_011
// 090   ----------------------------------------
	BYTE	PATT
	 POIN2	duskfalls_1_012
// 091   ----------------------------------------
	BYTE	W96
	BYTE	W04
	BYTE		EOT     Ds5 
	BYTE	W08
	BYTE		N32     As4   v127
	BYTE	W36
// 092   ----------------------------------------
	BYTE	PATT
	 POIN2	duskfalls_1_012
// 093   ----------------------------------------
	BYTE	W96
	BYTE	W04
	BYTE		EOT     Ds5 
	BYTE	W08
	BYTE		N11     As4   v127
	BYTE	W12
	BYTE		        Bn4 
	BYTE	W12
	BYTE		        Cs5 
	BYTE	W12
// 094   ----------------------------------------
	BYTE	PATT
	 POIN2	duskfalls_1_016
// 095   ----------------------------------------
	BYTE	PATT
	 POIN2	duskfalls_1_017
// 096   ----------------------------------------
	BYTE	PATT
	 POIN2	duskfalls_1_018
// 097   ----------------------------------------
	BYTE	W96
	BYTE	W40
	BYTE		EOT     Ds5 
	BYTE	W08
// 098   ----------------------------------------
	BYTE	W96
	BYTE	W48
// 099   ----------------------------------------
	BYTE	W96
	BYTE	W48
// 100   ----------------------------------------
	BYTE	W96
	BYTE	W48
// 101   ----------------------------------------
	BYTE	W96
	BYTE	W48
// 102   ----------------------------------------
	BYTE	PATT
	 POIN2	duskfalls_1_024
// 103   ----------------------------------------
	BYTE	PATT
	 POIN2	duskfalls_1_025
// 104   ----------------------------------------
	BYTE	PATT
	 POIN2	duskfalls_1_026
// 105   ----------------------------------------
	BYTE	PATT
	 POIN2	duskfalls_1_027
	BYTE		EOT     As4 
	BYTE	W06
// 106   ----------------------------------------
	BYTE	W96
	BYTE	W48
// 107   ----------------------------------------
	BYTE	PATT
	 POIN2	duskfalls_1_029
// 108   ----------------------------------------
	BYTE	PATT
	 POIN2	duskfalls_1_030
	BYTE		EOT     As4 
	BYTE	W07
// 109   ----------------------------------------
	BYTE	PATT
	 POIN2	duskfalls_1_031
// 110   ----------------------------------------
	BYTE	PATT
	 POIN2	duskfalls_1_007
	BYTE		EOT     Ds4 
	BYTE	W08
// 111   ----------------------------------------
	BYTE	PATT
	 POIN2	duskfalls_1_033
// 112   ----------------------------------------
	BYTE	W64
	BYTE		EOT     As4 
	BYTE	W80
// 113   ----------------------------------------
	BYTE	W96
	BYTE	W48
// 114   ----------------------------------------
	BYTE	PATT
	 POIN2	duskfalls_1_036
// 115   ----------------------------------------
	BYTE	PATT
	 POIN2	duskfalls_1_037
// 116   ----------------------------------------
	BYTE	PATT
	 POIN2	duskfalls_1_036
// 117   ----------------------------------------
	BYTE	PATT
	 POIN2	duskfalls_1_037
// 118   ----------------------------------------
	BYTE	PATT
	 POIN2	duskfalls_1_036
// 119   ----------------------------------------
	BYTE	PATT
	 POIN2	duskfalls_1_037
// 120   ----------------------------------------
	BYTE	PATT
	 POIN2	duskfalls_1_042
// 121   ----------------------------------------
	BYTE	PATT
	 POIN2	duskfalls_1_043
// 122   ----------------------------------------
	BYTE	PATT
	 POIN2	duskfalls_1_044
// 123   ----------------------------------------
	BYTE	W92
	BYTE	W03
	BYTE		EOT     Ds4 
	BYTE	W13
	BYTE		N32     Cs4   v116
	BYTE	W36
// 124   ----------------------------------------
	BYTE	PATT
	 POIN2	duskfalls_1_044
// 125   ----------------------------------------
	BYTE	W92
	BYTE	W03
	BYTE		EOT     Ds4 
	BYTE	W13
	BYTE		N32     Cs4   v116
	BYTE	W36
// 126   ----------------------------------------
	BYTE	PATT
	 POIN2	duskfalls_1_044
// 127   ----------------------------------------
	BYTE	W92
	BYTE	W03
	BYTE		EOT     Ds4 
	BYTE	W13
	BYTE		N32     Fn4   v116
	BYTE	W36
// 128   ----------------------------------------
	BYTE	PATT
	 POIN2	duskfalls_1_050
	BYTE		EOT     Ds4 
	BYTE	W02
// 129   ----------------------------------------
	BYTE	PATT
	 POIN2	duskfalls_1_051
// 130   ----------------------------------------
	BYTE	PATT
	 POIN2	duskfalls_1_052
// 131   ----------------------------------------
	BYTE	PATT
	 POIN2	duskfalls_1_053
// 132   ----------------------------------------
	BYTE	W96
	BYTE	W48
// 133   ----------------------------------------
	BYTE	W96
	BYTE	W48
// 134   ----------------------------------------
	BYTE	W96
	BYTE	W48
// 135   ----------------------------------------
	BYTE	W96
	BYTE	W48
// 136   ----------------------------------------
	BYTE	W96
	BYTE	W48
// 137   ----------------------------------------
	BYTE	W96
	BYTE	W48
// 138   ----------------------------------------
	BYTE	W96
	BYTE	W48
// 139   ----------------------------------------
	BYTE	W96
	BYTE	W48
// 140   ----------------------------------------
	BYTE	W96
	BYTE	W48
// 141   ----------------------------------------
	BYTE	W96
	BYTE	W48
// 142   ----------------------------------------
	BYTE	W96
	BYTE	W48
// 143   ----------------------------------------
	BYTE	W96
	BYTE	W48
// 144   ----------------------------------------
	BYTE	W96
	BYTE	W48
// 145   ----------------------------------------
	BYTE	W96
	BYTE	W48
// 146   ----------------------------------------
	BYTE	W96
	BYTE	W48
// 147   ----------------------------------------
	BYTE	W96
	BYTE	W48
	BYTE	GoTo
	 POIN2	duskfalls_1_B1
duskfalls_1_B2:
// 148   ----------------------------------------
	BYTE	PATT
	 POIN2	duskfalls_1_070
// 149   ----------------------------------------
	BYTE	PATT
	 POIN2	duskfalls_1_070
// 150   ----------------------------------------
	BYTE	PATT
	 POIN2	duskfalls_1_070
// 151   ----------------------------------------
	BYTE	PATT
	 POIN2	duskfalls_1_070
// 152   ----------------------------------------
	BYTE	PATT
	 POIN2	duskfalls_1_070
// 153   ----------------------------------------
	BYTE	PATT
	 POIN2	duskfalls_1_070
// 154   ----------------------------------------
	BYTE	PATT
	 POIN2	duskfalls_1_076
// 155   ----------------------------------------
	BYTE		N11     Fn4   v076
	BYTE	W12
	BYTE		        Gn4 
	BYTE	W12
	BYTE		        Gs4 
	BYTE	W12
	BYTE		        As4 
	BYTE	W12
	BYTE		        Gs4 
	BYTE	W12
	BYTE		        Gn4 
	BYTE	W12
	BYTE		        Fn4 
	BYTE	W12
	BYTE		        Gn4 
	BYTE	W12
	BYTE		        Gs4 
	BYTE	W12
	BYTE		        As4 
	BYTE	W12
	BYTE		        Gs4 
	BYTE	W12
	BYTE		        Gn4 
	BYTE	W11
	BYTE	FINE

//**************** Track 2 (Midi-Chn.2) ****************//

duskfalls_2:
	BYTE	KEYSH   duskfalls_key+0
// 000   ----------------------------------------
	BYTE		VOICE   75
	BYTE		VOL     127*duskfalls_mvl/mxv
	BYTE		PAN     c_v+0
	BYTE	W96
	BYTE	W48
// 001   ----------------------------------------
	BYTE	W96
	BYTE	W48
// 002   ----------------------------------------
	BYTE	W96
	BYTE	W48
// 003   ----------------------------------------
	BYTE	W96
	BYTE	W48
duskfalls_2_B1:
// 004   ----------------------------------------
duskfalls_2_004:
	BYTE		N32     Ds3   v096
	BYTE		N32     Ds4   v116
	BYTE	W36
	BYTE		N05     Gs3   v096
	BYTE		N44     As4   v116
	BYTE	W06
	BYTE		N40     As3   v096
	BYTE	W42
	BYTE		N11     Cs4 
	BYTE		N11     Cs5   v116
	BYTE	W12
	BYTE		        Cn4   v096
	BYTE		N11     Cn5   v116
	BYTE	W12
	BYTE		        Gs3   v096
	BYTE		N11     Gs4   v116
	BYTE	W12
	BYTE		        As3   v096
	BYTE		N11     As4   v116
	BYTE	W12
	BYTE		        Cn4   v096
	BYTE		N11     Cn5   v116
	BYTE	W12
	BYTE	PEND
// 005   ----------------------------------------
duskfalls_2_005:
	BYTE		N11     As3   v096
	BYTE		N11     As4   v116
	BYTE	W12
	BYTE		N23     Ds3   v096
	BYTE		N23     Ds4   v116
	BYTE	W24
	BYTE		N05     Gs3   v096
	BYTE		N44     As4   v116
	BYTE	W06
	BYTE		N40     As3   v096
	BYTE	W42
	BYTE		N11     Gs3 
	BYTE		N11     Gs4   v116
	BYTE	W12
	BYTE		        Fs3   v096
	BYTE		N11     Fs4   v116
	BYTE	W12
	BYTE		        Fn3   v096
	BYTE		N11     Fn4   v116
	BYTE	W12
	BYTE		        Fs3   v096
	BYTE		N11     Fs4   v116
	BYTE	W12
	BYTE		        Gs3   v096
	BYTE		N11     Gs4   v116
	BYTE	W12
	BYTE	PEND
// 006   ----------------------------------------
duskfalls_2_006:
	BYTE		N11     As3   v096
	BYTE		N11     As4   v116
	BYTE	W12
	BYTE		N23     Ds3   v096
	BYTE		N23     Ds4   v116
	BYTE	W24
	BYTE		        Ds3   v096
	BYTE		N23     Ds4   v116
	BYTE	W24
	BYTE		N11     Gs3   v096
	BYTE		N11     Gs4   v116
	BYTE	W12
	BYTE		N23     Fn3   v096
	BYTE		N23     Fn4   v116
	BYTE	W24
	BYTE		N05     Fs3   v096
	BYTE		N05     Fs4   v116
	BYTE	W06
	BYTE		        Fn3   v096
	BYTE		N05     Fn4   v116
	BYTE	W06
	BYTE		N23     Ds3   v096
	BYTE		N23     Ds4   v116
	BYTE	W24
	BYTE		N11     Cs3   v096
	BYTE		N11     Cs4   v116
	BYTE	W12
	BYTE	PEND
// 007   ----------------------------------------
duskfalls_2_007:
	BYTE		TIE     Ds3   v096
	BYTE		TIE     Ds4   v116
	BYTE	W96
	BYTE	W44
	BYTE	W03
	BYTE	PEND
	BYTE		EOT     Ds3 
	BYTE		        Ds4 
	BYTE	W01
// 008   ----------------------------------------
duskfalls_2_008:
	BYTE		N32     Ds3   v127
	BYTE	W36
	BYTE		N44     As3 
	BYTE	W48
	BYTE		N11     Cs4 
	BYTE	W12
	BYTE		        Cn4 
	BYTE	W12
	BYTE		        Gs3 
	BYTE	W12
	BYTE		        As3 
	BYTE	W12
	BYTE		        Cn4 
	BYTE	W12
	BYTE	PEND
// 009   ----------------------------------------
duskfalls_2_009:
	BYTE		N11     As3   v127
	BYTE	W12
	BYTE		N23     Ds3 
	BYTE	W24
	BYTE		N44     As3 
	BYTE	W48
	BYTE		N11     Gs3 
	BYTE	W12
	BYTE		        Fs3 
	BYTE	W12
	BYTE		        Fn3 
	BYTE	W12
	BYTE		        Fs3 
	BYTE	W12
	BYTE		        Gs3 
	BYTE	W12
	BYTE	PEND
// 010   ----------------------------------------
duskfalls_2_010:
	BYTE		N11     As3   v127
	BYTE	W12
	BYTE		N23     Ds3 
	BYTE	W24
	BYTE		N23   
	BYTE	W24
	BYTE		N11     Gs3 
	BYTE	W12
	BYTE		N23     Fn3 
	BYTE	W24
	BYTE		N05     Fs3 
	BYTE	W06
	BYTE		        Fn3 
	BYTE	W06
	BYTE		N23     Ds3 
	BYTE	W24
	BYTE		N11     Cs3 
	BYTE	W12
	BYTE	PEND
// 011   ----------------------------------------
duskfalls_2_011:
	BYTE		TIE     Ds3   v127
	BYTE	W96
	BYTE	W11
	BYTE	PEND
	BYTE		EOT   
	BYTE	W01
	BYTE		N11     As3 
	BYTE	W12
	BYTE		        Cn4 
	BYTE	W12
	BYTE		        Cs4 
	BYTE	W12
// 012   ----------------------------------------
duskfalls_2_012:
	BYTE		N44     Ds4   v127
	BYTE	W48
	BYTE		N11     Fn4 
	BYTE	W12
	BYTE		        Fs4 
	BYTE	W12
	BYTE		        Gs4 
	BYTE	W12
	BYTE		        Fs4 
	BYTE	W12
	BYTE		        Fn4 
	BYTE	W12
	BYTE		TIE     Ds4 
	BYTE	W36
	BYTE	PEND
// 013   ----------------------------------------
	BYTE	W96
	BYTE	W11
	BYTE		EOT   
	BYTE	W01
	BYTE		N32     As3 
	BYTE	W36
// 014   ----------------------------------------
	BYTE	PATT
	 POIN2	duskfalls_2_012
// 015   ----------------------------------------
	BYTE	W96
	BYTE	W11
	BYTE		EOT     Ds4 
	BYTE	W01
	BYTE		N11     As3   v127
	BYTE	W12
	BYTE		        Bn3 
	BYTE	W12
	BYTE		        Cs4 
	BYTE	W12
// 016   ----------------------------------------
duskfalls_2_016:
	BYTE		N32     Ds4   v127
	BYTE	W36
	BYTE		N11   
	BYTE	W12
	BYTE		        En4 
	BYTE	W12
	BYTE		        Fs4 
	BYTE	W12
	BYTE		        Gs4 
	BYTE	W12
	BYTE		        Fs4 
	BYTE	W12
	BYTE		        Fn4 
	BYTE	W12
	BYTE		N68     Ds4 
	BYTE	W36
	BYTE	PEND
// 017   ----------------------------------------
duskfalls_2_017:
	BYTE	W36
	BYTE		N68     Ds4   v127
	BYTE	W72
	BYTE		N11     Dn4 
	BYTE	W12
	BYTE		        Ds4 
	BYTE	W12
	BYTE		        Fn4 
	BYTE	W12
	BYTE	PEND
// 018   ----------------------------------------
duskfalls_2_018:
	BYTE		N23     Fs4   v127
	BYTE	W24
	BYTE		N11     Bn3 
	BYTE	W12
	BYTE		N23     Fs4 
	BYTE	W24
	BYTE		N05     Fn4 
	BYTE	W06
	BYTE		        Fs4 
	BYTE	W06
	BYTE		N11     Fn4 
	BYTE	W12
	BYTE		        Ds4 
	BYTE	W12
	BYTE		        Cs4 
	BYTE	W12
	BYTE		N05     Ds4 
	BYTE	W06
	BYTE		        Fn4 
	BYTE	W06
	BYTE		TIE     Ds4 
	BYTE	W24
	BYTE	PEND
// 019   ----------------------------------------
duskfalls_2_019:
	BYTE	W96
	BYTE	W44
	BYTE	W03
	BYTE	PEND
	BYTE		EOT     Ds4 
	BYTE	W01
// 020   ----------------------------------------
duskfalls_2_020:
	BYTE		N23     Ds3   v116
	BYTE	W24
	BYTE		N11     Ds3   v096
	BYTE	W12
	BYTE		N05     Gs3   v116
	BYTE	W06
	BYTE		N40     As3 
	BYTE	W42
	BYTE		N11     Cs4 
	BYTE	W12
	BYTE		        Cn4 
	BYTE	W12
	BYTE		        Gs3 
	BYTE	W12
	BYTE		        As3 
	BYTE	W12
	BYTE		        Cn4 
	BYTE	W12
	BYTE	PEND
// 021   ----------------------------------------
duskfalls_2_021:
	BYTE		N11     As3   v096
	BYTE	W12
	BYTE		        Ds3   v116
	BYTE	W12
	BYTE		N11   
	BYTE	W12
	BYTE		N05     Gs3 
	BYTE	W06
	BYTE		N40     As3 
	BYTE	W42
	BYTE		N11     Gs3 
	BYTE	W12
	BYTE		        Fs3 
	BYTE	W12
	BYTE		        Fn3 
	BYTE	W12
	BYTE		        Fs3 
	BYTE	W12
	BYTE		        Gs3 
	BYTE	W12
	BYTE	PEND
// 022   ----------------------------------------
duskfalls_2_022:
	BYTE		N11     As3   v116
	BYTE	W12
	BYTE		N23     Ds3 
	BYTE	W24
	BYTE		N23   
	BYTE	W24
	BYTE		N11     Gs3 
	BYTE	W12
	BYTE		N17     Fn3   v096
	BYTE	W18
	BYTE		N05     Fs3 
	BYTE	W06
	BYTE		N11     Fn3 
	BYTE	W12
	BYTE		N23     Ds3   v116
	BYTE	W24
	BYTE		N11     Cs3 
	BYTE	W12
	BYTE	PEND
// 023   ----------------------------------------
duskfalls_2_023:
	BYTE		N17     Ds3   v116
	BYTE	W18
	BYTE		N05     Fn3 
	BYTE	W06
	BYTE		        Ds3 
	BYTE	W06
	BYTE		        Fn3 
	BYTE	W06
	BYTE		TIE     Ds3 
	BYTE	W96
	BYTE	W11
	BYTE	PEND
	BYTE		EOT   
	BYTE	W01
// 024   ----------------------------------------
	BYTE	PATT
	 POIN2	duskfalls_2_008
// 025   ----------------------------------------
	BYTE	PATT
	 POIN2	duskfalls_2_009
// 026   ----------------------------------------
duskfalls_2_026:
	BYTE		N11     As3   v127
	BYTE	W12
	BYTE		N23     Ds3 
	BYTE	W24
	BYTE		N23   
	BYTE	W24
	BYTE		N11     Gs3 
	BYTE	W12
	BYTE		N32     Fn3 
	BYTE	W36
	BYTE		N23     Ds3 
	BYTE	W24
	BYTE		N11     Cs3 
	BYTE	W12
	BYTE	PEND
// 027   ----------------------------------------
	BYTE	PATT
	 POIN2	duskfalls_2_011
	BYTE		EOT     Ds3 
	BYTE	W01
	BYTE		N11     As3   v127
	BYTE	W12
	BYTE		        Bn3 
	BYTE	W12
	BYTE		        Cs4 
	BYTE	W12
// 028   ----------------------------------------
	BYTE	PATT
	 POIN2	duskfalls_2_012
// 029   ----------------------------------------
	BYTE	W96
	BYTE	W11
	BYTE		EOT     Ds4 
	BYTE	W01
	BYTE		N32     As3   v127
	BYTE	W36
// 030   ----------------------------------------
	BYTE	PATT
	 POIN2	duskfalls_2_012
// 031   ----------------------------------------
	BYTE	W96
	BYTE	W11
	BYTE		EOT     Ds4 
	BYTE	W01
	BYTE		N11     As3   v127
	BYTE	W12
	BYTE		        Bn3 
	BYTE	W12
	BYTE		        Cs4 
	BYTE	W12
// 032   ----------------------------------------
	BYTE	PATT
	 POIN2	duskfalls_2_016
// 033   ----------------------------------------
	BYTE	PATT
	 POIN2	duskfalls_2_017
// 034   ----------------------------------------
	BYTE	PATT
	 POIN2	duskfalls_2_018
// 035   ----------------------------------------
	BYTE	PATT
	 POIN2	duskfalls_2_019
	BYTE		EOT     Ds4 
	BYTE	W01
// 036   ----------------------------------------
	BYTE	W96
	BYTE	W48
// 037   ----------------------------------------
	BYTE	W96
	BYTE	W48
// 038   ----------------------------------------
	BYTE	W96
	BYTE	W48
// 039   ----------------------------------------
	BYTE	W96
	BYTE	W48
// 040   ----------------------------------------
	BYTE	W96
	BYTE	W48
// 041   ----------------------------------------
	BYTE	W96
	BYTE	W48
// 042   ----------------------------------------
	BYTE	W96
	BYTE	W48
// 043   ----------------------------------------
	BYTE	W96
	BYTE	W48
// 044   ----------------------------------------
duskfalls_2_044:
	BYTE		N11     Ds3   v116
	BYTE	W12
	BYTE		        As3 
	BYTE	W12
	BYTE		N11   
	BYTE	W12
	BYTE		        Ds3 
	BYTE	W12
	BYTE		        Gs3 
	BYTE	W12
	BYTE		        As3 
	BYTE	W12
	BYTE		        Cs4 
	BYTE	W12
	BYTE		N05     Cn4 
	BYTE	W06
	BYTE		        Cs4 
	BYTE	W06
	BYTE		N11     Cn4 
	BYTE	W12
	BYTE		        As3 
	BYTE	W12
	BYTE		        Gs3 
	BYTE	W12
	BYTE		        Fs3 
	BYTE	W12
	BYTE	PEND
// 045   ----------------------------------------
duskfalls_2_045:
	BYTE		N11     Ds3   v116
	BYTE	W12
	BYTE		        As3 
	BYTE	W12
	BYTE		N11   
	BYTE	W12
	BYTE		        Ds3 
	BYTE	W12
	BYTE		        Gs3 
	BYTE	W12
	BYTE		        As3 
	BYTE	W12
	BYTE		        Cn4 
	BYTE	W12
	BYTE		N05     As3 
	BYTE	W06
	BYTE		        Cn4 
	BYTE	W06
	BYTE		N11     As3 
	BYTE	W12
	BYTE		        Gs3 
	BYTE	W12
	BYTE		        Fs3 
	BYTE	W12
	BYTE		        Fn3 
	BYTE	W12
	BYTE	PEND
// 046   ----------------------------------------
	BYTE	PATT
	 POIN2	duskfalls_2_044
// 047   ----------------------------------------
	BYTE	PATT
	 POIN2	duskfalls_2_045
// 048   ----------------------------------------
	BYTE	PATT
	 POIN2	duskfalls_2_044
// 049   ----------------------------------------
	BYTE	PATT
	 POIN2	duskfalls_2_045
// 050   ----------------------------------------
duskfalls_2_050:
	BYTE		N11     Fs3   v116
	BYTE	W12
	BYTE		        Gs3 
	BYTE	W12
	BYTE		        As3 
	BYTE	W12
	BYTE		N32     Ds3 
	BYTE	W36
	BYTE		N11   
	BYTE	W12
	BYTE		        Fn3 
	BYTE	W12
	BYTE		        Fs3 
	BYTE	W12
	BYTE		N32     Gs3 
	BYTE	W36
	BYTE	PEND
// 051   ----------------------------------------
duskfalls_2_051:
	BYTE		N68     Fn4   v116
	BYTE	W72
	BYTE		N11     Fs4 
	BYTE	W12
	BYTE		        Fn4 
	BYTE	W12
	BYTE		        Fs4 
	BYTE	W12
	BYTE		        Fn4 
	BYTE	W12
	BYTE		        Ds4 
	BYTE	W12
	BYTE		        Cs4 
	BYTE	W12
	BYTE	PEND
// 052   ----------------------------------------
duskfalls_2_052:
	BYTE		N05     Ds4   v116
	BYTE	W06
	BYTE		        Fn4 
	BYTE	W06
	BYTE		TIE     Ds4 
	BYTE	W96
	BYTE	W32
	BYTE	W03
	BYTE	PEND
	BYTE		EOT   
	BYTE	W01
// 053   ----------------------------------------
duskfalls_2_053:
	BYTE		N05     Ds4   v127
	BYTE	W06
	BYTE		        Fn4 
	BYTE	W06
	BYTE		TIE     Ds4 
	BYTE	W96
	BYTE	W32
	BYTE	W03
	BYTE	PEND
	BYTE		EOT   
	BYTE	W01
// 054   ----------------------------------------
	BYTE	W96
	BYTE	W48
// 055   ----------------------------------------
	BYTE	W96
	BYTE	W48
// 056   ----------------------------------------
	BYTE	W96
	BYTE	W48
// 057   ----------------------------------------
	BYTE	W96
	BYTE	W48
// 058   ----------------------------------------
	BYTE	W96
	BYTE	W48
// 059   ----------------------------------------
	BYTE	W96
	BYTE	W48
// 060   ----------------------------------------
	BYTE	W96
	BYTE	W48
// 061   ----------------------------------------
	BYTE	W96
	BYTE	W48
// 062   ----------------------------------------
duskfalls_2_062:
	BYTE		N11     Fn3   v116
	BYTE	W12
	BYTE		        Gn3 
	BYTE	W12
	BYTE		        Gs3 
	BYTE	W12
	BYTE		N32     Fn3 
	BYTE	W36
	BYTE		N11   
	BYTE	W12
	BYTE		        Gn3 
	BYTE	W12
	BYTE		        Gs3 
	BYTE	W12
	BYTE		N32     Fn3 
	BYTE	W36
	BYTE	PEND
// 063   ----------------------------------------
	BYTE	PATT
	 POIN2	duskfalls_2_062
// 064   ----------------------------------------
	BYTE	PATT
	 POIN2	duskfalls_2_062
// 065   ----------------------------------------
duskfalls_2_065:
	BYTE		N11     Fn3   v116
	BYTE	W12
	BYTE		        Gn3 
	BYTE	W12
	BYTE		        Gs3   v120
	BYTE	W12
	BYTE		N32     As3 
	BYTE	W36
	BYTE		N11     Gs3   v124
	BYTE	W12
	BYTE		        As3   v127
	BYTE	W12
	BYTE		        Gs3 
	BYTE	W12
	BYTE		        Gn3 
	BYTE	W12
	BYTE		        Gs3 
	BYTE	W12
	BYTE		        Gn3 
	BYTE	W12
	BYTE	PEND
// 066   ----------------------------------------
duskfalls_2_066:
	BYTE		N11     Fn3   v127
	BYTE	W12
	BYTE		        Gn3 
	BYTE	W12
	BYTE		        Gs3 
	BYTE	W12
	BYTE		N32     Fn3 
	BYTE	W36
	BYTE		N11   
	BYTE	W12
	BYTE		        Gn3 
	BYTE	W12
	BYTE		        Gs3 
	BYTE	W12
	BYTE		N32     Fn3 
	BYTE	W36
	BYTE	PEND
// 067   ----------------------------------------
	BYTE	PATT
	 POIN2	duskfalls_2_066
// 068   ----------------------------------------
	BYTE	PATT
	 POIN2	duskfalls_2_066
// 069   ----------------------------------------
duskfalls_2_069:
	BYTE		N11     Fn3   v127
	BYTE	W12
	BYTE		        Gn3 
	BYTE	W12
	BYTE		        Gs3 
	BYTE	W12
	BYTE		N32     As3 
	BYTE	W36
	BYTE		N11     Gs3 
	BYTE	W12
	BYTE		        As3 
	BYTE	W12
	BYTE		        Gs3 
	BYTE	W12
	BYTE		        Gn3 
	BYTE	W12
	BYTE		        Gs3 
	BYTE	W12
	BYTE		        Gn3 
	BYTE	W12
	BYTE	PEND
// 070   ----------------------------------------
	BYTE	W96
	BYTE	W48
// 071   ----------------------------------------
	BYTE	W96
	BYTE	W48
// 072   ----------------------------------------
	BYTE	W96
	BYTE	W48
// 073   ----------------------------------------
	BYTE	W96
	BYTE	W48
// 074   ----------------------------------------
	BYTE	W96
	BYTE	W48
// 075   ----------------------------------------
	BYTE	W96
	BYTE	W48
// 076   ----------------------------------------
	BYTE	W96
	BYTE	W48
// 077   ----------------------------------------
	BYTE	W96
	BYTE	W48
// 078   ----------------------------------------
	BYTE	W96
	BYTE	W48
// 079   ----------------------------------------
	BYTE	W96
	BYTE	W48
// 080   ----------------------------------------
	BYTE	W96
	BYTE	W48
// 081   ----------------------------------------
	BYTE	W96
	BYTE	W48
// 082   ----------------------------------------
	BYTE	PATT
	 POIN2	duskfalls_2_004
// 083   ----------------------------------------
	BYTE	PATT
	 POIN2	duskfalls_2_005
// 084   ----------------------------------------
	BYTE	PATT
	 POIN2	duskfalls_2_006
// 085   ----------------------------------------
	BYTE	PATT
	 POIN2	duskfalls_2_007
	BYTE		EOT     Ds3 
	BYTE		        Ds4 
	BYTE	W01
// 086   ----------------------------------------
	BYTE	PATT
	 POIN2	duskfalls_2_008
// 087   ----------------------------------------
	BYTE	PATT
	 POIN2	duskfalls_2_009
// 088   ----------------------------------------
	BYTE	PATT
	 POIN2	duskfalls_2_010
// 089   ----------------------------------------
	BYTE	PATT
	 POIN2	duskfalls_2_011
	BYTE		EOT     Ds3 
	BYTE	W01
	BYTE		N11     As3   v127
	BYTE	W12
	BYTE		        Cn4 
	BYTE	W12
	BYTE		        Cs4 
	BYTE	W12
// 090   ----------------------------------------
	BYTE	PATT
	 POIN2	duskfalls_2_012
// 091   ----------------------------------------
	BYTE	W96
	BYTE	W11
	BYTE		EOT     Ds4 
	BYTE	W01
	BYTE		N32     As3   v127
	BYTE	W36
// 092   ----------------------------------------
	BYTE	PATT
	 POIN2	duskfalls_2_012
// 093   ----------------------------------------
	BYTE	W96
	BYTE	W11
	BYTE		EOT     Ds4 
	BYTE	W01
	BYTE		N11     As3   v127
	BYTE	W12
	BYTE		        Bn3 
	BYTE	W12
	BYTE		        Cs4 
	BYTE	W12
// 094   ----------------------------------------
	BYTE	PATT
	 POIN2	duskfalls_2_016
// 095   ----------------------------------------
	BYTE	PATT
	 POIN2	duskfalls_2_017
// 096   ----------------------------------------
	BYTE	PATT
	 POIN2	duskfalls_2_018
// 097   ----------------------------------------
	BYTE	PATT
	 POIN2	duskfalls_2_019
	BYTE		EOT     Ds4 
	BYTE	W01
// 098   ----------------------------------------
	BYTE	PATT
	 POIN2	duskfalls_2_020
// 099   ----------------------------------------
	BYTE	PATT
	 POIN2	duskfalls_2_021
// 100   ----------------------------------------
	BYTE	PATT
	 POIN2	duskfalls_2_022
// 101   ----------------------------------------
	BYTE	PATT
	 POIN2	duskfalls_2_023
	BYTE		EOT     Ds3 
	BYTE	W01
// 102   ----------------------------------------
	BYTE	PATT
	 POIN2	duskfalls_2_008
// 103   ----------------------------------------
	BYTE	PATT
	 POIN2	duskfalls_2_009
// 104   ----------------------------------------
	BYTE	PATT
	 POIN2	duskfalls_2_026
// 105   ----------------------------------------
	BYTE	PATT
	 POIN2	duskfalls_2_011
	BYTE		EOT     Ds3 
	BYTE	W01
	BYTE		N11     As3   v127
	BYTE	W12
	BYTE		        Bn3 
	BYTE	W12
	BYTE		        Cs4 
	BYTE	W12
// 106   ----------------------------------------
	BYTE	PATT
	 POIN2	duskfalls_2_012
// 107   ----------------------------------------
	BYTE	W96
	BYTE	W11
	BYTE		EOT     Ds4 
	BYTE	W01
	BYTE		N32     As3   v127
	BYTE	W36
// 108   ----------------------------------------
	BYTE	PATT
	 POIN2	duskfalls_2_012
// 109   ----------------------------------------
	BYTE	W96
	BYTE	W11
	BYTE		EOT     Ds4 
	BYTE	W01
	BYTE		N11     As3   v127
	BYTE	W12
	BYTE		        Bn3 
	BYTE	W12
	BYTE		        Cs4 
	BYTE	W12
// 110   ----------------------------------------
	BYTE	PATT
	 POIN2	duskfalls_2_016
// 111   ----------------------------------------
	BYTE	PATT
	 POIN2	duskfalls_2_017
// 112   ----------------------------------------
	BYTE	PATT
	 POIN2	duskfalls_2_018
// 113   ----------------------------------------
	BYTE	PATT
	 POIN2	duskfalls_2_019
	BYTE		EOT     Ds4 
	BYTE	W01
// 114   ----------------------------------------
	BYTE	W96
	BYTE	W48
// 115   ----------------------------------------
	BYTE	W96
	BYTE	W48
// 116   ----------------------------------------
	BYTE	W96
	BYTE	W48
// 117   ----------------------------------------
	BYTE	W96
	BYTE	W48
// 118   ----------------------------------------
	BYTE	W96
	BYTE	W48
// 119   ----------------------------------------
	BYTE	W96
	BYTE	W48
// 120   ----------------------------------------
	BYTE	W96
	BYTE	W48
// 121   ----------------------------------------
	BYTE	W96
	BYTE	W48
// 122   ----------------------------------------
	BYTE	PATT
	 POIN2	duskfalls_2_044
// 123   ----------------------------------------
	BYTE	PATT
	 POIN2	duskfalls_2_045
// 124   ----------------------------------------
	BYTE	PATT
	 POIN2	duskfalls_2_044
// 125   ----------------------------------------
	BYTE	PATT
	 POIN2	duskfalls_2_045
// 126   ----------------------------------------
	BYTE	PATT
	 POIN2	duskfalls_2_044
// 127   ----------------------------------------
	BYTE	PATT
	 POIN2	duskfalls_2_045
// 128   ----------------------------------------
	BYTE	PATT
	 POIN2	duskfalls_2_050
// 129   ----------------------------------------
	BYTE	PATT
	 POIN2	duskfalls_2_051
// 130   ----------------------------------------
	BYTE	PATT
	 POIN2	duskfalls_2_052
	BYTE		EOT     Ds4 
	BYTE	W01
// 131   ----------------------------------------
	BYTE	PATT
	 POIN2	duskfalls_2_053
	BYTE		EOT     Ds4 
	BYTE	W01
// 132   ----------------------------------------
	BYTE	W96
	BYTE	W48
// 133   ----------------------------------------
	BYTE	W96
	BYTE	W48
// 134   ----------------------------------------
	BYTE	W96
	BYTE	W48
// 135   ----------------------------------------
	BYTE	W96
	BYTE	W48
// 136   ----------------------------------------
	BYTE	W96
	BYTE	W48
// 137   ----------------------------------------
	BYTE	W96
	BYTE	W48
// 138   ----------------------------------------
	BYTE	W96
	BYTE	W48
// 139   ----------------------------------------
	BYTE	W96
	BYTE	W48
// 140   ----------------------------------------
	BYTE	PATT
	 POIN2	duskfalls_2_062
// 141   ----------------------------------------
	BYTE	PATT
	 POIN2	duskfalls_2_062
// 142   ----------------------------------------
	BYTE	PATT
	 POIN2	duskfalls_2_062
// 143   ----------------------------------------
	BYTE	PATT
	 POIN2	duskfalls_2_065
// 144   ----------------------------------------
	BYTE	PATT
	 POIN2	duskfalls_2_066
// 145   ----------------------------------------
	BYTE	PATT
	 POIN2	duskfalls_2_066
// 146   ----------------------------------------
	BYTE	PATT
	 POIN2	duskfalls_2_066
// 147   ----------------------------------------
	BYTE	PATT
	 POIN2	duskfalls_2_069
	BYTE	GoTo
	 POIN2	duskfalls_2_B1
duskfalls_2_B2:
// 148   ----------------------------------------
	BYTE	W96
	BYTE	W48
// 149   ----------------------------------------
	BYTE	W96
	BYTE	W48
// 150   ----------------------------------------
	BYTE	W96
	BYTE	W48
// 151   ----------------------------------------
	BYTE	W96
	BYTE	W48
// 152   ----------------------------------------
	BYTE	W96
	BYTE	W48
// 153   ----------------------------------------
	BYTE	W96
	BYTE	W48
// 154   ----------------------------------------
	BYTE	W96
	BYTE	W48
// 155   ----------------------------------------
	BYTE	PATT
	 POIN2	duskfalls_2_019
	BYTE	FINE

//**************** Track 3 (Midi-Chn.3) ****************//

duskfalls_3:
	BYTE	KEYSH   duskfalls_key+0
// 000   ----------------------------------------
	BYTE		VOICE   73
	BYTE		VOL     127*duskfalls_mvl/mxv
	BYTE		PAN     c_v+0
	BYTE	W96
	BYTE	W48
// 001   ----------------------------------------
	BYTE	W96
	BYTE	W48
// 002   ----------------------------------------
	BYTE	W96
	BYTE	W48
// 003   ----------------------------------------
	BYTE	W96
	BYTE	W48
duskfalls_3_B1:
// 004   ----------------------------------------
	BYTE	W96
	BYTE	W48
// 005   ----------------------------------------
	BYTE	W96
	BYTE	W48
// 006   ----------------------------------------
	BYTE	W96
	BYTE	W48
// 007   ----------------------------------------
	BYTE	W96
	BYTE	W48
// 008   ----------------------------------------
duskfalls_3_008:
	BYTE		TIE     Ds4   v116
	BYTE	W96
	BYTE	W44
	BYTE	W03
	BYTE	PEND
	BYTE		EOT   
	BYTE	W01
// 009   ----------------------------------------
	BYTE	PATT
	 POIN2	duskfalls_3_008
	BYTE		EOT     Ds4 
	BYTE	W01
// 010   ----------------------------------------
	BYTE	PATT
	 POIN2	duskfalls_3_008
	BYTE		EOT     Ds4 
	BYTE	W01
// 011   ----------------------------------------
	BYTE	PATT
	 POIN2	duskfalls_3_008
	BYTE		EOT     Ds4 
	BYTE	W01
// 012   ----------------------------------------
	BYTE	W96
	BYTE	W48
// 013   ----------------------------------------
	BYTE	W96
	BYTE	W48
// 014   ----------------------------------------
	BYTE	W96
	BYTE	W48
// 015   ----------------------------------------
	BYTE	W96
	BYTE	W48
// 016   ----------------------------------------
	BYTE	W96
	BYTE	W48
// 017   ----------------------------------------
	BYTE	W96
	BYTE	W48
// 018   ----------------------------------------
	BYTE	W96
	BYTE	W48
// 019   ----------------------------------------
	BYTE	W96
	BYTE	W48
// 020   ----------------------------------------
duskfalls_3_020:
	BYTE		N32     Ds3   v116
	BYTE	W36
	BYTE		N44     As3 
	BYTE	W48
	BYTE		N11     Cs4 
	BYTE	W12
	BYTE		        Cn4 
	BYTE	W12
	BYTE		        Gs3 
	BYTE	W12
	BYTE		        As3 
	BYTE	W12
	BYTE		        Cn4 
	BYTE	W12
	BYTE	PEND
// 021   ----------------------------------------
duskfalls_3_021:
	BYTE		N11     As3   v116
	BYTE	W12
	BYTE		N23     Ds3 
	BYTE	W24
	BYTE		N44     As3 
	BYTE	W48
	BYTE		N11     Gs3 
	BYTE	W12
	BYTE		        Fs3 
	BYTE	W12
	BYTE		        Fn3 
	BYTE	W12
	BYTE		        Fs3 
	BYTE	W12
	BYTE		        Gs3 
	BYTE	W12
	BYTE	PEND
// 022   ----------------------------------------
duskfalls_3_022:
	BYTE		N11     As3   v116
	BYTE	W12
	BYTE		N23     Ds3 
	BYTE	W24
	BYTE		N23   
	BYTE	W24
	BYTE		N11     Gs3 
	BYTE	W12
	BYTE		N32     Fn3 
	BYTE	W36
	BYTE		N23     Ds3 
	BYTE	W24
	BYTE		N11     Cs3 
	BYTE	W12
	BYTE	PEND
// 023   ----------------------------------------
duskfalls_3_023:
	BYTE		TIE     Ds3   v116
	BYTE	W96
	BYTE	W44
	BYTE	W03
	BYTE	PEND
	BYTE		EOT   
	BYTE	W01
// 024   ----------------------------------------
duskfalls_3_024:
	BYTE		N32     Ds3   v127
	BYTE	W36
	BYTE		N05     Gs3 
	BYTE	W06
	BYTE		N40     As3 
	BYTE	W42
	BYTE		N11     Cs4 
	BYTE	W12
	BYTE		        Cn4 
	BYTE	W12
	BYTE		        Gs3 
	BYTE	W12
	BYTE		        As3 
	BYTE	W12
	BYTE		        Cn4 
	BYTE	W12
	BYTE	PEND
// 025   ----------------------------------------
duskfalls_3_025:
	BYTE		N11     As3   v127
	BYTE	W12
	BYTE		        Ds3 
	BYTE	W12
	BYTE		N11   
	BYTE	W12
	BYTE		N05     Gs3 
	BYTE	W06
	BYTE		N40     As3 
	BYTE	W42
	BYTE		N11     Gs3 
	BYTE	W12
	BYTE		        Fs3 
	BYTE	W12
	BYTE		        Fn3 
	BYTE	W12
	BYTE		        Fs3 
	BYTE	W12
	BYTE		        Gs3 
	BYTE	W12
	BYTE	PEND
// 026   ----------------------------------------
duskfalls_3_026:
	BYTE		N11     As3   v127
	BYTE	W12
	BYTE		N23     Ds3 
	BYTE	W24
	BYTE		N23   
	BYTE	W24
	BYTE		N11     Gs3 
	BYTE	W12
	BYTE		N23     Fn3 
	BYTE	W24
	BYTE		N05     Fs3 
	BYTE	W06
	BYTE		        Fn3 
	BYTE	W06
	BYTE		N23     Ds3 
	BYTE	W24
	BYTE		N11     Cs3 
	BYTE	W12
	BYTE	PEND
// 027   ----------------------------------------
duskfalls_3_027:
	BYTE		TIE     Ds3   v127
	BYTE	W96
	BYTE	W11
	BYTE	PEND
	BYTE		EOT   
	BYTE	W01
	BYTE		N11     As2 
	BYTE	W12
	BYTE		        Bn2 
	BYTE	W12
	BYTE		        Cs3 
	BYTE	W12
// 028   ----------------------------------------
duskfalls_3_028:
	BYTE		N44     Ds3   v127
	BYTE	W48
	BYTE		N11     Fn3 
	BYTE	W12
	BYTE		        Fs3 
	BYTE	W12
	BYTE		        Gs3 
	BYTE	W12
	BYTE		        Fs3 
	BYTE	W12
	BYTE		        Fn3 
	BYTE	W12
	BYTE		TIE     Ds3 
	BYTE	W36
	BYTE	PEND
// 029   ----------------------------------------
	BYTE	W96
	BYTE	W11
	BYTE		EOT   
	BYTE	W01
	BYTE		N32     As2 
	BYTE	W36
// 030   ----------------------------------------
	BYTE	PATT
	 POIN2	duskfalls_3_028
// 031   ----------------------------------------
	BYTE	W96
	BYTE	W11
	BYTE		EOT     Ds3 
	BYTE	W01
	BYTE		N11     As2   v127
	BYTE	W12
	BYTE		        Bn2 
	BYTE	W12
	BYTE		        Cs3 
	BYTE	W12
// 032   ----------------------------------------
duskfalls_3_032:
	BYTE		N32     Ds3   v127
	BYTE	W36
	BYTE		N11   
	BYTE	W12
	BYTE		        En3 
	BYTE	W12
	BYTE		        Fs3 
	BYTE	W12
	BYTE		        Gs3 
	BYTE	W12
	BYTE		        Fs3 
	BYTE	W12
	BYTE		        Fn3 
	BYTE	W12
	BYTE		N68     Ds3 
	BYTE	W36
	BYTE	PEND
// 033   ----------------------------------------
duskfalls_3_033:
	BYTE	W36
	BYTE		N68     Ds3   v127
	BYTE	W72
	BYTE		N11     Dn3 
	BYTE	W12
	BYTE		        Ds3 
	BYTE	W12
	BYTE		        Fn3 
	BYTE	W12
	BYTE	PEND
// 034   ----------------------------------------
duskfalls_3_034:
	BYTE		N23     Fs3   v127
	BYTE	W24
	BYTE		N11     Bn2 
	BYTE	W12
	BYTE		N23     Fs3 
	BYTE	W24
	BYTE		N05     Fn3 
	BYTE	W06
	BYTE		        Fs3 
	BYTE	W06
	BYTE		N11     Fn3 
	BYTE	W12
	BYTE		        Ds3 
	BYTE	W12
	BYTE		        Cs3 
	BYTE	W12
	BYTE		N05     Ds3 
	BYTE	W06
	BYTE		        Fn3 
	BYTE	W06
	BYTE		TIE     Ds3 
	BYTE	W24
	BYTE	PEND
// 035   ----------------------------------------
duskfalls_3_035:
	BYTE	W96
	BYTE	W44
	BYTE	W03
	BYTE	PEND
	BYTE		EOT     Ds3 
	BYTE	W01
// 036   ----------------------------------------
	BYTE	W96
	BYTE	W48
// 037   ----------------------------------------
	BYTE	W96
	BYTE	W48
// 038   ----------------------------------------
	BYTE	W96
	BYTE	W48
// 039   ----------------------------------------
	BYTE	W96
	BYTE	W48
// 040   ----------------------------------------
	BYTE	W96
	BYTE	W48
// 041   ----------------------------------------
	BYTE	W96
	BYTE	W48
// 042   ----------------------------------------
	BYTE	W96
	BYTE	W48
// 043   ----------------------------------------
	BYTE	W96
	BYTE	W48
// 044   ----------------------------------------
duskfalls_3_044:
	BYTE		N11     Ds3   v116
	BYTE	W12
	BYTE		        As3 
	BYTE	W12
	BYTE		N11   
	BYTE	W12
	BYTE		        Ds3 
	BYTE	W12
	BYTE		        Gs3 
	BYTE	W12
	BYTE		        As3 
	BYTE	W12
	BYTE		        Cs4 
	BYTE	W12
	BYTE		N05     Cn4 
	BYTE	W06
	BYTE		        Cs4 
	BYTE	W06
	BYTE		N11     Cn4 
	BYTE	W12
	BYTE		        As3 
	BYTE	W12
	BYTE		        Gs3 
	BYTE	W12
	BYTE		        Fs3 
	BYTE	W12
	BYTE	PEND
// 045   ----------------------------------------
duskfalls_3_045:
	BYTE		N11     Ds3   v116
	BYTE	W12
	BYTE		        As3 
	BYTE	W12
	BYTE		N11   
	BYTE	W12
	BYTE		        Ds3 
	BYTE	W12
	BYTE		        Gs3 
	BYTE	W12
	BYTE		        As3 
	BYTE	W12
	BYTE		        Cn4 
	BYTE	W12
	BYTE		N05     As3 
	BYTE	W06
	BYTE		        Cn4 
	BYTE	W06
	BYTE		N11     As3 
	BYTE	W12
	BYTE		        Gs3 
	BYTE	W12
	BYTE		        Fs3 
	BYTE	W12
	BYTE		        Fn3 
	BYTE	W12
	BYTE	PEND
// 046   ----------------------------------------
	BYTE	PATT
	 POIN2	duskfalls_3_044
// 047   ----------------------------------------
	BYTE	PATT
	 POIN2	duskfalls_3_045
// 048   ----------------------------------------
	BYTE	PATT
	 POIN2	duskfalls_3_044
// 049   ----------------------------------------
	BYTE	PATT
	 POIN2	duskfalls_3_045
// 050   ----------------------------------------
duskfalls_3_050:
	BYTE		N68     Fs3   v116
	BYTE	W72
	BYTE		N11     Ds3 
	BYTE	W12
	BYTE		        Fn3 
	BYTE	W12
	BYTE		        Fs3 
	BYTE	W12
	BYTE		N32     Gs3 
	BYTE	W36
	BYTE	PEND
// 051   ----------------------------------------
duskfalls_3_051:
	BYTE		N11     Fn3   v116
	BYTE	W12
	BYTE		        Fs3 
	BYTE	W12
	BYTE		        Gs3 
	BYTE	W12
	BYTE		        As3 
	BYTE	W12
	BYTE		N05     Gs3 
	BYTE	W06
	BYTE		        As3 
	BYTE	W06
	BYTE		N11     Gs3 
	BYTE	W12
	BYTE		        Fs3 
	BYTE	W12
	BYTE		        Fn3 
	BYTE	W12
	BYTE		        Fs3 
	BYTE	W12
	BYTE		        Fn3 
	BYTE	W12
	BYTE		        Ds3 
	BYTE	W12
	BYTE		        Cs3 
	BYTE	W12
	BYTE	PEND
// 052   ----------------------------------------
duskfalls_3_052:
	BYTE		N68     Ds3   v116
	BYTE	W72
	BYTE		N05     Ds3   v124
	BYTE	W06
	BYTE		        Fn3 
	BYTE	W06
	BYTE		N56     Ds3   v127
	BYTE	W60
	BYTE	PEND
// 053   ----------------------------------------
duskfalls_3_053:
	BYTE		N68     Ds3   v127
	BYTE	W72
	BYTE		N05   
	BYTE	W06
	BYTE		        Fn3 
	BYTE	W06
	BYTE		N56     Ds3 
	BYTE	W60
	BYTE	PEND
// 054   ----------------------------------------
duskfalls_3_054:
	BYTE		N68     Cn4   v116
	BYTE	W72
	BYTE		TIE     Fn3 
	BYTE	W72
	BYTE	PEND
// 055   ----------------------------------------
	BYTE	W32
	BYTE	W03
	BYTE		EOT   
	BYTE	W01
	BYTE		N32     Gn3 
	BYTE	W36
	BYTE		        Gs3 
	BYTE	W36
	BYTE		        As3 
	BYTE	W36
// 056   ----------------------------------------
duskfalls_3_056:
	BYTE		N68     Cn4   v116
	BYTE	W72
	BYTE		N92     Fn4 
	BYTE	W72
	BYTE	PEND
// 057   ----------------------------------------
duskfalls_3_057:
	BYTE	W24
	BYTE		N23     Ds4   v116
	BYTE	W24
	BYTE		        Cs4 
	BYTE	W24
	BYTE		        Cn4 
	BYTE	W24
	BYTE		        As3 
	BYTE	W24
	BYTE		        Cs4 
	BYTE	W24
	BYTE	PEND
// 058   ----------------------------------------
	BYTE	PATT
	 POIN2	duskfalls_3_054
// 059   ----------------------------------------
	BYTE	W32
	BYTE	W03
	BYTE		EOT     Fn3 
	BYTE	W01
	BYTE		N32     Gn3   v116
	BYTE	W36
	BYTE		        Gs3 
	BYTE	W36
	BYTE		        As3 
	BYTE	W36
// 060   ----------------------------------------
duskfalls_3_060:
	BYTE		N23     Cn4   v116
	BYTE	W24
	BYTE		N11     As3 
	BYTE	W12
	BYTE		N92     Cn4 
	BYTE	W96
	BYTE		N11     Fn4 
	BYTE	W12
	BYTE	PEND
// 061   ----------------------------------------
duskfalls_3_061:
	BYTE		TIE     Cn4   v116
	BYTE	W96
	BYTE	W44
	BYTE	W03
	BYTE	PEND
	BYTE		EOT   
	BYTE	W01
// 062   ----------------------------------------
duskfalls_3_062:
	BYTE		N92     Fn3   v116
	BYTE	W96
	BYTE		N23     Gn3 
	BYTE	W24
	BYTE		        Gs3 
	BYTE	W24
	BYTE	PEND
// 063   ----------------------------------------
	BYTE	PATT
	 POIN2	duskfalls_3_062
// 064   ----------------------------------------
duskfalls_3_064:
	BYTE		N44     As3   v116
	BYTE	W48
	BYTE		N11     Gs3 
	BYTE	W12
	BYTE		        Gn3 
	BYTE	W12
	BYTE		TIE     Fn3 
	BYTE	W72
	BYTE	PEND
// 065   ----------------------------------------
	BYTE	W44
	BYTE	W03
	BYTE		EOT   
	BYTE	W01
	BYTE		N11     Gn3 
	BYTE	W12
	BYTE		        Fn3 
	BYTE	W12
	BYTE		N68     En3 
	BYTE	W72
// 066   ----------------------------------------
	BYTE	PATT
	 POIN2	duskfalls_3_062
// 067   ----------------------------------------
	BYTE	PATT
	 POIN2	duskfalls_3_062
// 068   ----------------------------------------
duskfalls_3_068:
	BYTE		N56     As3   v116
	BYTE	W60
	BYTE		N11     Cn4 
	BYTE	W12
	BYTE		TIE     Fn3 
	BYTE	W72
	BYTE	PEND
// 069   ----------------------------------------
	BYTE	W44
	BYTE	W03
	BYTE		EOT   
	BYTE	W01
	BYTE		N11     Gn3 
	BYTE	W12
	BYTE		        Fn3 
	BYTE	W12
	BYTE		N68     En3 
	BYTE	W72
// 070   ----------------------------------------
duskfalls_3_070:
	BYTE		TIE     Fn3   v116
	BYTE	W96
	BYTE	W48
	BYTE	PEND
// 071   ----------------------------------------
duskfalls_3_071:
	BYTE	W96
	BYTE	W32
	BYTE	W03
	BYTE	PEND
	BYTE		EOT     Fn3 
	BYTE	W01
	BYTE		N11     Cn4   v116
	BYTE	W12
// 072   ----------------------------------------
duskfalls_3_072:
	BYTE		TIE     Fn4   v096
	BYTE	W96
	BYTE	W48
	BYTE	PEND
// 073   ----------------------------------------
	BYTE	W96
	BYTE	W23
	BYTE		EOT   
	BYTE	W01
	BYTE		N11     Gs4 
	BYTE	W12
	BYTE		        Gn4 
	BYTE	W12
// 074   ----------------------------------------
duskfalls_3_074:
	BYTE		TIE     Fn4   v076
	BYTE	W96
	BYTE	W48
	BYTE	PEND
// 075   ----------------------------------------
	BYTE	W96
	BYTE	W48
// 076   ----------------------------------------
	BYTE	W96
	BYTE	W48
// 077   ----------------------------------------
	BYTE	PATT
	 POIN2	duskfalls_3_035
	BYTE		EOT     Fn4 
	BYTE	W01
// 078   ----------------------------------------
	BYTE	W96
	BYTE	W48
// 079   ----------------------------------------
	BYTE	W96
	BYTE	W48
// 080   ----------------------------------------
	BYTE	W96
	BYTE	W48
// 081   ----------------------------------------
	BYTE	W96
	BYTE	W48
// 082   ----------------------------------------
	BYTE	W96
	BYTE	W48
// 083   ----------------------------------------
	BYTE	W96
	BYTE	W48
// 084   ----------------------------------------
	BYTE	W96
	BYTE	W48
// 085   ----------------------------------------
	BYTE	W96
	BYTE	W48
// 086   ----------------------------------------
	BYTE	PATT
	 POIN2	duskfalls_3_008
	BYTE		EOT     Ds4 
	BYTE	W01
// 087   ----------------------------------------
	BYTE	PATT
	 POIN2	duskfalls_3_008
	BYTE		EOT     Ds4 
	BYTE	W01
// 088   ----------------------------------------
	BYTE	PATT
	 POIN2	duskfalls_3_008
	BYTE		EOT     Ds4 
	BYTE	W01
// 089   ----------------------------------------
	BYTE	PATT
	 POIN2	duskfalls_3_008
	BYTE		EOT     Ds4 
	BYTE	W01
// 090   ----------------------------------------
	BYTE	W96
	BYTE	W48
// 091   ----------------------------------------
	BYTE	W96
	BYTE	W48
// 092   ----------------------------------------
	BYTE	W96
	BYTE	W48
// 093   ----------------------------------------
	BYTE	W96
	BYTE	W48
// 094   ----------------------------------------
	BYTE	W96
	BYTE	W48
// 095   ----------------------------------------
	BYTE	W96
	BYTE	W48
// 096   ----------------------------------------
	BYTE	W96
	BYTE	W48
// 097   ----------------------------------------
	BYTE	W96
	BYTE	W48
// 098   ----------------------------------------
	BYTE	PATT
	 POIN2	duskfalls_3_020
// 099   ----------------------------------------
	BYTE	PATT
	 POIN2	duskfalls_3_021
// 100   ----------------------------------------
	BYTE	PATT
	 POIN2	duskfalls_3_022
// 101   ----------------------------------------
	BYTE	PATT
	 POIN2	duskfalls_3_023
	BYTE		EOT     Ds3 
	BYTE	W01
// 102   ----------------------------------------
	BYTE	PATT
	 POIN2	duskfalls_3_024
// 103   ----------------------------------------
	BYTE	PATT
	 POIN2	duskfalls_3_025
// 104   ----------------------------------------
	BYTE	PATT
	 POIN2	duskfalls_3_026
// 105   ----------------------------------------
	BYTE	PATT
	 POIN2	duskfalls_3_027
	BYTE		EOT     Ds3 
	BYTE	W01
	BYTE		N11     As2   v127
	BYTE	W12
	BYTE		        Bn2 
	BYTE	W12
	BYTE		        Cs3 
	BYTE	W12
// 106   ----------------------------------------
	BYTE	PATT
	 POIN2	duskfalls_3_028
// 107   ----------------------------------------
	BYTE	W96
	BYTE	W11
	BYTE		EOT     Ds3 
	BYTE	W01
	BYTE		N32     As2   v127
	BYTE	W36
// 108   ----------------------------------------
	BYTE	PATT
	 POIN2	duskfalls_3_028
// 109   ----------------------------------------
	BYTE	W96
	BYTE	W11
	BYTE		EOT     Ds3 
	BYTE	W01
	BYTE		N11     As2   v127
	BYTE	W12
	BYTE		        Bn2 
	BYTE	W12
	BYTE		        Cs3 
	BYTE	W12
// 110   ----------------------------------------
	BYTE	PATT
	 POIN2	duskfalls_3_032
// 111   ----------------------------------------
	BYTE	PATT
	 POIN2	duskfalls_3_033
// 112   ----------------------------------------
	BYTE	PATT
	 POIN2	duskfalls_3_034
// 113   ----------------------------------------
	BYTE	PATT
	 POIN2	duskfalls_3_035
	BYTE		EOT     Ds3 
	BYTE	W01
// 114   ----------------------------------------
	BYTE	W96
	BYTE	W48
// 115   ----------------------------------------
	BYTE	W96
	BYTE	W48
// 116   ----------------------------------------
	BYTE	W96
	BYTE	W48
// 117   ----------------------------------------
	BYTE	W96
	BYTE	W48
// 118   ----------------------------------------
	BYTE	W96
	BYTE	W48
// 119   ----------------------------------------
	BYTE	W96
	BYTE	W48
// 120   ----------------------------------------
	BYTE	W96
	BYTE	W48
// 121   ----------------------------------------
	BYTE	W96
	BYTE	W48
// 122   ----------------------------------------
	BYTE	PATT
	 POIN2	duskfalls_3_044
// 123   ----------------------------------------
	BYTE	PATT
	 POIN2	duskfalls_3_045
// 124   ----------------------------------------
	BYTE	PATT
	 POIN2	duskfalls_3_044
// 125   ----------------------------------------
	BYTE	PATT
	 POIN2	duskfalls_3_045
// 126   ----------------------------------------
	BYTE	PATT
	 POIN2	duskfalls_3_044
// 127   ----------------------------------------
	BYTE	PATT
	 POIN2	duskfalls_3_045
// 128   ----------------------------------------
	BYTE	PATT
	 POIN2	duskfalls_3_050
// 129   ----------------------------------------
	BYTE	PATT
	 POIN2	duskfalls_3_051
// 130   ----------------------------------------
	BYTE	PATT
	 POIN2	duskfalls_3_052
// 131   ----------------------------------------
	BYTE	PATT
	 POIN2	duskfalls_3_053
// 132   ----------------------------------------
	BYTE	PATT
	 POIN2	duskfalls_3_054
// 133   ----------------------------------------
	BYTE	W32
	BYTE	W03
	BYTE		EOT     Fn3 
	BYTE	W01
	BYTE		N32     Gn3   v116
	BYTE	W36
	BYTE		        Gs3 
	BYTE	W36
	BYTE		        As3 
	BYTE	W36
// 134   ----------------------------------------
	BYTE	PATT
	 POIN2	duskfalls_3_056
// 135   ----------------------------------------
	BYTE	PATT
	 POIN2	duskfalls_3_057
// 136   ----------------------------------------
	BYTE	PATT
	 POIN2	duskfalls_3_054
// 137   ----------------------------------------
	BYTE	W32
	BYTE	W03
	BYTE		EOT     Fn3 
	BYTE	W01
	BYTE		N32     Gn3   v116
	BYTE	W36
	BYTE		        Gs3 
	BYTE	W36
	BYTE		        As3 
	BYTE	W36
// 138   ----------------------------------------
	BYTE	PATT
	 POIN2	duskfalls_3_060
// 139   ----------------------------------------
	BYTE	PATT
	 POIN2	duskfalls_3_061
	BYTE		EOT     Cn4 
	BYTE	W01
// 140   ----------------------------------------
	BYTE	PATT
	 POIN2	duskfalls_3_062
// 141   ----------------------------------------
	BYTE	PATT
	 POIN2	duskfalls_3_062
// 142   ----------------------------------------
	BYTE	PATT
	 POIN2	duskfalls_3_064
// 143   ----------------------------------------
	BYTE	W44
	BYTE	W03
	BYTE		EOT     Fn3 
	BYTE	W01
	BYTE		N11     Gn3   v116
	BYTE	W12
	BYTE		        Fn3 
	BYTE	W12
	BYTE		N68     En3 
	BYTE	W72
// 144   ----------------------------------------
	BYTE	PATT
	 POIN2	duskfalls_3_062
// 145   ----------------------------------------
	BYTE	PATT
	 POIN2	duskfalls_3_062
// 146   ----------------------------------------
	BYTE	PATT
	 POIN2	duskfalls_3_068
// 147   ----------------------------------------
	BYTE	W44
	BYTE	W03
	BYTE		EOT     Fn3 
	BYTE	W01
	BYTE		N11     Gn3   v116
	BYTE	W12
	BYTE		        Fn3 
	BYTE	W12
	BYTE		N68     En3 
	BYTE	W72
	BYTE	GoTo
	 POIN2	duskfalls_3_B1
duskfalls_3_B2:
// 148   ----------------------------------------
	BYTE	PATT
	 POIN2	duskfalls_3_070
// 149   ----------------------------------------
	BYTE	PATT
	 POIN2	duskfalls_3_071
	BYTE		EOT     Fn3 
	BYTE	W01
	BYTE		N11     Cn4   v116
	BYTE	W12
// 150   ----------------------------------------
	BYTE	PATT
	 POIN2	duskfalls_3_072
// 151   ----------------------------------------
	BYTE	W96
	BYTE	W23
	BYTE		EOT     Fn4 
	BYTE	W01
	BYTE		N11     Gs4   v096
	BYTE	W12
	BYTE		        Gn4 
	BYTE	W12
// 152   ----------------------------------------
	BYTE	PATT
	 POIN2	duskfalls_3_074
// 153   ----------------------------------------
	BYTE	W96
	BYTE	W48
// 154   ----------------------------------------
	BYTE	W96
	BYTE	W48
// 155   ----------------------------------------
	BYTE	PATT
	 POIN2	duskfalls_3_035
	BYTE		EOT     Fn4 
	BYTE	FINE

//**************** Track 4 (Midi-Chn.4) ****************//

duskfalls_4:
	BYTE	KEYSH   duskfalls_key+0
// 000   ----------------------------------------
	BYTE		VOICE   71
	BYTE		VOL     126*duskfalls_mvl/mxv
	BYTE		PAN     c_v+0
	BYTE	W96
	BYTE	W48
// 001   ----------------------------------------
	BYTE	W96
	BYTE	W48
// 002   ----------------------------------------
	BYTE	W96
	BYTE	W48
// 003   ----------------------------------------
	BYTE	W96
	BYTE	W48
duskfalls_4_B1:
// 004   ----------------------------------------
	BYTE	W96
	BYTE	W48
// 005   ----------------------------------------
	BYTE	W96
	BYTE	W48
// 006   ----------------------------------------
	BYTE	W96
	BYTE	W48
// 007   ----------------------------------------
	BYTE	W96
	BYTE	W48
// 008   ----------------------------------------
	BYTE	W96
	BYTE	W48
// 009   ----------------------------------------
	BYTE	W96
	BYTE	W48
// 010   ----------------------------------------
	BYTE	W96
	BYTE	W48
// 011   ----------------------------------------
	BYTE	W96
	BYTE	W48
// 012   ----------------------------------------
	BYTE	W96
	BYTE	W48
// 013   ----------------------------------------
	BYTE	W96
	BYTE	W48
// 014   ----------------------------------------
	BYTE	W96
	BYTE	W48
// 015   ----------------------------------------
	BYTE	W96
	BYTE	W48
// 016   ----------------------------------------
	BYTE	W96
	BYTE	W48
// 017   ----------------------------------------
	BYTE	W96
	BYTE	W48
// 018   ----------------------------------------
	BYTE	W96
	BYTE	W48
// 019   ----------------------------------------
	BYTE	W96
	BYTE	W48
// 020   ----------------------------------------
duskfalls_4_020:
	BYTE		TIE     Ds2   v080
	BYTE	W96
	BYTE	W48
	BYTE	PEND
// 021   ----------------------------------------
duskfalls_4_021:
	BYTE	W96
	BYTE	W44
	BYTE	W03
	BYTE	PEND
	BYTE		EOT     Ds2 
	BYTE	W01
// 022   ----------------------------------------
duskfalls_4_022:
	BYTE		N68     Bn1   v080
	BYTE	W72
	BYTE		        Cs2 
	BYTE	W72
	BYTE	PEND
// 023   ----------------------------------------
duskfalls_4_023:
	BYTE		TIE     Gs1   v080
	BYTE	W96
	BYTE	W44
	BYTE	W03
	BYTE	PEND
	BYTE		EOT   
	BYTE	W01
// 024   ----------------------------------------
	BYTE	W96
	BYTE	W48
// 025   ----------------------------------------
	BYTE	W96
	BYTE	W48
// 026   ----------------------------------------
	BYTE	W96
	BYTE	W48
// 027   ----------------------------------------
	BYTE	W96
	BYTE	W48
// 028   ----------------------------------------
	BYTE	W96
	BYTE	W48
// 029   ----------------------------------------
	BYTE	W96
	BYTE	W48
// 030   ----------------------------------------
	BYTE	W96
	BYTE	W48
// 031   ----------------------------------------
	BYTE	W96
	BYTE	W48
// 032   ----------------------------------------
	BYTE	W96
	BYTE	W48
// 033   ----------------------------------------
	BYTE	W96
	BYTE	W48
// 034   ----------------------------------------
	BYTE	W96
	BYTE	W48
// 035   ----------------------------------------
	BYTE	W96
	BYTE	W48
// 036   ----------------------------------------
duskfalls_4_036:
	BYTE		TIE     Cs2   v052
	BYTE	W96
	BYTE	W44
	BYTE	W03
	BYTE	PEND
	BYTE		EOT   
	BYTE	W01
// 037   ----------------------------------------
duskfalls_4_037:
	BYTE		TIE     Ds2   v052
	BYTE	W96
	BYTE	W44
	BYTE	W03
	BYTE	PEND
	BYTE		EOT   
	BYTE	W01
// 038   ----------------------------------------
	BYTE	PATT
	 POIN2	duskfalls_4_036
	BYTE		EOT     Cs2 
	BYTE	W01
// 039   ----------------------------------------
	BYTE	PATT
	 POIN2	duskfalls_4_037
	BYTE		EOT     Ds2 
	BYTE	W01
// 040   ----------------------------------------
	BYTE	PATT
	 POIN2	duskfalls_4_036
	BYTE		EOT     Cs2 
	BYTE	W01
// 041   ----------------------------------------
	BYTE	PATT
	 POIN2	duskfalls_4_037
	BYTE		EOT     Ds2 
	BYTE	W01
// 042   ----------------------------------------
duskfalls_4_042:
	BYTE		TIE     Bn1   v052
	BYTE	W96
	BYTE	W44
	BYTE	W03
	BYTE	PEND
	BYTE		EOT   
	BYTE	W01
// 043   ----------------------------------------
	BYTE	PATT
	 POIN2	duskfalls_4_036
	BYTE		EOT     Cs2 
	BYTE	W01
// 044   ----------------------------------------
duskfalls_4_044:
	BYTE		TIE     Cs2   v064
	BYTE	W96
	BYTE	W44
	BYTE	W03
	BYTE	PEND
	BYTE		EOT   
	BYTE	W01
// 045   ----------------------------------------
duskfalls_4_045:
	BYTE		TIE     Ds2   v064
	BYTE	W96
	BYTE	W44
	BYTE	W03
	BYTE	PEND
	BYTE		EOT   
	BYTE	W01
// 046   ----------------------------------------
	BYTE	PATT
	 POIN2	duskfalls_4_044
	BYTE		EOT     Cs2 
	BYTE	W01
// 047   ----------------------------------------
	BYTE	PATT
	 POIN2	duskfalls_4_045
	BYTE		EOT     Ds2 
	BYTE	W01
// 048   ----------------------------------------
	BYTE	PATT
	 POIN2	duskfalls_4_044
	BYTE		EOT     Cs2 
	BYTE	W01
// 049   ----------------------------------------
	BYTE	PATT
	 POIN2	duskfalls_4_045
	BYTE		EOT     Ds2 
	BYTE	W01
// 050   ----------------------------------------
duskfalls_4_050:
	BYTE		TIE     Bn1   v064
	BYTE	W96
	BYTE	W44
	BYTE	W03
	BYTE	PEND
	BYTE		EOT   
	BYTE	W01
// 051   ----------------------------------------
	BYTE	PATT
	 POIN2	duskfalls_4_044
	BYTE		EOT     Cs2 
	BYTE	W01
// 052   ----------------------------------------
duskfalls_4_052:
	BYTE		N32     Ds2   v064
	BYTE	W36
	BYTE		N23     Ds2   v072
	BYTE	W36
	BYTE		N32     Ds2   v080
	BYTE	W36
	BYTE		N23     Ds2   v088
	BYTE	W36
	BYTE	PEND
// 053   ----------------------------------------
duskfalls_4_053:
	BYTE		N32     Ds2   v096
	BYTE	W36
	BYTE		N23   
	BYTE	W36
	BYTE		N32   
	BYTE	W36
	BYTE		N23   
	BYTE	W36
	BYTE	PEND
// 054   ----------------------------------------
duskfalls_4_054:
	BYTE		N32     Fn1   v096
	BYTE	W36
	BYTE		N32   
	BYTE	W36
	BYTE		N32   
	BYTE	W36
	BYTE		N32   
	BYTE	W36
	BYTE	PEND
// 055   ----------------------------------------
duskfalls_4_055:
	BYTE		N32     Cs2   v096
	BYTE	W36
	BYTE		N32   
	BYTE	W36
	BYTE		N32   
	BYTE	W36
	BYTE		N32   
	BYTE	W36
	BYTE	PEND
// 056   ----------------------------------------
duskfalls_4_056:
	BYTE		N32     As1   v096
	BYTE	W36
	BYTE		N32   
	BYTE	W36
	BYTE		N32   
	BYTE	W36
	BYTE		N32   
	BYTE	W36
	BYTE	PEND
// 057   ----------------------------------------
duskfalls_4_057:
	BYTE		N32     As1   v096
	BYTE	W36
	BYTE		N32   
	BYTE	W36
	BYTE		        Fs1 
	BYTE	W36
	BYTE		N32   
	BYTE	W36
	BYTE	PEND
// 058   ----------------------------------------
	BYTE	PATT
	 POIN2	duskfalls_4_054
// 059   ----------------------------------------
	BYTE	PATT
	 POIN2	duskfalls_4_055
// 060   ----------------------------------------
	BYTE	PATT
	 POIN2	duskfalls_4_056
// 061   ----------------------------------------
	BYTE	PATT
	 POIN2	duskfalls_4_057
// 062   ----------------------------------------
	BYTE	PATT
	 POIN2	duskfalls_4_054
// 063   ----------------------------------------
	BYTE	PATT
	 POIN2	duskfalls_4_055
// 064   ----------------------------------------
duskfalls_4_064:
	BYTE		N32     Dn2   v096
	BYTE	W36
	BYTE		N32   
	BYTE	W36
	BYTE		N32   
	BYTE	W36
	BYTE		N32   
	BYTE	W36
	BYTE	PEND
// 065   ----------------------------------------
duskfalls_4_065:
	BYTE		N32     Cn2   v096
	BYTE	W36
	BYTE		N32   
	BYTE	W36
	BYTE		N32   
	BYTE	W36
	BYTE		N32   
	BYTE	W36
	BYTE	PEND
// 066   ----------------------------------------
	BYTE	PATT
	 POIN2	duskfalls_4_054
// 067   ----------------------------------------
	BYTE	PATT
	 POIN2	duskfalls_4_055
// 068   ----------------------------------------
	BYTE	PATT
	 POIN2	duskfalls_4_064
// 069   ----------------------------------------
	BYTE	PATT
	 POIN2	duskfalls_4_065
// 070   ----------------------------------------
duskfalls_4_070:
	BYTE		N68     Cs2   v096
	BYTE	W72
	BYTE		N11     Ds2 
	BYTE	W36
	BYTE		TIE     As1 
	BYTE	W36
	BYTE	PEND
// 071   ----------------------------------------
	BYTE	PATT
	 POIN2	duskfalls_4_021
	BYTE		EOT     As1 
	BYTE	W01
// 072   ----------------------------------------
duskfalls_4_072:
	BYTE		N68     Cs2   v080
	BYTE	W72
	BYTE		N11     Ds2 
	BYTE	W36
	BYTE		TIE     As1 
	BYTE	W36
	BYTE	PEND
// 073   ----------------------------------------
	BYTE	PATT
	 POIN2	duskfalls_4_021
	BYTE		EOT     As1 
	BYTE	W01
// 074   ----------------------------------------
duskfalls_4_074:
	BYTE		N68     Cs2   v064
	BYTE	W72
	BYTE		N11     Ds2 
	BYTE	W36
	BYTE		TIE     As1 
	BYTE	W36
	BYTE	PEND
// 075   ----------------------------------------
	BYTE	W96
	BYTE	W48
// 076   ----------------------------------------
	BYTE	W96
	BYTE	W48
// 077   ----------------------------------------
	BYTE	PATT
	 POIN2	duskfalls_4_021
	BYTE		EOT     As1 
	BYTE	W01
// 078   ----------------------------------------
	BYTE	W96
	BYTE	W48
// 079   ----------------------------------------
	BYTE	W96
	BYTE	W48
// 080   ----------------------------------------
	BYTE	W96
	BYTE	W48
// 081   ----------------------------------------
	BYTE	W96
	BYTE	W48
// 082   ----------------------------------------
	BYTE	W96
	BYTE	W48
// 083   ----------------------------------------
	BYTE	W96
	BYTE	W48
// 084   ----------------------------------------
	BYTE	W96
	BYTE	W48
// 085   ----------------------------------------
	BYTE	W96
	BYTE	W48
// 086   ----------------------------------------
	BYTE	W96
	BYTE	W48
// 087   ----------------------------------------
	BYTE	W96
	BYTE	W48
// 088   ----------------------------------------
	BYTE	W96
	BYTE	W48
// 089   ----------------------------------------
	BYTE	W96
	BYTE	W48
// 090   ----------------------------------------
	BYTE	W96
	BYTE	W48
// 091   ----------------------------------------
	BYTE	W96
	BYTE	W48
// 092   ----------------------------------------
	BYTE	W96
	BYTE	W48
// 093   ----------------------------------------
	BYTE	W96
	BYTE	W48
// 094   ----------------------------------------
	BYTE	W96
	BYTE	W48
// 095   ----------------------------------------
	BYTE	W96
	BYTE	W48
// 096   ----------------------------------------
	BYTE	W96
	BYTE	W48
// 097   ----------------------------------------
	BYTE	W96
	BYTE	W48
// 098   ----------------------------------------
	BYTE	PATT
	 POIN2	duskfalls_4_020
// 099   ----------------------------------------
	BYTE	PATT
	 POIN2	duskfalls_4_021
	BYTE		EOT     Ds2 
	BYTE	W01
// 100   ----------------------------------------
	BYTE	PATT
	 POIN2	duskfalls_4_022
// 101   ----------------------------------------
	BYTE	PATT
	 POIN2	duskfalls_4_023
	BYTE		EOT     Gs1 
	BYTE	W01
// 102   ----------------------------------------
	BYTE	W96
	BYTE	W48
// 103   ----------------------------------------
	BYTE	W96
	BYTE	W48
// 104   ----------------------------------------
	BYTE	W96
	BYTE	W48
// 105   ----------------------------------------
	BYTE	W96
	BYTE	W48
// 106   ----------------------------------------
	BYTE	W96
	BYTE	W48
// 107   ----------------------------------------
	BYTE	W96
	BYTE	W48
// 108   ----------------------------------------
	BYTE	W96
	BYTE	W48
// 109   ----------------------------------------
	BYTE	W96
	BYTE	W48
// 110   ----------------------------------------
	BYTE	W96
	BYTE	W48
// 111   ----------------------------------------
	BYTE	W96
	BYTE	W48
// 112   ----------------------------------------
	BYTE	W96
	BYTE	W48
// 113   ----------------------------------------
	BYTE	W96
	BYTE	W48
// 114   ----------------------------------------
	BYTE	PATT
	 POIN2	duskfalls_4_036
	BYTE		EOT     Cs2 
	BYTE	W01
// 115   ----------------------------------------
	BYTE	PATT
	 POIN2	duskfalls_4_037
	BYTE		EOT     Ds2 
	BYTE	W01
// 116   ----------------------------------------
	BYTE	PATT
	 POIN2	duskfalls_4_036
	BYTE		EOT     Cs2 
	BYTE	W01
// 117   ----------------------------------------
	BYTE	PATT
	 POIN2	duskfalls_4_037
	BYTE		EOT     Ds2 
	BYTE	W01
// 118   ----------------------------------------
	BYTE	PATT
	 POIN2	duskfalls_4_036
	BYTE		EOT     Cs2 
	BYTE	W01
// 119   ----------------------------------------
	BYTE	PATT
	 POIN2	duskfalls_4_037
	BYTE		EOT     Ds2 
	BYTE	W01
// 120   ----------------------------------------
	BYTE	PATT
	 POIN2	duskfalls_4_042
	BYTE		EOT     Bn1 
	BYTE	W01
// 121   ----------------------------------------
	BYTE	PATT
	 POIN2	duskfalls_4_036
	BYTE		EOT     Cs2 
	BYTE	W01
// 122   ----------------------------------------
	BYTE	PATT
	 POIN2	duskfalls_4_044
	BYTE		EOT     Cs2 
	BYTE	W01
// 123   ----------------------------------------
	BYTE	PATT
	 POIN2	duskfalls_4_045
	BYTE		EOT     Ds2 
	BYTE	W01
// 124   ----------------------------------------
	BYTE	PATT
	 POIN2	duskfalls_4_044
	BYTE		EOT     Cs2 
	BYTE	W01
// 125   ----------------------------------------
	BYTE	PATT
	 POIN2	duskfalls_4_045
	BYTE		EOT     Ds2 
	BYTE	W01
// 126   ----------------------------------------
	BYTE	PATT
	 POIN2	duskfalls_4_044
	BYTE		EOT     Cs2 
	BYTE	W01
// 127   ----------------------------------------
	BYTE	PATT
	 POIN2	duskfalls_4_045
	BYTE		EOT     Ds2 
	BYTE	W01
// 128   ----------------------------------------
	BYTE	PATT
	 POIN2	duskfalls_4_050
	BYTE		EOT     Bn1 
	BYTE	W01
// 129   ----------------------------------------
	BYTE	PATT
	 POIN2	duskfalls_4_044
	BYTE		EOT     Cs2 
	BYTE	W01
// 130   ----------------------------------------
	BYTE	PATT
	 POIN2	duskfalls_4_052
// 131   ----------------------------------------
	BYTE	PATT
	 POIN2	duskfalls_4_053
// 132   ----------------------------------------
	BYTE	PATT
	 POIN2	duskfalls_4_054
// 133   ----------------------------------------
	BYTE	PATT
	 POIN2	duskfalls_4_055
// 134   ----------------------------------------
	BYTE	PATT
	 POIN2	duskfalls_4_056
// 135   ----------------------------------------
	BYTE	PATT
	 POIN2	duskfalls_4_057
// 136   ----------------------------------------
	BYTE	PATT
	 POIN2	duskfalls_4_054
// 137   ----------------------------------------
	BYTE	PATT
	 POIN2	duskfalls_4_055
// 138   ----------------------------------------
	BYTE	PATT
	 POIN2	duskfalls_4_056
// 139   ----------------------------------------
	BYTE	PATT
	 POIN2	duskfalls_4_057
// 140   ----------------------------------------
	BYTE	PATT
	 POIN2	duskfalls_4_054
// 141   ----------------------------------------
	BYTE	PATT
	 POIN2	duskfalls_4_055
// 142   ----------------------------------------
	BYTE	PATT
	 POIN2	duskfalls_4_064
// 143   ----------------------------------------
	BYTE	PATT
	 POIN2	duskfalls_4_065
// 144   ----------------------------------------
	BYTE	PATT
	 POIN2	duskfalls_4_054
// 145   ----------------------------------------
	BYTE	PATT
	 POIN2	duskfalls_4_055
// 146   ----------------------------------------
	BYTE	PATT
	 POIN2	duskfalls_4_064
// 147   ----------------------------------------
	BYTE	PATT
	 POIN2	duskfalls_4_065
	BYTE	GoTo
	 POIN2	duskfalls_4_B1
duskfalls_4_B2:
// 148   ----------------------------------------
	BYTE	PATT
	 POIN2	duskfalls_4_070
// 149   ----------------------------------------
	BYTE	PATT
	 POIN2	duskfalls_4_021
	BYTE		EOT     As1 
	BYTE	W01
// 150   ----------------------------------------
	BYTE	PATT
	 POIN2	duskfalls_4_072
// 151   ----------------------------------------
	BYTE	PATT
	 POIN2	duskfalls_4_021
	BYTE		EOT     As1 
	BYTE	W01
// 152   ----------------------------------------
	BYTE	PATT
	 POIN2	duskfalls_4_074
// 153   ----------------------------------------
	BYTE	W96
	BYTE	W48
// 154   ----------------------------------------
	BYTE	W96
	BYTE	W48
// 155   ----------------------------------------
	BYTE	PATT
	 POIN2	duskfalls_4_021
	BYTE		EOT     As1 
	BYTE	FINE

//**************** Track 5 (Midi-Chn.5) ****************//

duskfalls_5:
	BYTE	KEYSH   duskfalls_key+0
// 000   ----------------------------------------
	BYTE		VOICE   75
	BYTE		VOL     98*duskfalls_mvl/mxv
	BYTE		PAN     c_v+0
	BYTE	W96
	BYTE	W48
// 001   ----------------------------------------
	BYTE	W96
	BYTE	W48
// 002   ----------------------------------------
	BYTE	W96
	BYTE	W48
// 003   ----------------------------------------
	BYTE	W96
	BYTE	W48
duskfalls_5_B1:
// 004   ----------------------------------------
	BYTE	W96
	BYTE	W48
// 005   ----------------------------------------
	BYTE	W96
	BYTE	W48
// 006   ----------------------------------------
	BYTE	W96
	BYTE	W48
// 007   ----------------------------------------
	BYTE	W96
	BYTE	W48
// 008   ----------------------------------------
	BYTE	W96
	BYTE	W48
// 009   ----------------------------------------
	BYTE	W96
	BYTE	W48
// 010   ----------------------------------------
	BYTE	W96
	BYTE	W48
// 011   ----------------------------------------
	BYTE	W96
	BYTE	W48
// 012   ----------------------------------------
	BYTE	W96
	BYTE	W48
// 013   ----------------------------------------
	BYTE	W96
	BYTE	W48
// 014   ----------------------------------------
	BYTE	W96
	BYTE	W48
// 015   ----------------------------------------
	BYTE	W96
	BYTE	W48
// 016   ----------------------------------------
	BYTE	W96
	BYTE	W48
// 017   ----------------------------------------
	BYTE	W96
	BYTE	W48
// 018   ----------------------------------------
	BYTE	W96
	BYTE	W48
// 019   ----------------------------------------
	BYTE	W96
	BYTE	W48
// 020   ----------------------------------------
	BYTE	W96
	BYTE	W48
// 021   ----------------------------------------
	BYTE	W96
	BYTE	W48
// 022   ----------------------------------------
	BYTE	W96
	BYTE	W48
// 023   ----------------------------------------
	BYTE	W96
	BYTE	W48
// 024   ----------------------------------------
	BYTE	W96
	BYTE	W48
// 025   ----------------------------------------
	BYTE	W96
	BYTE	W48
// 026   ----------------------------------------
	BYTE	W96
	BYTE	W48
// 027   ----------------------------------------
duskfalls_5_027:
	BYTE	W96
	BYTE	W12
	BYTE		N11     As2   v096
	BYTE	W12
	BYTE		        Bn2 
	BYTE	W12
	BYTE		        Cs3 
	BYTE	W12
	BYTE	PEND
// 028   ----------------------------------------
duskfalls_5_028:
	BYTE		N44     Ds3   v096
	BYTE	W48
	BYTE		N11     Fn3 
	BYTE	W12
	BYTE		        Fs3 
	BYTE	W12
	BYTE		        Gs3 
	BYTE	W12
	BYTE		        Fs3 
	BYTE	W12
	BYTE		        Fn3 
	BYTE	W12
	BYTE		TIE     Ds3 
	BYTE	W36
	BYTE	PEND
// 029   ----------------------------------------
	BYTE	W96
	BYTE	W11
	BYTE		EOT   
	BYTE	W01
	BYTE		N32     As2 
	BYTE	W36
// 030   ----------------------------------------
	BYTE	PATT
	 POIN2	duskfalls_5_028
// 031   ----------------------------------------
	BYTE	W96
	BYTE	W11
	BYTE		EOT     Ds3 
	BYTE	W01
	BYTE		N11     As2   v096
	BYTE	W12
	BYTE		        Bn2 
	BYTE	W12
	BYTE		        Cs3 
	BYTE	W12
// 032   ----------------------------------------
duskfalls_5_032:
	BYTE		N32     Ds3   v096
	BYTE	W36
	BYTE		N11   
	BYTE	W12
	BYTE		        En3 
	BYTE	W12
	BYTE		        Fs3 
	BYTE	W12
	BYTE		        Gs3 
	BYTE	W12
	BYTE		        Fs3 
	BYTE	W12
	BYTE		        Fn3 
	BYTE	W12
	BYTE		N68     Ds3 
	BYTE	W36
	BYTE	PEND
// 033   ----------------------------------------
duskfalls_5_033:
	BYTE	W36
	BYTE		N68     Ds3   v096
	BYTE	W72
	BYTE		N11     Dn3 
	BYTE	W12
	BYTE		        Ds3 
	BYTE	W12
	BYTE		        Fn3 
	BYTE	W12
	BYTE	PEND
// 034   ----------------------------------------
duskfalls_5_034:
	BYTE		N23     Fs3   v096
	BYTE	W24
	BYTE		N11     Bn2 
	BYTE	W12
	BYTE		N23     Fs3 
	BYTE	W24
	BYTE		N05     Fn3 
	BYTE	W06
	BYTE		        Fs3 
	BYTE	W06
	BYTE		N11     Fn3 
	BYTE	W12
	BYTE		        Ds3 
	BYTE	W12
	BYTE		        Cs3 
	BYTE	W12
	BYTE		N05     Ds3 
	BYTE	W06
	BYTE		        Fn3 
	BYTE	W06
	BYTE		TIE     Ds3 
	BYTE	W24
	BYTE	PEND
// 035   ----------------------------------------
duskfalls_5_035:
	BYTE	W96
	BYTE	W44
	BYTE	W03
	BYTE	PEND
	BYTE		EOT     Ds3 
	BYTE	W01
// 036   ----------------------------------------
	BYTE	W96
	BYTE	W48
// 037   ----------------------------------------
	BYTE	W96
	BYTE	W48
// 038   ----------------------------------------
	BYTE	W96
	BYTE	W48
// 039   ----------------------------------------
	BYTE	W96
	BYTE	W48
// 040   ----------------------------------------
	BYTE	W96
	BYTE	W48
// 041   ----------------------------------------
	BYTE	W96
	BYTE	W48
// 042   ----------------------------------------
	BYTE	W96
	BYTE	W48
// 043   ----------------------------------------
	BYTE	W96
	BYTE	W48
// 044   ----------------------------------------
	BYTE	W96
	BYTE	W48
// 045   ----------------------------------------
	BYTE	W96
	BYTE	W48
// 046   ----------------------------------------
	BYTE	W96
	BYTE	W48
// 047   ----------------------------------------
	BYTE	W96
	BYTE	W48
// 048   ----------------------------------------
	BYTE	W96
	BYTE	W48
// 049   ----------------------------------------
	BYTE	W96
	BYTE	W48
// 050   ----------------------------------------
	BYTE	W96
	BYTE	W48
// 051   ----------------------------------------
	BYTE	W96
	BYTE	W48
// 052   ----------------------------------------
	BYTE	W96
	BYTE	W48
// 053   ----------------------------------------
	BYTE	W96
	BYTE	W48
// 054   ----------------------------------------
duskfalls_5_054:
	BYTE		N68     Cn4   v096
	BYTE	W72
	BYTE		TIE     Fn3 
	BYTE	W72
	BYTE	PEND
// 055   ----------------------------------------
	BYTE	W32
	BYTE	W03
	BYTE		EOT   
	BYTE	W01
	BYTE		N32     Gn3 
	BYTE	W36
	BYTE		        Gs3 
	BYTE	W36
	BYTE		        As3 
	BYTE	W36
// 056   ----------------------------------------
duskfalls_5_056:
	BYTE		N68     Cn4   v096
	BYTE	W72
	BYTE		N92     Fn4 
	BYTE	W72
	BYTE	PEND
// 057   ----------------------------------------
duskfalls_5_057:
	BYTE	W24
	BYTE		N23     Ds4   v096
	BYTE	W24
	BYTE		        Cs4 
	BYTE	W24
	BYTE		        Cn4 
	BYTE	W24
	BYTE		        As3 
	BYTE	W24
	BYTE		        Cs4 
	BYTE	W24
	BYTE	PEND
// 058   ----------------------------------------
	BYTE	PATT
	 POIN2	duskfalls_5_054
// 059   ----------------------------------------
	BYTE	W32
	BYTE	W03
	BYTE		EOT     Fn3 
	BYTE	W01
	BYTE		N32     Gn3   v096
	BYTE	W36
	BYTE		        Gs3 
	BYTE	W36
	BYTE		        As3 
	BYTE	W36
// 060   ----------------------------------------
duskfalls_5_060:
	BYTE		N23     Cn4   v096
	BYTE	W24
	BYTE		N11     As3 
	BYTE	W12
	BYTE		N92     Cn4 
	BYTE	W96
	BYTE		N11     Fn4 
	BYTE	W12
	BYTE	PEND
// 061   ----------------------------------------
duskfalls_5_061:
	BYTE		TIE     Cn4   v096
	BYTE	W96
	BYTE	W44
	BYTE	W03
	BYTE	PEND
	BYTE		EOT   
	BYTE	W01
// 062   ----------------------------------------
duskfalls_5_062:
	BYTE		N92     Fn3   v096
	BYTE	W96
	BYTE		N23     Gn3 
	BYTE	W24
	BYTE		        Gs3 
	BYTE	W24
	BYTE	PEND
// 063   ----------------------------------------
	BYTE	PATT
	 POIN2	duskfalls_5_062
// 064   ----------------------------------------
duskfalls_5_064:
	BYTE		N44     As3   v096
	BYTE	W48
	BYTE		N11     Gs3 
	BYTE	W12
	BYTE		        Gn3 
	BYTE	W12
	BYTE		TIE     Fn3 
	BYTE	W72
	BYTE	PEND
// 065   ----------------------------------------
	BYTE	W44
	BYTE	W03
	BYTE		EOT   
	BYTE	W01
	BYTE		N11     Gn3 
	BYTE	W12
	BYTE		        Fn3 
	BYTE	W12
	BYTE		N68     En3 
	BYTE	W72
// 066   ----------------------------------------
	BYTE	PATT
	 POIN2	duskfalls_5_062
// 067   ----------------------------------------
	BYTE	PATT
	 POIN2	duskfalls_5_062
// 068   ----------------------------------------
duskfalls_5_068:
	BYTE		N56     As3   v096
	BYTE	W60
	BYTE		N11     Cn4 
	BYTE	W12
	BYTE		TIE     Fn3 
	BYTE	W72
	BYTE	PEND
// 069   ----------------------------------------
	BYTE	W44
	BYTE	W03
	BYTE		EOT   
	BYTE	W01
	BYTE		N11     Gn3 
	BYTE	W12
	BYTE		        Fn3 
	BYTE	W12
	BYTE		N68     En3 
	BYTE	W72
// 070   ----------------------------------------
duskfalls_5_070:
	BYTE		TIE     Fn2   v096
	BYTE	W96
	BYTE	W48
	BYTE	PEND
// 071   ----------------------------------------
duskfalls_5_071:
	BYTE	W96
	BYTE	W32
	BYTE	W03
	BYTE	PEND
	BYTE		EOT     Fn2 
	BYTE	W01
	BYTE		N11     Cn3   v096
	BYTE	W12
// 072   ----------------------------------------
duskfalls_5_072:
	BYTE		TIE     Fn3   v080
	BYTE	W96
	BYTE	W48
	BYTE	PEND
// 073   ----------------------------------------
	BYTE	W96
	BYTE	W23
	BYTE		EOT   
	BYTE	W01
	BYTE		N11     Gs3 
	BYTE	W12
	BYTE		        Gn3 
	BYTE	W12
// 074   ----------------------------------------
duskfalls_5_074:
	BYTE		TIE     Fn3   v064
	BYTE	W96
	BYTE	W48
	BYTE	PEND
// 075   ----------------------------------------
	BYTE	W96
	BYTE	W48
// 076   ----------------------------------------
	BYTE	W96
	BYTE	W48
// 077   ----------------------------------------
	BYTE	PATT
	 POIN2	duskfalls_5_035
	BYTE		EOT     Fn3 
	BYTE	W01
// 078   ----------------------------------------
	BYTE	W96
	BYTE	W48
// 079   ----------------------------------------
	BYTE	W96
	BYTE	W48
// 080   ----------------------------------------
	BYTE	W96
	BYTE	W48
// 081   ----------------------------------------
	BYTE	W96
	BYTE	W48
// 082   ----------------------------------------
	BYTE	W96
	BYTE	W48
// 083   ----------------------------------------
	BYTE	W96
	BYTE	W48
// 084   ----------------------------------------
	BYTE	W96
	BYTE	W48
// 085   ----------------------------------------
	BYTE	W96
	BYTE	W48
// 086   ----------------------------------------
	BYTE	W96
	BYTE	W48
// 087   ----------------------------------------
	BYTE	W96
	BYTE	W48
// 088   ----------------------------------------
	BYTE	W96
	BYTE	W48
// 089   ----------------------------------------
	BYTE	W96
	BYTE	W48
// 090   ----------------------------------------
	BYTE	W96
	BYTE	W48
// 091   ----------------------------------------
	BYTE	W96
	BYTE	W48
// 092   ----------------------------------------
	BYTE	W96
	BYTE	W48
// 093   ----------------------------------------
	BYTE	W96
	BYTE	W48
// 094   ----------------------------------------
	BYTE	W96
	BYTE	W48
// 095   ----------------------------------------
	BYTE	W96
	BYTE	W48
// 096   ----------------------------------------
	BYTE	W96
	BYTE	W48
// 097   ----------------------------------------
	BYTE	W96
	BYTE	W48
// 098   ----------------------------------------
	BYTE	W96
	BYTE	W48
// 099   ----------------------------------------
	BYTE	W96
	BYTE	W48
// 100   ----------------------------------------
	BYTE	W96
	BYTE	W48
// 101   ----------------------------------------
	BYTE	W96
	BYTE	W48
// 102   ----------------------------------------
	BYTE	W96
	BYTE	W48
// 103   ----------------------------------------
	BYTE	W96
	BYTE	W48
// 104   ----------------------------------------
	BYTE	W96
	BYTE	W48
// 105   ----------------------------------------
	BYTE	PATT
	 POIN2	duskfalls_5_027
// 106   ----------------------------------------
	BYTE	PATT
	 POIN2	duskfalls_5_028
// 107   ----------------------------------------
	BYTE	W96
	BYTE	W11
	BYTE		EOT     Ds3 
	BYTE	W01
	BYTE		N32     As2   v096
	BYTE	W36
// 108   ----------------------------------------
	BYTE	PATT
	 POIN2	duskfalls_5_028
// 109   ----------------------------------------
	BYTE	W96
	BYTE	W11
	BYTE		EOT     Ds3 
	BYTE	W01
	BYTE		N11     As2   v096
	BYTE	W12
	BYTE		        Bn2 
	BYTE	W12
	BYTE		        Cs3 
	BYTE	W12
// 110   ----------------------------------------
	BYTE	PATT
	 POIN2	duskfalls_5_032
// 111   ----------------------------------------
	BYTE	PATT
	 POIN2	duskfalls_5_033
// 112   ----------------------------------------
	BYTE	PATT
	 POIN2	duskfalls_5_034
// 113   ----------------------------------------
	BYTE	PATT
	 POIN2	duskfalls_5_035
	BYTE		EOT     Ds3 
	BYTE	W01
// 114   ----------------------------------------
	BYTE	W96
	BYTE	W48
// 115   ----------------------------------------
	BYTE	W96
	BYTE	W48
// 116   ----------------------------------------
	BYTE	W96
	BYTE	W48
// 117   ----------------------------------------
	BYTE	W96
	BYTE	W48
// 118   ----------------------------------------
	BYTE	W96
	BYTE	W48
// 119   ----------------------------------------
	BYTE	W96
	BYTE	W48
// 120   ----------------------------------------
	BYTE	W96
	BYTE	W48
// 121   ----------------------------------------
	BYTE	W96
	BYTE	W48
// 122   ----------------------------------------
	BYTE	W96
	BYTE	W48
// 123   ----------------------------------------
	BYTE	W96
	BYTE	W48
// 124   ----------------------------------------
	BYTE	W96
	BYTE	W48
// 125   ----------------------------------------
	BYTE	W96
	BYTE	W48
// 126   ----------------------------------------
	BYTE	W96
	BYTE	W48
// 127   ----------------------------------------
	BYTE	W96
	BYTE	W48
// 128   ----------------------------------------
	BYTE	W96
	BYTE	W48
// 129   ----------------------------------------
	BYTE	W96
	BYTE	W48
// 130   ----------------------------------------
	BYTE	W96
	BYTE	W48
// 131   ----------------------------------------
	BYTE	W96
	BYTE	W48
// 132   ----------------------------------------
	BYTE	PATT
	 POIN2	duskfalls_5_054
// 133   ----------------------------------------
	BYTE	W32
	BYTE	W03
	BYTE		EOT     Fn3 
	BYTE	W01
	BYTE		N32     Gn3   v096
	BYTE	W36
	BYTE		        Gs3 
	BYTE	W36
	BYTE		        As3 
	BYTE	W36
// 134   ----------------------------------------
	BYTE	PATT
	 POIN2	duskfalls_5_056
// 135   ----------------------------------------
	BYTE	PATT
	 POIN2	duskfalls_5_057
// 136   ----------------------------------------
	BYTE	PATT
	 POIN2	duskfalls_5_054
// 137   ----------------------------------------
	BYTE	W32
	BYTE	W03
	BYTE		EOT     Fn3 
	BYTE	W01
	BYTE		N32     Gn3   v096
	BYTE	W36
	BYTE		        Gs3 
	BYTE	W36
	BYTE		        As3 
	BYTE	W36
// 138   ----------------------------------------
	BYTE	PATT
	 POIN2	duskfalls_5_060
// 139   ----------------------------------------
	BYTE	PATT
	 POIN2	duskfalls_5_061
	BYTE		EOT     Cn4 
	BYTE	W01
// 140   ----------------------------------------
	BYTE	PATT
	 POIN2	duskfalls_5_062
// 141   ----------------------------------------
	BYTE	PATT
	 POIN2	duskfalls_5_062
// 142   ----------------------------------------
	BYTE	PATT
	 POIN2	duskfalls_5_064
// 143   ----------------------------------------
	BYTE	W44
	BYTE	W03
	BYTE		EOT     Fn3 
	BYTE	W01
	BYTE		N11     Gn3   v096
	BYTE	W12
	BYTE		        Fn3 
	BYTE	W12
	BYTE		N68     En3 
	BYTE	W72
// 144   ----------------------------------------
	BYTE	PATT
	 POIN2	duskfalls_5_062
// 145   ----------------------------------------
	BYTE	PATT
	 POIN2	duskfalls_5_062
// 146   ----------------------------------------
	BYTE	PATT
	 POIN2	duskfalls_5_068
// 147   ----------------------------------------
	BYTE	W44
	BYTE	W03
	BYTE		EOT     Fn3 
	BYTE	W01
	BYTE		N11     Gn3   v096
	BYTE	W12
	BYTE		        Fn3 
	BYTE	W12
	BYTE		N68     En3 
	BYTE	W72
	BYTE	GoTo
	 POIN2	duskfalls_5_B1
duskfalls_5_B2:
// 148   ----------------------------------------
	BYTE	PATT
	 POIN2	duskfalls_5_070
// 149   ----------------------------------------
	BYTE	PATT
	 POIN2	duskfalls_5_071
	BYTE		EOT     Fn2 
	BYTE	W01
	BYTE		N11     Cn3   v096
	BYTE	W12
// 150   ----------------------------------------
	BYTE	PATT
	 POIN2	duskfalls_5_072
// 151   ----------------------------------------
	BYTE	W96
	BYTE	W23
	BYTE		EOT     Fn3 
	BYTE	W01
	BYTE		N11     Gs3   v080
	BYTE	W12
	BYTE		        Gn3 
	BYTE	W12
// 152   ----------------------------------------
	BYTE	PATT
	 POIN2	duskfalls_5_074
// 153   ----------------------------------------
	BYTE	W96
	BYTE	W48
// 154   ----------------------------------------
	BYTE	W96
	BYTE	W48
// 155   ----------------------------------------
	BYTE	PATT
	 POIN2	duskfalls_5_035
	BYTE		EOT     Fn3 
	BYTE	FINE

//**************** Track 6 (Midi-Chn.6) ****************//

duskfalls_6:
	BYTE	KEYSH   duskfalls_key+0
// 000   ----------------------------------------
	BYTE		VOICE   75
	BYTE		VOL     100*duskfalls_mvl/mxv
	BYTE		PAN     c_v+0
	BYTE	W96
	BYTE	W48
// 001   ----------------------------------------
	BYTE	W96
	BYTE	W48
// 002   ----------------------------------------
	BYTE	W96
	BYTE	W48
// 003   ----------------------------------------
	BYTE	W96
	BYTE	W48
duskfalls_6_B1:
// 004   ----------------------------------------
	BYTE	W96
	BYTE	W48
// 005   ----------------------------------------
	BYTE	W96
	BYTE	W48
// 006   ----------------------------------------
	BYTE	W96
	BYTE	W48
// 007   ----------------------------------------
	BYTE	W96
	BYTE	W48
// 008   ----------------------------------------
	BYTE	W96
	BYTE	W48
// 009   ----------------------------------------
	BYTE	W96
	BYTE	W48
// 010   ----------------------------------------
	BYTE	W96
	BYTE	W48
// 011   ----------------------------------------
	BYTE	W96
	BYTE	W48
// 012   ----------------------------------------
	BYTE	W96
	BYTE	W48
// 013   ----------------------------------------
	BYTE	W96
	BYTE	W48
// 014   ----------------------------------------
	BYTE	W96
	BYTE	W48
// 015   ----------------------------------------
	BYTE	W96
	BYTE	W48
// 016   ----------------------------------------
	BYTE	W96
	BYTE	W48
// 017   ----------------------------------------
	BYTE	W96
	BYTE	W48
// 018   ----------------------------------------
	BYTE	W96
	BYTE	W48
// 019   ----------------------------------------
	BYTE	W96
	BYTE	W48
// 020   ----------------------------------------
	BYTE	W96
	BYTE	W48
// 021   ----------------------------------------
	BYTE	W96
	BYTE	W48
// 022   ----------------------------------------
	BYTE	W96
	BYTE	W48
// 023   ----------------------------------------
	BYTE	W96
	BYTE	W48
// 024   ----------------------------------------
	BYTE	W96
	BYTE	W48
// 025   ----------------------------------------
	BYTE	W96
	BYTE	W48
// 026   ----------------------------------------
	BYTE	W96
	BYTE	W48
// 027   ----------------------------------------
	BYTE	W96
	BYTE	W48
// 028   ----------------------------------------
	BYTE	W96
	BYTE	W48
// 029   ----------------------------------------
	BYTE	W96
	BYTE	W48
// 030   ----------------------------------------
	BYTE	W96
	BYTE	W48
// 031   ----------------------------------------
	BYTE	W96
	BYTE	W48
// 032   ----------------------------------------
	BYTE	W96
	BYTE	W48
// 033   ----------------------------------------
	BYTE	W96
	BYTE	W48
// 034   ----------------------------------------
	BYTE	W96
	BYTE	W48
// 035   ----------------------------------------
	BYTE	W96
	BYTE	W48
// 036   ----------------------------------------
duskfalls_6_036:
	BYTE		TIE     Fs2   v052
	BYTE	W96
	BYTE	W44
	BYTE	W03
	BYTE	PEND
	BYTE		EOT   
	BYTE	W01
// 037   ----------------------------------------
duskfalls_6_037:
	BYTE		TIE     Gs2   v052
	BYTE	W96
	BYTE	W44
	BYTE	W03
	BYTE	PEND
	BYTE		EOT   
	BYTE	W01
// 038   ----------------------------------------
	BYTE	PATT
	 POIN2	duskfalls_6_036
	BYTE		EOT     Fs2 
	BYTE	W01
// 039   ----------------------------------------
	BYTE	PATT
	 POIN2	duskfalls_6_037
	BYTE		EOT     Gs2 
	BYTE	W01
// 040   ----------------------------------------
	BYTE	PATT
	 POIN2	duskfalls_6_036
	BYTE		EOT     Fs2 
	BYTE	W01
// 041   ----------------------------------------
	BYTE	PATT
	 POIN2	duskfalls_6_037
	BYTE		EOT     Gs2 
	BYTE	W01
// 042   ----------------------------------------
duskfalls_6_042:
	BYTE		TIE     Bn1   v052
	BYTE	W96
	BYTE	W44
	BYTE	W03
	BYTE	PEND
	BYTE		EOT   
	BYTE	W01
// 043   ----------------------------------------
duskfalls_6_043:
	BYTE		TIE     Cs2   v052
	BYTE	W96
	BYTE	W44
	BYTE	W03
	BYTE	PEND
	BYTE		EOT   
	BYTE	W01
// 044   ----------------------------------------
duskfalls_6_044:
	BYTE		TIE     Fs2   v064
	BYTE	W96
	BYTE	W44
	BYTE	W03
	BYTE	PEND
	BYTE		EOT   
	BYTE	W01
// 045   ----------------------------------------
duskfalls_6_045:
	BYTE		TIE     Gs2   v064
	BYTE	W96
	BYTE	W44
	BYTE	W03
	BYTE	PEND
	BYTE		EOT   
	BYTE	W01
// 046   ----------------------------------------
	BYTE	PATT
	 POIN2	duskfalls_6_044
	BYTE		EOT     Fs2 
	BYTE	W01
// 047   ----------------------------------------
	BYTE	PATT
	 POIN2	duskfalls_6_045
	BYTE		EOT     Gs2 
	BYTE	W01
// 048   ----------------------------------------
	BYTE	PATT
	 POIN2	duskfalls_6_044
	BYTE		EOT     Fs2 
	BYTE	W01
// 049   ----------------------------------------
	BYTE	PATT
	 POIN2	duskfalls_6_045
	BYTE		EOT     Gs2 
	BYTE	W01
// 050   ----------------------------------------
duskfalls_6_050:
	BYTE		TIE     Ds2   v064
	BYTE	W96
	BYTE	W44
	BYTE	W03
	BYTE	PEND
	BYTE		EOT   
	BYTE	W01
// 051   ----------------------------------------
duskfalls_6_051:
	BYTE		TIE     Fn2   v064
	BYTE	W96
	BYTE	W44
	BYTE	W03
	BYTE	PEND
	BYTE		EOT   
	BYTE	W01
// 052   ----------------------------------------
duskfalls_6_052:
	BYTE		N32     Ds2   v064
	BYTE	W36
	BYTE		N23     Ds2   v072
	BYTE	W36
	BYTE		N32     Ds2   v080
	BYTE	W36
	BYTE		N23     Ds2   v088
	BYTE	W36
	BYTE	PEND
// 053   ----------------------------------------
duskfalls_6_053:
	BYTE		N32     Ds2   v096
	BYTE	W36
	BYTE		N23   
	BYTE	W36
	BYTE		N32   
	BYTE	W36
	BYTE		N23   
	BYTE	W36
	BYTE	PEND
// 054   ----------------------------------------
duskfalls_6_054:
	BYTE		N68     Cn3   v096
	BYTE	W72
	BYTE		TIE     Fn2 
	BYTE	W72
	BYTE	PEND
// 055   ----------------------------------------
	BYTE	W32
	BYTE	W03
	BYTE		EOT   
	BYTE	W01
	BYTE		N32     Gn2 
	BYTE	W36
	BYTE		        Gs2 
	BYTE	W36
	BYTE		        As2 
	BYTE	W36
// 056   ----------------------------------------
duskfalls_6_056:
	BYTE		N68     Cn3   v096
	BYTE	W72
	BYTE		N92     Fn3 
	BYTE	W72
	BYTE	PEND
// 057   ----------------------------------------
duskfalls_6_057:
	BYTE	W24
	BYTE		N23     Ds3   v096
	BYTE	W24
	BYTE		        Cs3 
	BYTE	W24
	BYTE		        Cn3 
	BYTE	W24
	BYTE		        As2 
	BYTE	W24
	BYTE		        Cs3 
	BYTE	W24
	BYTE	PEND
// 058   ----------------------------------------
	BYTE	PATT
	 POIN2	duskfalls_6_054
// 059   ----------------------------------------
	BYTE	W32
	BYTE	W03
	BYTE		EOT     Fn2 
	BYTE	W01
	BYTE		N32     Gn2   v096
	BYTE	W36
	BYTE		        Gs2 
	BYTE	W36
	BYTE		        As2 
	BYTE	W36
// 060   ----------------------------------------
duskfalls_6_060:
	BYTE		N23     Cn3   v096
	BYTE	W24
	BYTE		N11     As2 
	BYTE	W12
	BYTE		N92     Cn3 
	BYTE	W96
	BYTE		N11     Fn3 
	BYTE	W12
	BYTE	PEND
// 061   ----------------------------------------
duskfalls_6_061:
	BYTE		TIE     Cn3   v096
	BYTE	W96
	BYTE	W44
	BYTE	W03
	BYTE	PEND
	BYTE		EOT   
	BYTE	W01
// 062   ----------------------------------------
duskfalls_6_062:
	BYTE		N92     Fn2   v096
	BYTE	W96
	BYTE		N23     Gn2 
	BYTE	W24
	BYTE		        Gs2 
	BYTE	W24
	BYTE	PEND
// 063   ----------------------------------------
	BYTE	PATT
	 POIN2	duskfalls_6_062
// 064   ----------------------------------------
duskfalls_6_064:
	BYTE		N44     As2   v096
	BYTE	W48
	BYTE		N11     Gs2 
	BYTE	W12
	BYTE		        Gn2 
	BYTE	W12
	BYTE		TIE     Fn2 
	BYTE	W72
	BYTE	PEND
// 065   ----------------------------------------
	BYTE	W44
	BYTE	W03
	BYTE		EOT   
	BYTE	W01
	BYTE		N11     Gn2 
	BYTE	W12
	BYTE		        Fn2 
	BYTE	W12
	BYTE		N68     En2 
	BYTE	W72
// 066   ----------------------------------------
	BYTE	PATT
	 POIN2	duskfalls_6_062
// 067   ----------------------------------------
	BYTE	PATT
	 POIN2	duskfalls_6_062
// 068   ----------------------------------------
duskfalls_6_068:
	BYTE		N56     As2   v096
	BYTE	W60
	BYTE		N11     Cn3 
	BYTE	W12
	BYTE		TIE     Fn2 
	BYTE	W72
	BYTE	PEND
// 069   ----------------------------------------
	BYTE	W44
	BYTE	W03
	BYTE		EOT   
	BYTE	W01
	BYTE		N11     Gn2 
	BYTE	W12
	BYTE		        Fn2 
	BYTE	W12
	BYTE		N68     En2 
	BYTE	W72
// 070   ----------------------------------------
duskfalls_6_070:
	BYTE		TIE     Fn2   v096
	BYTE	W96
	BYTE	W48
	BYTE	PEND
// 071   ----------------------------------------
duskfalls_6_071:
	BYTE	W96
	BYTE	W32
	BYTE	W03
	BYTE	PEND
	BYTE		EOT     Fn2 
	BYTE	W01
	BYTE		N11     Cn2   v096
	BYTE	W12
// 072   ----------------------------------------
duskfalls_6_072:
	BYTE		TIE     Fn2   v080
	BYTE	W96
	BYTE	W48
	BYTE	PEND
// 073   ----------------------------------------
	BYTE	W96
	BYTE	W23
	BYTE		EOT   
	BYTE	W01
	BYTE		N11     Gs2 
	BYTE	W12
	BYTE		        Gn2 
	BYTE	W12
// 074   ----------------------------------------
duskfalls_6_074:
	BYTE		TIE     Fn2   v064
	BYTE	W96
	BYTE	W48
	BYTE	PEND
// 075   ----------------------------------------
	BYTE	W96
	BYTE	W48
// 076   ----------------------------------------
	BYTE	W96
	BYTE	W48
// 077   ----------------------------------------
duskfalls_6_077:
	BYTE	W96
	BYTE	W44
	BYTE	W03
	BYTE	PEND
	BYTE		EOT     Fn2 
	BYTE	W01
// 078   ----------------------------------------
	BYTE	W96
	BYTE	W48
// 079   ----------------------------------------
	BYTE	W96
	BYTE	W48
// 080   ----------------------------------------
	BYTE	W96
	BYTE	W48
// 081   ----------------------------------------
	BYTE	W96
	BYTE	W48
// 082   ----------------------------------------
	BYTE	W96
	BYTE	W48
// 083   ----------------------------------------
	BYTE	W96
	BYTE	W48
// 084   ----------------------------------------
	BYTE	W96
	BYTE	W48
// 085   ----------------------------------------
	BYTE	W96
	BYTE	W48
// 086   ----------------------------------------
	BYTE	W96
	BYTE	W48
// 087   ----------------------------------------
	BYTE	W96
	BYTE	W48
// 088   ----------------------------------------
	BYTE	W96
	BYTE	W48
// 089   ----------------------------------------
	BYTE	W96
	BYTE	W48
// 090   ----------------------------------------
	BYTE	W96
	BYTE	W48
// 091   ----------------------------------------
	BYTE	W96
	BYTE	W48
// 092   ----------------------------------------
	BYTE	W96
	BYTE	W48
// 093   ----------------------------------------
	BYTE	W96
	BYTE	W48
// 094   ----------------------------------------
	BYTE	W96
	BYTE	W48
// 095   ----------------------------------------
	BYTE	W96
	BYTE	W48
// 096   ----------------------------------------
	BYTE	W96
	BYTE	W48
// 097   ----------------------------------------
	BYTE	W96
	BYTE	W48
// 098   ----------------------------------------
	BYTE	W96
	BYTE	W48
// 099   ----------------------------------------
	BYTE	W96
	BYTE	W48
// 100   ----------------------------------------
	BYTE	W96
	BYTE	W48
// 101   ----------------------------------------
	BYTE	W96
	BYTE	W48
// 102   ----------------------------------------
	BYTE	W96
	BYTE	W48
// 103   ----------------------------------------
	BYTE	W96
	BYTE	W48
// 104   ----------------------------------------
	BYTE	W96
	BYTE	W48
// 105   ----------------------------------------
	BYTE	W96
	BYTE	W48
// 106   ----------------------------------------
	BYTE	W96
	BYTE	W48
// 107   ----------------------------------------
	BYTE	W96
	BYTE	W48
// 108   ----------------------------------------
	BYTE	W96
	BYTE	W48
// 109   ----------------------------------------
	BYTE	W96
	BYTE	W48
// 110   ----------------------------------------
	BYTE	W96
	BYTE	W48
// 111   ----------------------------------------
	BYTE	W96
	BYTE	W48
// 112   ----------------------------------------
	BYTE	W96
	BYTE	W48
// 113   ----------------------------------------
	BYTE	W96
	BYTE	W48
// 114   ----------------------------------------
	BYTE	PATT
	 POIN2	duskfalls_6_036
	BYTE		EOT     Fs2 
	BYTE	W01
// 115   ----------------------------------------
	BYTE	PATT
	 POIN2	duskfalls_6_037
	BYTE		EOT     Gs2 
	BYTE	W01
// 116   ----------------------------------------
	BYTE	PATT
	 POIN2	duskfalls_6_036
	BYTE		EOT     Fs2 
	BYTE	W01
// 117   ----------------------------------------
	BYTE	PATT
	 POIN2	duskfalls_6_037
	BYTE		EOT     Gs2 
	BYTE	W01
// 118   ----------------------------------------
	BYTE	PATT
	 POIN2	duskfalls_6_036
	BYTE		EOT     Fs2 
	BYTE	W01
// 119   ----------------------------------------
	BYTE	PATT
	 POIN2	duskfalls_6_037
	BYTE		EOT     Gs2 
	BYTE	W01
// 120   ----------------------------------------
	BYTE	PATT
	 POIN2	duskfalls_6_042
	BYTE		EOT     Bn1 
	BYTE	W01
// 121   ----------------------------------------
	BYTE	PATT
	 POIN2	duskfalls_6_043
	BYTE		EOT     Cs2 
	BYTE	W01
// 122   ----------------------------------------
	BYTE	PATT
	 POIN2	duskfalls_6_044
	BYTE		EOT     Fs2 
	BYTE	W01
// 123   ----------------------------------------
	BYTE	PATT
	 POIN2	duskfalls_6_045
	BYTE		EOT     Gs2 
	BYTE	W01
// 124   ----------------------------------------
	BYTE	PATT
	 POIN2	duskfalls_6_044
	BYTE		EOT     Fs2 
	BYTE	W01
// 125   ----------------------------------------
	BYTE	PATT
	 POIN2	duskfalls_6_045
	BYTE		EOT     Gs2 
	BYTE	W01
// 126   ----------------------------------------
	BYTE	PATT
	 POIN2	duskfalls_6_044
	BYTE		EOT     Fs2 
	BYTE	W01
// 127   ----------------------------------------
	BYTE	PATT
	 POIN2	duskfalls_6_045
	BYTE		EOT     Gs2 
	BYTE	W01
// 128   ----------------------------------------
	BYTE	PATT
	 POIN2	duskfalls_6_050
	BYTE		EOT     Ds2 
	BYTE	W01
// 129   ----------------------------------------
	BYTE	PATT
	 POIN2	duskfalls_6_051
	BYTE		EOT     Fn2 
	BYTE	W01
// 130   ----------------------------------------
	BYTE	PATT
	 POIN2	duskfalls_6_052
// 131   ----------------------------------------
	BYTE	PATT
	 POIN2	duskfalls_6_053
// 132   ----------------------------------------
	BYTE	PATT
	 POIN2	duskfalls_6_054
// 133   ----------------------------------------
	BYTE	W32
	BYTE	W03
	BYTE		EOT     Fn2 
	BYTE	W01
	BYTE		N32     Gn2   v096
	BYTE	W36
	BYTE		        Gs2 
	BYTE	W36
	BYTE		        As2 
	BYTE	W36
// 134   ----------------------------------------
	BYTE	PATT
	 POIN2	duskfalls_6_056
// 135   ----------------------------------------
	BYTE	PATT
	 POIN2	duskfalls_6_057
// 136   ----------------------------------------
	BYTE	PATT
	 POIN2	duskfalls_6_054
// 137   ----------------------------------------
	BYTE	W32
	BYTE	W03
	BYTE		EOT     Fn2 
	BYTE	W01
	BYTE		N32     Gn2   v096
	BYTE	W36
	BYTE		        Gs2 
	BYTE	W36
	BYTE		        As2 
	BYTE	W36
// 138   ----------------------------------------
	BYTE	PATT
	 POIN2	duskfalls_6_060
// 139   ----------------------------------------
	BYTE	PATT
	 POIN2	duskfalls_6_061
	BYTE		EOT     Cn3 
	BYTE	W01
// 140   ----------------------------------------
	BYTE	PATT
	 POIN2	duskfalls_6_062
// 141   ----------------------------------------
	BYTE	PATT
	 POIN2	duskfalls_6_062
// 142   ----------------------------------------
	BYTE	PATT
	 POIN2	duskfalls_6_064
// 143   ----------------------------------------
	BYTE	W44
	BYTE	W03
	BYTE		EOT     Fn2 
	BYTE	W01
	BYTE		N11     Gn2   v096
	BYTE	W12
	BYTE		        Fn2 
	BYTE	W12
	BYTE		N68     En2 
	BYTE	W72
// 144   ----------------------------------------
	BYTE	PATT
	 POIN2	duskfalls_6_062
// 145   ----------------------------------------
	BYTE	PATT
	 POIN2	duskfalls_6_062
// 146   ----------------------------------------
	BYTE	PATT
	 POIN2	duskfalls_6_068
// 147   ----------------------------------------
	BYTE	W44
	BYTE	W03
	BYTE		EOT     Fn2 
	BYTE	W01
	BYTE		N11     Gn2   v096
	BYTE	W12
	BYTE		        Fn2 
	BYTE	W12
	BYTE		N68     En2 
	BYTE	W72
	BYTE	GoTo
	 POIN2	duskfalls_6_B1
duskfalls_6_B2:
// 148   ----------------------------------------
	BYTE	PATT
	 POIN2	duskfalls_6_070
// 149   ----------------------------------------
	BYTE	PATT
	 POIN2	duskfalls_6_071
	BYTE		EOT     Fn2 
	BYTE	W01
	BYTE		N11     Cn2   v096
	BYTE	W12
// 150   ----------------------------------------
	BYTE	PATT
	 POIN2	duskfalls_6_072
// 151   ----------------------------------------
	BYTE	W96
	BYTE	W23
	BYTE		EOT     Fn2 
	BYTE	W01
	BYTE		N11     Gs2   v080
	BYTE	W12
	BYTE		        Gn2 
	BYTE	W12
// 152   ----------------------------------------
	BYTE	PATT
	 POIN2	duskfalls_6_074
// 153   ----------------------------------------
	BYTE	W96
	BYTE	W48
// 154   ----------------------------------------
	BYTE	W96
	BYTE	W48
// 155   ----------------------------------------
	BYTE	PATT
	 POIN2	duskfalls_6_077
	BYTE		EOT     Fn2 
	BYTE	FINE

//**************** Track 7 (Midi-Chn.7) ****************//

duskfalls_7:
	BYTE	KEYSH   duskfalls_key+0
// 000   ----------------------------------------
	BYTE		VOICE   75
	BYTE		VOL     127*duskfalls_mvl/mxv
	BYTE		PAN     c_v+0
	BYTE	W96
	BYTE	W48
// 001   ----------------------------------------
	BYTE	W96
	BYTE	W48
// 002   ----------------------------------------
	BYTE	W96
	BYTE	W48
// 003   ----------------------------------------
	BYTE	W96
	BYTE	W48
duskfalls_7_B1:
// 004   ----------------------------------------
	BYTE	W96
	BYTE	W48
// 005   ----------------------------------------
	BYTE	W96
	BYTE	W48
// 006   ----------------------------------------
duskfalls_7_006:
	BYTE		N32     Bn1   v096
	BYTE	W36
	BYTE		N23   
	BYTE	W24
	BYTE		N11   
	BYTE	W12
	BYTE		N32     Cs2 
	BYTE	W36
	BYTE		N23   
	BYTE	W24
	BYTE		N11   
	BYTE	W12
	BYTE	PEND
// 007   ----------------------------------------
duskfalls_7_007:
	BYTE		N32     Gs1   v096
	BYTE	W36
	BYTE		N23   
	BYTE	W24
	BYTE		N11   
	BYTE	W12
	BYTE		N32   
	BYTE	W36
	BYTE		N23   
	BYTE	W24
	BYTE		N11   
	BYTE	W12
	BYTE	PEND
// 008   ----------------------------------------
duskfalls_7_008:
	BYTE		N32     Ds2   v096
	BYTE	W36
	BYTE		N23   
	BYTE	W24
	BYTE		N11   
	BYTE	W12
	BYTE		N32   
	BYTE	W36
	BYTE		N23   
	BYTE	W24
	BYTE		N11   
	BYTE	W12
	BYTE	PEND
// 009   ----------------------------------------
duskfalls_7_009:
	BYTE		N32     Ds2   v096
	BYTE	W36
	BYTE		N23   
	BYTE	W24
	BYTE		N11   
	BYTE	W12
	BYTE		N32   
	BYTE	W36
	BYTE		N23     Cs2 
	BYTE	W24
	BYTE		N11   
	BYTE	W12
	BYTE	PEND
// 010   ----------------------------------------
	BYTE	PATT
	 POIN2	duskfalls_7_006
// 011   ----------------------------------------
	BYTE	PATT
	 POIN2	duskfalls_7_007
// 012   ----------------------------------------
duskfalls_7_012:
	BYTE		N68     Bn1   v096
	BYTE	W72
	BYTE		N11     Cs2 
	BYTE	W36
	BYTE		TIE     Gs1 
	BYTE	W36
	BYTE	PEND
// 013   ----------------------------------------
duskfalls_7_013:
	BYTE	W96
	BYTE	W44
	BYTE	W03
	BYTE	PEND
	BYTE		EOT     Gs1 
	BYTE	W01
// 014   ----------------------------------------
duskfalls_7_014:
	BYTE		N68     Bn1   v096
	BYTE	W72
	BYTE		N11     Cs2 
	BYTE	W36
	BYTE		TIE     Cn2 
	BYTE	W36
	BYTE	PEND
// 015   ----------------------------------------
	BYTE	PATT
	 POIN2	duskfalls_7_013
	BYTE		EOT     Cn2 
	BYTE	W01
// 016   ----------------------------------------
duskfalls_7_016:
	BYTE		N68     En1   v096
	BYTE	W72
	BYTE		N11     Fs1 
	BYTE	W36
	BYTE		N68     Fn1 
	BYTE	W36
	BYTE	PEND
// 017   ----------------------------------------
duskfalls_7_017:
	BYTE	W36
	BYTE		N68     As1   v096
	BYTE	W72
	BYTE		N32   
	BYTE	W36
	BYTE	PEND
// 018   ----------------------------------------
duskfalls_7_018:
	BYTE		N68     Bn1   v096
	BYTE	W72
	BYTE		N11     Cs2 
	BYTE	W36
	BYTE		TIE     Ds2 
	BYTE	W36
	BYTE	PEND
// 019   ----------------------------------------
	BYTE	PATT
	 POIN2	duskfalls_7_013
	BYTE		EOT     Ds2 
	BYTE	W01
// 020   ----------------------------------------
duskfalls_7_020:
	BYTE		TIE     Ds2   v080
	BYTE	W96
	BYTE	W48
	BYTE	PEND
// 021   ----------------------------------------
	BYTE	PATT
	 POIN2	duskfalls_7_013
	BYTE		EOT     Ds2 
	BYTE	W01
// 022   ----------------------------------------
duskfalls_7_022:
	BYTE		N68     Bn1   v080
	BYTE	W72
	BYTE		        Cs2 
	BYTE	W72
	BYTE	PEND
// 023   ----------------------------------------
duskfalls_7_023:
	BYTE		TIE     Gs1   v080
	BYTE	W96
	BYTE	W44
	BYTE	W03
	BYTE	PEND
	BYTE		EOT   
	BYTE	W01
// 024   ----------------------------------------
duskfalls_7_024:
	BYTE		N32     Ds2   v080
	BYTE	W36
	BYTE		N23   
	BYTE	W24
	BYTE		N11   
	BYTE	W12
	BYTE		N32   
	BYTE	W36
	BYTE		N23   
	BYTE	W24
	BYTE		N11   
	BYTE	W12
	BYTE	PEND
// 025   ----------------------------------------
duskfalls_7_025:
	BYTE		N32     Ds2   v080
	BYTE	W36
	BYTE		N23   
	BYTE	W24
	BYTE		N11   
	BYTE	W12
	BYTE		N32   
	BYTE	W36
	BYTE		N23     Cs2 
	BYTE	W24
	BYTE		N11   
	BYTE	W12
	BYTE	PEND
// 026   ----------------------------------------
duskfalls_7_026:
	BYTE		N32     Bn1   v080
	BYTE	W36
	BYTE		N23   
	BYTE	W24
	BYTE		N11   
	BYTE	W12
	BYTE		N32     Cs2 
	BYTE	W36
	BYTE		N23   
	BYTE	W24
	BYTE		N11   
	BYTE	W12
	BYTE	PEND
// 027   ----------------------------------------
duskfalls_7_027:
	BYTE		N32     Gs1   v080
	BYTE	W36
	BYTE		N23   
	BYTE	W24
	BYTE		N11   
	BYTE	W12
	BYTE		N32   
	BYTE	W36
	BYTE		N23   
	BYTE	W24
	BYTE		N11   
	BYTE	W12
	BYTE	PEND
// 028   ----------------------------------------
duskfalls_7_028:
	BYTE		N68     Bn1   v080
	BYTE	W72
	BYTE		N11     Cs2 
	BYTE	W36
	BYTE		TIE     Gs1 
	BYTE	W36
	BYTE	PEND
// 029   ----------------------------------------
	BYTE	PATT
	 POIN2	duskfalls_7_013
	BYTE		EOT     Gs1 
	BYTE	W01
// 030   ----------------------------------------
duskfalls_7_030:
	BYTE		N68     Bn1   v080
	BYTE	W72
	BYTE		N11     Cs2 
	BYTE	W36
	BYTE		TIE     Cn2 
	BYTE	W36
	BYTE	PEND
// 031   ----------------------------------------
	BYTE	PATT
	 POIN2	duskfalls_7_013
	BYTE		EOT     Cn2 
	BYTE	W01
// 032   ----------------------------------------
duskfalls_7_032:
	BYTE		N68     En1   v080
	BYTE	W72
	BYTE		N11     Fs1 
	BYTE	W36
	BYTE		N68     Fn1 
	BYTE	W36
	BYTE	PEND
// 033   ----------------------------------------
duskfalls_7_033:
	BYTE	W36
	BYTE		N68     As1   v080
	BYTE	W72
	BYTE		N32   
	BYTE	W36
	BYTE	PEND
// 034   ----------------------------------------
duskfalls_7_034:
	BYTE		N68     Bn1   v080
	BYTE	W72
	BYTE		N11     Cs2 
	BYTE	W36
	BYTE		TIE     Ds2 
	BYTE	W36
	BYTE	PEND
// 035   ----------------------------------------
	BYTE	PATT
	 POIN2	duskfalls_7_013
	BYTE		EOT     Ds2 
	BYTE	W01
// 036   ----------------------------------------
	BYTE	W96
	BYTE	W48
// 037   ----------------------------------------
	BYTE	W96
	BYTE	W48
// 038   ----------------------------------------
	BYTE	W96
	BYTE	W48
// 039   ----------------------------------------
	BYTE	W96
	BYTE	W48
// 040   ----------------------------------------
	BYTE	W96
	BYTE	W48
// 041   ----------------------------------------
	BYTE	W96
	BYTE	W48
// 042   ----------------------------------------
	BYTE	W96
	BYTE	W48
// 043   ----------------------------------------
	BYTE	W96
	BYTE	W48
// 044   ----------------------------------------
duskfalls_7_044:
	BYTE		TIE     Fs1   v080
	BYTE	W96
	BYTE	W44
	BYTE	W03
	BYTE	PEND
	BYTE		EOT   
	BYTE	W01
// 045   ----------------------------------------
	BYTE	PATT
	 POIN2	duskfalls_7_023
	BYTE		EOT     Gs1 
	BYTE	W01
// 046   ----------------------------------------
	BYTE	PATT
	 POIN2	duskfalls_7_044
	BYTE		EOT     Fs1 
	BYTE	W01
// 047   ----------------------------------------
	BYTE	PATT
	 POIN2	duskfalls_7_023
	BYTE		EOT     Gs1 
	BYTE	W01
// 048   ----------------------------------------
	BYTE	PATT
	 POIN2	duskfalls_7_044
	BYTE		EOT     Fs1 
	BYTE	W01
// 049   ----------------------------------------
	BYTE	PATT
	 POIN2	duskfalls_7_023
	BYTE		EOT     Gs1 
	BYTE	W01
// 050   ----------------------------------------
duskfalls_7_050:
	BYTE		TIE     Bn1   v080
	BYTE	W96
	BYTE	W44
	BYTE	W03
	BYTE	PEND
	BYTE		EOT   
	BYTE	W01
// 051   ----------------------------------------
duskfalls_7_051:
	BYTE		TIE     Cs2   v080
	BYTE	W96
	BYTE	W44
	BYTE	W03
	BYTE	PEND
	BYTE		EOT   
	BYTE	W01
// 052   ----------------------------------------
duskfalls_7_052:
	BYTE		N32     Ds1   v080
	BYTE	W36
	BYTE		N23     Ds1   v084
	BYTE	W36
	BYTE		N32     Ds1   v088
	BYTE	W36
	BYTE		N23     Ds1   v092
	BYTE	W36
	BYTE	PEND
// 053   ----------------------------------------
duskfalls_7_053:
	BYTE		N32     Ds1   v096
	BYTE	W36
	BYTE		N23   
	BYTE	W36
	BYTE		N32   
	BYTE	W36
	BYTE		N23   
	BYTE	W36
	BYTE	PEND
// 054   ----------------------------------------
duskfalls_7_054:
	BYTE		N32     Fn1   v096
	BYTE	W96
	BYTE	W12
	BYTE		N32   
	BYTE	W36
	BYTE	PEND
// 055   ----------------------------------------
duskfalls_7_055:
	BYTE		N32     Cs2   v096
	BYTE	W96
	BYTE	W12
	BYTE		N32   
	BYTE	W36
	BYTE	PEND
// 056   ----------------------------------------
duskfalls_7_056:
	BYTE		N32     As1   v096
	BYTE	W96
	BYTE	W12
	BYTE		N32   
	BYTE	W36
	BYTE	PEND
// 057   ----------------------------------------
duskfalls_7_057:
	BYTE		N32     As1   v096
	BYTE	W96
	BYTE	W12
	BYTE		        Fs1 
	BYTE	W36
	BYTE	PEND
// 058   ----------------------------------------
	BYTE	PATT
	 POIN2	duskfalls_7_054
// 059   ----------------------------------------
	BYTE	PATT
	 POIN2	duskfalls_7_055
// 060   ----------------------------------------
	BYTE	PATT
	 POIN2	duskfalls_7_056
// 061   ----------------------------------------
	BYTE	PATT
	 POIN2	duskfalls_7_057
// 062   ----------------------------------------
	BYTE	PATT
	 POIN2	duskfalls_7_054
// 063   ----------------------------------------
duskfalls_7_063:
	BYTE		N32     Cs1   v096
	BYTE	W96
	BYTE	W12
	BYTE		N32   
	BYTE	W36
	BYTE	PEND
// 064   ----------------------------------------
duskfalls_7_064:
	BYTE		N32     Dn1   v096
	BYTE	W96
	BYTE	W12
	BYTE		N32   
	BYTE	W36
	BYTE	PEND
// 065   ----------------------------------------
duskfalls_7_065:
	BYTE		N32     Cn2   v096
	BYTE	W96
	BYTE	W12
	BYTE		N32   
	BYTE	W36
	BYTE	PEND
// 066   ----------------------------------------
	BYTE	PATT
	 POIN2	duskfalls_7_054
// 067   ----------------------------------------
	BYTE	PATT
	 POIN2	duskfalls_7_063
// 068   ----------------------------------------
	BYTE	PATT
	 POIN2	duskfalls_7_064
// 069   ----------------------------------------
	BYTE	PATT
	 POIN2	duskfalls_7_065
// 070   ----------------------------------------
duskfalls_7_070:
	BYTE		N68     Cs2   v096
	BYTE	W72
	BYTE		N11     Ds2 
	BYTE	W36
	BYTE		TIE     As1 
	BYTE	W36
	BYTE	PEND
// 071   ----------------------------------------
	BYTE	PATT
	 POIN2	duskfalls_7_013
	BYTE		EOT     As1 
	BYTE	W01
// 072   ----------------------------------------
duskfalls_7_072:
	BYTE		N68     Cs2   v080
	BYTE	W72
	BYTE		N11     Ds2 
	BYTE	W36
	BYTE		TIE     As1 
	BYTE	W36
	BYTE	PEND
// 073   ----------------------------------------
	BYTE	PATT
	 POIN2	duskfalls_7_013
	BYTE		EOT     As1 
	BYTE	W01
// 074   ----------------------------------------
duskfalls_7_074:
	BYTE		N68     Cs2   v064
	BYTE	W72
	BYTE		N11     Ds2 
	BYTE	W36
	BYTE		TIE     As1 
	BYTE	W36
	BYTE	PEND
// 075   ----------------------------------------
	BYTE	W96
	BYTE	W48
// 076   ----------------------------------------
	BYTE	W96
	BYTE	W48
// 077   ----------------------------------------
	BYTE	PATT
	 POIN2	duskfalls_7_013
	BYTE		EOT     As1 
	BYTE	W01
// 078   ----------------------------------------
	BYTE	W96
	BYTE	W48
// 079   ----------------------------------------
	BYTE	W96
	BYTE	W48
// 080   ----------------------------------------
	BYTE	W96
	BYTE	W48
// 081   ----------------------------------------
	BYTE	W96
	BYTE	W48
// 082   ----------------------------------------
	BYTE	W96
	BYTE	W48
// 083   ----------------------------------------
	BYTE	W96
	BYTE	W48
// 084   ----------------------------------------
	BYTE	PATT
	 POIN2	duskfalls_7_006
// 085   ----------------------------------------
	BYTE	PATT
	 POIN2	duskfalls_7_007
// 086   ----------------------------------------
	BYTE	PATT
	 POIN2	duskfalls_7_008
// 087   ----------------------------------------
	BYTE	PATT
	 POIN2	duskfalls_7_009
// 088   ----------------------------------------
	BYTE	PATT
	 POIN2	duskfalls_7_006
// 089   ----------------------------------------
	BYTE	PATT
	 POIN2	duskfalls_7_007
// 090   ----------------------------------------
	BYTE	PATT
	 POIN2	duskfalls_7_012
// 091   ----------------------------------------
	BYTE	PATT
	 POIN2	duskfalls_7_013
	BYTE		EOT     Gs1 
	BYTE	W01
// 092   ----------------------------------------
	BYTE	PATT
	 POIN2	duskfalls_7_014
// 093   ----------------------------------------
	BYTE	PATT
	 POIN2	duskfalls_7_013
	BYTE		EOT     Cn2 
	BYTE	W01
// 094   ----------------------------------------
	BYTE	PATT
	 POIN2	duskfalls_7_016
// 095   ----------------------------------------
	BYTE	PATT
	 POIN2	duskfalls_7_017
// 096   ----------------------------------------
	BYTE	PATT
	 POIN2	duskfalls_7_018
// 097   ----------------------------------------
	BYTE	PATT
	 POIN2	duskfalls_7_013
	BYTE		EOT     Ds2 
	BYTE	W01
// 098   ----------------------------------------
	BYTE	PATT
	 POIN2	duskfalls_7_020
// 099   ----------------------------------------
	BYTE	PATT
	 POIN2	duskfalls_7_013
	BYTE		EOT     Ds2 
	BYTE	W01
// 100   ----------------------------------------
	BYTE	PATT
	 POIN2	duskfalls_7_022
// 101   ----------------------------------------
	BYTE	PATT
	 POIN2	duskfalls_7_023
	BYTE		EOT     Gs1 
	BYTE	W01
// 102   ----------------------------------------
	BYTE	PATT
	 POIN2	duskfalls_7_024
// 103   ----------------------------------------
	BYTE	PATT
	 POIN2	duskfalls_7_025
// 104   ----------------------------------------
	BYTE	PATT
	 POIN2	duskfalls_7_026
// 105   ----------------------------------------
	BYTE	PATT
	 POIN2	duskfalls_7_027
// 106   ----------------------------------------
	BYTE	PATT
	 POIN2	duskfalls_7_028
// 107   ----------------------------------------
	BYTE	PATT
	 POIN2	duskfalls_7_013
	BYTE		EOT     Gs1 
	BYTE	W01
// 108   ----------------------------------------
	BYTE	PATT
	 POIN2	duskfalls_7_030
// 109   ----------------------------------------
	BYTE	PATT
	 POIN2	duskfalls_7_013
	BYTE		EOT     Cn2 
	BYTE	W01
// 110   ----------------------------------------
	BYTE	PATT
	 POIN2	duskfalls_7_032
// 111   ----------------------------------------
	BYTE	PATT
	 POIN2	duskfalls_7_033
// 112   ----------------------------------------
	BYTE	PATT
	 POIN2	duskfalls_7_034
// 113   ----------------------------------------
	BYTE	PATT
	 POIN2	duskfalls_7_013
	BYTE		EOT     Ds2 
	BYTE	W01
// 114   ----------------------------------------
	BYTE	W96
	BYTE	W48
// 115   ----------------------------------------
	BYTE	W96
	BYTE	W48
// 116   ----------------------------------------
	BYTE	W96
	BYTE	W48
// 117   ----------------------------------------
	BYTE	W96
	BYTE	W48
// 118   ----------------------------------------
	BYTE	W96
	BYTE	W48
// 119   ----------------------------------------
	BYTE	W96
	BYTE	W48
// 120   ----------------------------------------
	BYTE	W96
	BYTE	W48
// 121   ----------------------------------------
	BYTE	W96
	BYTE	W48
// 122   ----------------------------------------
	BYTE	PATT
	 POIN2	duskfalls_7_044
	BYTE		EOT     Fs1 
	BYTE	W01
// 123   ----------------------------------------
	BYTE	PATT
	 POIN2	duskfalls_7_023
	BYTE		EOT     Gs1 
	BYTE	W01
// 124   ----------------------------------------
	BYTE	PATT
	 POIN2	duskfalls_7_044
	BYTE		EOT     Fs1 
	BYTE	W01
// 125   ----------------------------------------
	BYTE	PATT
	 POIN2	duskfalls_7_023
	BYTE		EOT     Gs1 
	BYTE	W01
// 126   ----------------------------------------
	BYTE	PATT
	 POIN2	duskfalls_7_044
	BYTE		EOT     Fs1 
	BYTE	W01
// 127   ----------------------------------------
	BYTE	PATT
	 POIN2	duskfalls_7_023
	BYTE		EOT     Gs1 
	BYTE	W01
// 128   ----------------------------------------
	BYTE	PATT
	 POIN2	duskfalls_7_050
	BYTE		EOT     Bn1 
	BYTE	W01
// 129   ----------------------------------------
	BYTE	PATT
	 POIN2	duskfalls_7_051
	BYTE		EOT     Cs2 
	BYTE	W01
// 130   ----------------------------------------
	BYTE	PATT
	 POIN2	duskfalls_7_052
// 131   ----------------------------------------
	BYTE	PATT
	 POIN2	duskfalls_7_053
// 132   ----------------------------------------
	BYTE	PATT
	 POIN2	duskfalls_7_054
// 133   ----------------------------------------
	BYTE	PATT
	 POIN2	duskfalls_7_055
// 134   ----------------------------------------
	BYTE	PATT
	 POIN2	duskfalls_7_056
// 135   ----------------------------------------
	BYTE	PATT
	 POIN2	duskfalls_7_057
// 136   ----------------------------------------
	BYTE	PATT
	 POIN2	duskfalls_7_054
// 137   ----------------------------------------
	BYTE	PATT
	 POIN2	duskfalls_7_055
// 138   ----------------------------------------
	BYTE	PATT
	 POIN2	duskfalls_7_056
// 139   ----------------------------------------
	BYTE	PATT
	 POIN2	duskfalls_7_057
// 140   ----------------------------------------
	BYTE	PATT
	 POIN2	duskfalls_7_054
// 141   ----------------------------------------
	BYTE	PATT
	 POIN2	duskfalls_7_063
// 142   ----------------------------------------
	BYTE	PATT
	 POIN2	duskfalls_7_064
// 143   ----------------------------------------
	BYTE	PATT
	 POIN2	duskfalls_7_065
// 144   ----------------------------------------
	BYTE	PATT
	 POIN2	duskfalls_7_054
// 145   ----------------------------------------
	BYTE	PATT
	 POIN2	duskfalls_7_063
// 146   ----------------------------------------
	BYTE	PATT
	 POIN2	duskfalls_7_064
// 147   ----------------------------------------
	BYTE	PATT
	 POIN2	duskfalls_7_065
	BYTE	GoTo
	 POIN2	duskfalls_7_B1
duskfalls_7_B2:
// 148   ----------------------------------------
	BYTE	PATT
	 POIN2	duskfalls_7_070
// 149   ----------------------------------------
	BYTE	PATT
	 POIN2	duskfalls_7_013
	BYTE		EOT     As1 
	BYTE	W01
// 150   ----------------------------------------
	BYTE	PATT
	 POIN2	duskfalls_7_072
// 151   ----------------------------------------
	BYTE	PATT
	 POIN2	duskfalls_7_013
	BYTE		EOT     As1 
	BYTE	W01
// 152   ----------------------------------------
	BYTE	PATT
	 POIN2	duskfalls_7_074
// 153   ----------------------------------------
	BYTE	W96
	BYTE	W48
// 154   ----------------------------------------
	BYTE	W96
	BYTE	W48
// 155   ----------------------------------------
	BYTE	PATT
	 POIN2	duskfalls_7_013
	BYTE		EOT     As1 
	BYTE	FINE

//**************** Track 8 (Midi-Chn.8) ****************//

duskfalls_8:
	BYTE	KEYSH   duskfalls_key+0
// 000   ----------------------------------------
	BYTE		VOICE   57
	BYTE		VOL     100*duskfalls_mvl/mxv
	BYTE		PAN     c_v+0
	BYTE	W96
	BYTE	W48
// 001   ----------------------------------------
	BYTE	W96
	BYTE	W48
// 002   ----------------------------------------
	BYTE	W96
	BYTE	W48
// 003   ----------------------------------------
	BYTE	W96
	BYTE	W48
duskfalls_8_B1:
// 004   ----------------------------------------
	BYTE	W96
	BYTE	W48
// 005   ----------------------------------------
	BYTE	W96
	BYTE	W48
// 006   ----------------------------------------
	BYTE	W96
	BYTE	W48
// 007   ----------------------------------------
	BYTE	W96
	BYTE	W48
// 008   ----------------------------------------
	BYTE	W96
	BYTE	W48
// 009   ----------------------------------------
	BYTE	W96
	BYTE	W48
// 010   ----------------------------------------
	BYTE	W96
	BYTE	W48
// 011   ----------------------------------------
	BYTE	W96
	BYTE	W48
// 012   ----------------------------------------
	BYTE	W96
	BYTE	W48
// 013   ----------------------------------------
	BYTE	W96
	BYTE	W48
// 014   ----------------------------------------
	BYTE	W96
	BYTE	W48
// 015   ----------------------------------------
	BYTE	W96
	BYTE	W48
// 016   ----------------------------------------
	BYTE	W96
	BYTE	W48
// 017   ----------------------------------------
	BYTE	W96
	BYTE	W48
// 018   ----------------------------------------
	BYTE	W96
	BYTE	W48
// 019   ----------------------------------------
	BYTE	W96
	BYTE	W48
// 020   ----------------------------------------
	BYTE	W96
	BYTE	W48
// 021   ----------------------------------------
	BYTE	W96
	BYTE	W48
// 022   ----------------------------------------
	BYTE	W96
	BYTE	W48
// 023   ----------------------------------------
	BYTE	W96
	BYTE	W48
// 024   ----------------------------------------
	BYTE	W96
	BYTE	W48
// 025   ----------------------------------------
	BYTE	W96
	BYTE	W48
// 026   ----------------------------------------
	BYTE	W96
	BYTE	W48
// 027   ----------------------------------------
	BYTE	W96
	BYTE	W48
// 028   ----------------------------------------
	BYTE	W96
	BYTE	W48
// 029   ----------------------------------------
	BYTE	W96
	BYTE	W48
// 030   ----------------------------------------
	BYTE	W96
	BYTE	W48
// 031   ----------------------------------------
	BYTE	W96
	BYTE	W48
// 032   ----------------------------------------
	BYTE	W96
	BYTE	W48
// 033   ----------------------------------------
	BYTE	W96
	BYTE	W48
// 034   ----------------------------------------
	BYTE	W96
	BYTE	W48
// 035   ----------------------------------------
	BYTE	W96
	BYTE	W48
// 036   ----------------------------------------
duskfalls_8_036:
	BYTE		TIE     Fs2   v052
	BYTE	W96
	BYTE	W44
	BYTE	W03
	BYTE	PEND
	BYTE		EOT   
	BYTE	W01
// 037   ----------------------------------------
duskfalls_8_037:
	BYTE		TIE     Gs2   v052
	BYTE	W96
	BYTE	W44
	BYTE	W03
	BYTE	PEND
	BYTE		EOT   
	BYTE	W01
// 038   ----------------------------------------
	BYTE	PATT
	 POIN2	duskfalls_8_036
	BYTE		EOT     Fs2 
	BYTE	W01
// 039   ----------------------------------------
	BYTE	PATT
	 POIN2	duskfalls_8_037
	BYTE		EOT     Gs2 
	BYTE	W01
// 040   ----------------------------------------
	BYTE	PATT
	 POIN2	duskfalls_8_036
	BYTE		EOT     Fs2 
	BYTE	W01
// 041   ----------------------------------------
	BYTE	PATT
	 POIN2	duskfalls_8_037
	BYTE		EOT     Gs2 
	BYTE	W01
// 042   ----------------------------------------
duskfalls_8_042:
	BYTE		TIE     Ds2   v052
	BYTE	W96
	BYTE	W44
	BYTE	W03
	BYTE	PEND
	BYTE		EOT   
	BYTE	W01
// 043   ----------------------------------------
duskfalls_8_043:
	BYTE		TIE     Fn2   v052
	BYTE	W96
	BYTE	W44
	BYTE	W03
	BYTE	PEND
	BYTE		EOT   
	BYTE	W01
// 044   ----------------------------------------
duskfalls_8_044:
	BYTE		TIE     Fs2   v064
	BYTE	W96
	BYTE	W44
	BYTE	W03
	BYTE	PEND
	BYTE		EOT   
	BYTE	W01
// 045   ----------------------------------------
duskfalls_8_045:
	BYTE		TIE     Gs2   v064
	BYTE	W96
	BYTE	W44
	BYTE	W03
	BYTE	PEND
	BYTE		EOT   
	BYTE	W01
// 046   ----------------------------------------
	BYTE	PATT
	 POIN2	duskfalls_8_044
	BYTE		EOT     Fs2 
	BYTE	W01
// 047   ----------------------------------------
	BYTE	PATT
	 POIN2	duskfalls_8_045
	BYTE		EOT     Gs2 
	BYTE	W01
// 048   ----------------------------------------
	BYTE	PATT
	 POIN2	duskfalls_8_044
	BYTE		EOT     Fs2 
	BYTE	W01
// 049   ----------------------------------------
	BYTE	PATT
	 POIN2	duskfalls_8_045
	BYTE		EOT     Gs2 
	BYTE	W01
// 050   ----------------------------------------
duskfalls_8_050:
	BYTE		TIE     Ds2   v064
	BYTE	W96
	BYTE	W44
	BYTE	W03
	BYTE	PEND
	BYTE		EOT   
	BYTE	W01
// 051   ----------------------------------------
duskfalls_8_051:
	BYTE		TIE     Fn2   v064
	BYTE	W96
	BYTE	W44
	BYTE	W03
	BYTE	PEND
	BYTE		EOT   
	BYTE	W01
// 052   ----------------------------------------
duskfalls_8_052:
	BYTE		N32     Ds2   v064
	BYTE	W36
	BYTE		N23     Ds2   v072
	BYTE	W36
	BYTE		N32     Ds2   v080
	BYTE	W36
	BYTE		N23     Ds2   v088
	BYTE	W36
	BYTE	PEND
// 053   ----------------------------------------
duskfalls_8_053:
	BYTE		N32     Ds2   v096
	BYTE	W36
	BYTE		N23   
	BYTE	W36
	BYTE		N32   
	BYTE	W36
	BYTE		N23   
	BYTE	W36
	BYTE	PEND
// 054   ----------------------------------------
duskfalls_8_054:
	BYTE		N32     Fn1   v096
	BYTE	W96
	BYTE	W12
	BYTE		N32   
	BYTE	W36
	BYTE	PEND
// 055   ----------------------------------------
duskfalls_8_055:
	BYTE		N32     Cs2   v096
	BYTE	W96
	BYTE	W12
	BYTE		N32   
	BYTE	W36
	BYTE	PEND
// 056   ----------------------------------------
duskfalls_8_056:
	BYTE		N32     As1   v096
	BYTE	W96
	BYTE	W12
	BYTE		N32   
	BYTE	W36
	BYTE	PEND
// 057   ----------------------------------------
duskfalls_8_057:
	BYTE		N32     As1   v096
	BYTE	W96
	BYTE	W12
	BYTE		        Fs1 
	BYTE	W36
	BYTE	PEND
// 058   ----------------------------------------
	BYTE	PATT
	 POIN2	duskfalls_8_054
// 059   ----------------------------------------
	BYTE	PATT
	 POIN2	duskfalls_8_055
// 060   ----------------------------------------
	BYTE	PATT
	 POIN2	duskfalls_8_056
// 061   ----------------------------------------
	BYTE	PATT
	 POIN2	duskfalls_8_057
// 062   ----------------------------------------
	BYTE	PATT
	 POIN2	duskfalls_8_054
// 063   ----------------------------------------
	BYTE	PATT
	 POIN2	duskfalls_8_055
// 064   ----------------------------------------
duskfalls_8_064:
	BYTE		N32     Dn2   v096
	BYTE	W96
	BYTE	W12
	BYTE		N32   
	BYTE	W36
	BYTE	PEND
// 065   ----------------------------------------
duskfalls_8_065:
	BYTE		N32     Cn2   v096
	BYTE	W96
	BYTE	W12
	BYTE		N32   
	BYTE	W36
	BYTE	PEND
// 066   ----------------------------------------
	BYTE	PATT
	 POIN2	duskfalls_8_054
// 067   ----------------------------------------
	BYTE	PATT
	 POIN2	duskfalls_8_055
// 068   ----------------------------------------
	BYTE	PATT
	 POIN2	duskfalls_8_064
// 069   ----------------------------------------
	BYTE	PATT
	 POIN2	duskfalls_8_065
// 070   ----------------------------------------
	BYTE	W96
	BYTE	W48
// 071   ----------------------------------------
	BYTE	W96
	BYTE	W48
// 072   ----------------------------------------
	BYTE	W96
	BYTE	W48
// 073   ----------------------------------------
	BYTE	W96
	BYTE	W48
// 074   ----------------------------------------
	BYTE	W96
	BYTE	W48
// 075   ----------------------------------------
	BYTE	W96
	BYTE	W48
// 076   ----------------------------------------
	BYTE	W96
	BYTE	W48
// 077   ----------------------------------------
	BYTE	W96
	BYTE	W48
// 078   ----------------------------------------
	BYTE	W96
	BYTE	W48
// 079   ----------------------------------------
	BYTE	W96
	BYTE	W48
// 080   ----------------------------------------
	BYTE	W96
	BYTE	W48
// 081   ----------------------------------------
	BYTE	W96
	BYTE	W48
// 082   ----------------------------------------
	BYTE	W96
	BYTE	W48
// 083   ----------------------------------------
	BYTE	W96
	BYTE	W48
// 084   ----------------------------------------
	BYTE	W96
	BYTE	W48
// 085   ----------------------------------------
	BYTE	W96
	BYTE	W48
// 086   ----------------------------------------
	BYTE	W96
	BYTE	W48
// 087   ----------------------------------------
	BYTE	W96
	BYTE	W48
// 088   ----------------------------------------
	BYTE	W96
	BYTE	W48
// 089   ----------------------------------------
	BYTE	W96
	BYTE	W48
// 090   ----------------------------------------
	BYTE	W96
	BYTE	W48
// 091   ----------------------------------------
	BYTE	W96
	BYTE	W48
// 092   ----------------------------------------
	BYTE	W96
	BYTE	W48
// 093   ----------------------------------------
	BYTE	W96
	BYTE	W48
// 094   ----------------------------------------
	BYTE	W96
	BYTE	W48
// 095   ----------------------------------------
	BYTE	W96
	BYTE	W48
// 096   ----------------------------------------
	BYTE	W96
	BYTE	W48
// 097   ----------------------------------------
	BYTE	W96
	BYTE	W48
// 098   ----------------------------------------
	BYTE	W96
	BYTE	W48
// 099   ----------------------------------------
	BYTE	W96
	BYTE	W48
// 100   ----------------------------------------
	BYTE	W96
	BYTE	W48
// 101   ----------------------------------------
	BYTE	W96
	BYTE	W48
// 102   ----------------------------------------
	BYTE	W96
	BYTE	W48
// 103   ----------------------------------------
	BYTE	W96
	BYTE	W48
// 104   ----------------------------------------
	BYTE	W96
	BYTE	W48
// 105   ----------------------------------------
	BYTE	W96
	BYTE	W48
// 106   ----------------------------------------
	BYTE	W96
	BYTE	W48
// 107   ----------------------------------------
	BYTE	W96
	BYTE	W48
// 108   ----------------------------------------
	BYTE	W96
	BYTE	W48
// 109   ----------------------------------------
	BYTE	W96
	BYTE	W48
// 110   ----------------------------------------
	BYTE	W96
	BYTE	W48
// 111   ----------------------------------------
	BYTE	W96
	BYTE	W48
// 112   ----------------------------------------
	BYTE	W96
	BYTE	W48
// 113   ----------------------------------------
	BYTE	W96
	BYTE	W48
// 114   ----------------------------------------
	BYTE	PATT
	 POIN2	duskfalls_8_036
	BYTE		EOT     Fs2 
	BYTE	W01
// 115   ----------------------------------------
	BYTE	PATT
	 POIN2	duskfalls_8_037
	BYTE		EOT     Gs2 
	BYTE	W01
// 116   ----------------------------------------
	BYTE	PATT
	 POIN2	duskfalls_8_036
	BYTE		EOT     Fs2 
	BYTE	W01
// 117   ----------------------------------------
	BYTE	PATT
	 POIN2	duskfalls_8_037
	BYTE		EOT     Gs2 
	BYTE	W01
// 118   ----------------------------------------
	BYTE	PATT
	 POIN2	duskfalls_8_036
	BYTE		EOT     Fs2 
	BYTE	W01
// 119   ----------------------------------------
	BYTE	PATT
	 POIN2	duskfalls_8_037
	BYTE		EOT     Gs2 
	BYTE	W01
// 120   ----------------------------------------
	BYTE	PATT
	 POIN2	duskfalls_8_042
	BYTE		EOT     Ds2 
	BYTE	W01
// 121   ----------------------------------------
	BYTE	PATT
	 POIN2	duskfalls_8_043
	BYTE		EOT     Fn2 
	BYTE	W01
// 122   ----------------------------------------
	BYTE	PATT
	 POIN2	duskfalls_8_044
	BYTE		EOT     Fs2 
	BYTE	W01
// 123   ----------------------------------------
	BYTE	PATT
	 POIN2	duskfalls_8_045
	BYTE		EOT     Gs2 
	BYTE	W01
// 124   ----------------------------------------
	BYTE	PATT
	 POIN2	duskfalls_8_044
	BYTE		EOT     Fs2 
	BYTE	W01
// 125   ----------------------------------------
	BYTE	PATT
	 POIN2	duskfalls_8_045
	BYTE		EOT     Gs2 
	BYTE	W01
// 126   ----------------------------------------
	BYTE	PATT
	 POIN2	duskfalls_8_044
	BYTE		EOT     Fs2 
	BYTE	W01
// 127   ----------------------------------------
	BYTE	PATT
	 POIN2	duskfalls_8_045
	BYTE		EOT     Gs2 
	BYTE	W01
// 128   ----------------------------------------
	BYTE	PATT
	 POIN2	duskfalls_8_050
	BYTE		EOT     Ds2 
	BYTE	W01
// 129   ----------------------------------------
	BYTE	PATT
	 POIN2	duskfalls_8_051
	BYTE		EOT     Fn2 
	BYTE	W01
// 130   ----------------------------------------
	BYTE	PATT
	 POIN2	duskfalls_8_052
// 131   ----------------------------------------
	BYTE	PATT
	 POIN2	duskfalls_8_053
// 132   ----------------------------------------
	BYTE	PATT
	 POIN2	duskfalls_8_054
// 133   ----------------------------------------
	BYTE	PATT
	 POIN2	duskfalls_8_055
// 134   ----------------------------------------
	BYTE	PATT
	 POIN2	duskfalls_8_056
// 135   ----------------------------------------
	BYTE	PATT
	 POIN2	duskfalls_8_057
// 136   ----------------------------------------
	BYTE	PATT
	 POIN2	duskfalls_8_054
// 137   ----------------------------------------
	BYTE	PATT
	 POIN2	duskfalls_8_055
// 138   ----------------------------------------
	BYTE	PATT
	 POIN2	duskfalls_8_056
// 139   ----------------------------------------
	BYTE	PATT
	 POIN2	duskfalls_8_057
// 140   ----------------------------------------
	BYTE	PATT
	 POIN2	duskfalls_8_054
// 141   ----------------------------------------
	BYTE	PATT
	 POIN2	duskfalls_8_055
// 142   ----------------------------------------
	BYTE	PATT
	 POIN2	duskfalls_8_064
// 143   ----------------------------------------
	BYTE	PATT
	 POIN2	duskfalls_8_065
// 144   ----------------------------------------
	BYTE	PATT
	 POIN2	duskfalls_8_054
// 145   ----------------------------------------
	BYTE	PATT
	 POIN2	duskfalls_8_055
// 146   ----------------------------------------
	BYTE	PATT
	 POIN2	duskfalls_8_064
// 147   ----------------------------------------
	BYTE	PATT
	 POIN2	duskfalls_8_065
	BYTE	GoTo
	 POIN2	duskfalls_8_B1
duskfalls_8_B2:
// 148   ----------------------------------------
	BYTE	W96
	BYTE	W48
// 149   ----------------------------------------
	BYTE	W96
	BYTE	W48
// 150   ----------------------------------------
	BYTE	W96
	BYTE	W48
// 151   ----------------------------------------
	BYTE	W96
	BYTE	W48
// 152   ----------------------------------------
	BYTE	W96
	BYTE	W48
// 153   ----------------------------------------
	BYTE	W96
	BYTE	W48
// 154   ----------------------------------------
	BYTE	W96
	BYTE	W48
// 155   ----------------------------------------
	BYTE	W96
	BYTE	W44
	BYTE	W03
	BYTE	FINE

//**************** Track 9 (Midi-Chn.9) ****************//

duskfalls_9:
	BYTE	KEYSH   duskfalls_key+0
// 000   ----------------------------------------
	BYTE		VOICE   61
	BYTE		VOL     100*duskfalls_mvl/mxv
	BYTE		PAN     c_v+0
	BYTE	W96
	BYTE	W48
// 001   ----------------------------------------
	BYTE	W96
	BYTE	W48
// 002   ----------------------------------------
	BYTE	W96
	BYTE	W48
// 003   ----------------------------------------
	BYTE	W96
	BYTE	W48
duskfalls_9_B1:
// 004   ----------------------------------------
	BYTE	W96
	BYTE	W48
// 005   ----------------------------------------
	BYTE	W96
	BYTE	W48
// 006   ----------------------------------------
	BYTE	W96
	BYTE	W48
// 007   ----------------------------------------
	BYTE	W96
	BYTE	W48
// 008   ----------------------------------------
	BYTE	W96
	BYTE	W48
// 009   ----------------------------------------
	BYTE	W96
	BYTE	W48
// 010   ----------------------------------------
	BYTE	W96
	BYTE	W48
// 011   ----------------------------------------
	BYTE	W96
	BYTE	W48
// 012   ----------------------------------------
	BYTE	W96
	BYTE	W48
// 013   ----------------------------------------
	BYTE	W96
	BYTE	W48
// 014   ----------------------------------------
	BYTE	W96
	BYTE	W48
// 015   ----------------------------------------
	BYTE	W96
	BYTE	W48
// 016   ----------------------------------------
	BYTE	W96
	BYTE	W48
// 017   ----------------------------------------
	BYTE	W96
	BYTE	W48
// 018   ----------------------------------------
	BYTE	W96
	BYTE	W48
// 019   ----------------------------------------
	BYTE	W96
	BYTE	W48
// 020   ----------------------------------------
	BYTE	W96
	BYTE	W48
// 021   ----------------------------------------
	BYTE	W96
	BYTE	W48
// 022   ----------------------------------------
	BYTE	W96
	BYTE	W48
// 023   ----------------------------------------
	BYTE	W96
	BYTE	W48
// 024   ----------------------------------------
	BYTE	W96
	BYTE	W48
// 025   ----------------------------------------
	BYTE	W96
	BYTE	W48
// 026   ----------------------------------------
	BYTE	W96
	BYTE	W48
// 027   ----------------------------------------
	BYTE	W96
	BYTE	W48
// 028   ----------------------------------------
	BYTE	W96
	BYTE	W48
// 029   ----------------------------------------
	BYTE	W96
	BYTE	W48
// 030   ----------------------------------------
	BYTE	W96
	BYTE	W48
// 031   ----------------------------------------
	BYTE	W96
	BYTE	W48
// 032   ----------------------------------------
	BYTE	W96
	BYTE	W48
// 033   ----------------------------------------
	BYTE	W96
	BYTE	W48
// 034   ----------------------------------------
	BYTE	W96
	BYTE	W48
// 035   ----------------------------------------
	BYTE	W96
	BYTE	W48
// 036   ----------------------------------------
duskfalls_9_036:
	BYTE		TIE     Cs2   v052
	BYTE	W96
	BYTE	W44
	BYTE	W03
	BYTE	PEND
	BYTE		EOT   
	BYTE	W01
// 037   ----------------------------------------
duskfalls_9_037:
	BYTE		TIE     Ds2   v052
	BYTE	W96
	BYTE	W44
	BYTE	W03
	BYTE	PEND
	BYTE		EOT   
	BYTE	W01
// 038   ----------------------------------------
	BYTE	PATT
	 POIN2	duskfalls_9_036
	BYTE		EOT     Cs2 
	BYTE	W01
// 039   ----------------------------------------
	BYTE	PATT
	 POIN2	duskfalls_9_037
	BYTE		EOT     Ds2 
	BYTE	W01
// 040   ----------------------------------------
	BYTE	PATT
	 POIN2	duskfalls_9_036
	BYTE		EOT     Cs2 
	BYTE	W01
// 041   ----------------------------------------
	BYTE	PATT
	 POIN2	duskfalls_9_037
	BYTE		EOT     Ds2 
	BYTE	W01
// 042   ----------------------------------------
duskfalls_9_042:
	BYTE		TIE     Bn1   v052
	BYTE	W96
	BYTE	W44
	BYTE	W03
	BYTE	PEND
	BYTE		EOT   
	BYTE	W01
// 043   ----------------------------------------
	BYTE	PATT
	 POIN2	duskfalls_9_036
	BYTE		EOT     Cs2 
	BYTE	W01
// 044   ----------------------------------------
duskfalls_9_044:
	BYTE		TIE     Cs2   v064
	BYTE	W96
	BYTE	W44
	BYTE	W03
	BYTE	PEND
	BYTE		EOT   
	BYTE	W01
// 045   ----------------------------------------
duskfalls_9_045:
	BYTE		TIE     Ds2   v064
	BYTE	W96
	BYTE	W44
	BYTE	W03
	BYTE	PEND
	BYTE		EOT   
	BYTE	W01
// 046   ----------------------------------------
	BYTE	PATT
	 POIN2	duskfalls_9_044
	BYTE		EOT     Cs2 
	BYTE	W01
// 047   ----------------------------------------
	BYTE	PATT
	 POIN2	duskfalls_9_045
	BYTE		EOT     Ds2 
	BYTE	W01
// 048   ----------------------------------------
	BYTE	PATT
	 POIN2	duskfalls_9_044
	BYTE		EOT     Cs2 
	BYTE	W01
// 049   ----------------------------------------
	BYTE	PATT
	 POIN2	duskfalls_9_045
	BYTE		EOT     Ds2 
	BYTE	W01
// 050   ----------------------------------------
duskfalls_9_050:
	BYTE		TIE     Bn1   v064
	BYTE	W96
	BYTE	W44
	BYTE	W03
	BYTE	PEND
	BYTE		EOT   
	BYTE	W01
// 051   ----------------------------------------
	BYTE	PATT
	 POIN2	duskfalls_9_044
	BYTE		EOT     Cs2 
	BYTE	W01
// 052   ----------------------------------------
duskfalls_9_052:
	BYTE		N32     Ds2   v064
	BYTE	W36
	BYTE		N23     Ds2   v072
	BYTE	W36
	BYTE		N32     Ds2   v080
	BYTE	W36
	BYTE		N23     Ds2   v088
	BYTE	W36
	BYTE	PEND
// 053   ----------------------------------------
duskfalls_9_053:
	BYTE		N32     Ds2   v096
	BYTE	W36
	BYTE		N23   
	BYTE	W36
	BYTE		N32   
	BYTE	W36
	BYTE		N23   
	BYTE	W36
	BYTE	PEND
// 054   ----------------------------------------
duskfalls_9_054:
	BYTE		N32     Fn1   v096
	BYTE	W36
	BYTE		N32   
	BYTE	W36
	BYTE		N32   
	BYTE	W36
	BYTE		N32   
	BYTE	W36
	BYTE	PEND
// 055   ----------------------------------------
duskfalls_9_055:
	BYTE		N32     Cs2   v096
	BYTE	W36
	BYTE		N32   
	BYTE	W36
	BYTE		N32   
	BYTE	W36
	BYTE		N32   
	BYTE	W36
	BYTE	PEND
// 056   ----------------------------------------
duskfalls_9_056:
	BYTE		N32     As1   v096
	BYTE	W36
	BYTE		N32   
	BYTE	W36
	BYTE		N32   
	BYTE	W36
	BYTE		N32   
	BYTE	W36
	BYTE	PEND
// 057   ----------------------------------------
duskfalls_9_057:
	BYTE		N32     As1   v096
	BYTE	W36
	BYTE		N32   
	BYTE	W36
	BYTE		        Fs1 
	BYTE	W36
	BYTE		N32   
	BYTE	W36
	BYTE	PEND
// 058   ----------------------------------------
	BYTE	PATT
	 POIN2	duskfalls_9_054
// 059   ----------------------------------------
	BYTE	PATT
	 POIN2	duskfalls_9_055
// 060   ----------------------------------------
	BYTE	PATT
	 POIN2	duskfalls_9_056
// 061   ----------------------------------------
	BYTE	PATT
	 POIN2	duskfalls_9_057
// 062   ----------------------------------------
	BYTE	PATT
	 POIN2	duskfalls_9_054
// 063   ----------------------------------------
	BYTE	PATT
	 POIN2	duskfalls_9_055
// 064   ----------------------------------------
duskfalls_9_064:
	BYTE		N32     Dn2   v096
	BYTE	W36
	BYTE		N32   
	BYTE	W36
	BYTE		N32   
	BYTE	W36
	BYTE		N32   
	BYTE	W36
	BYTE	PEND
// 065   ----------------------------------------
duskfalls_9_065:
	BYTE		N32     Cn2   v096
	BYTE	W36
	BYTE		N32   
	BYTE	W36
	BYTE		N32   
	BYTE	W36
	BYTE		N32   
	BYTE	W36
	BYTE	PEND
// 066   ----------------------------------------
	BYTE	PATT
	 POIN2	duskfalls_9_054
// 067   ----------------------------------------
	BYTE	PATT
	 POIN2	duskfalls_9_055
// 068   ----------------------------------------
	BYTE	PATT
	 POIN2	duskfalls_9_064
// 069   ----------------------------------------
	BYTE	PATT
	 POIN2	duskfalls_9_065
// 070   ----------------------------------------
	BYTE	W96
	BYTE	W48
// 071   ----------------------------------------
	BYTE	W96
	BYTE	W48
// 072   ----------------------------------------
	BYTE	W96
	BYTE	W48
// 073   ----------------------------------------
	BYTE	W96
	BYTE	W48
// 074   ----------------------------------------
	BYTE	W96
	BYTE	W48
// 075   ----------------------------------------
	BYTE	W96
	BYTE	W48
// 076   ----------------------------------------
	BYTE	W96
	BYTE	W48
// 077   ----------------------------------------
	BYTE	W96
	BYTE	W48
// 078   ----------------------------------------
	BYTE	W96
	BYTE	W48
// 079   ----------------------------------------
	BYTE	W96
	BYTE	W48
// 080   ----------------------------------------
	BYTE	W96
	BYTE	W48
// 081   ----------------------------------------
	BYTE	W96
	BYTE	W48
// 082   ----------------------------------------
	BYTE	W96
	BYTE	W48
// 083   ----------------------------------------
	BYTE	W96
	BYTE	W48
// 084   ----------------------------------------
	BYTE	W96
	BYTE	W48
// 085   ----------------------------------------
	BYTE	W96
	BYTE	W48
// 086   ----------------------------------------
	BYTE	W96
	BYTE	W48
// 087   ----------------------------------------
	BYTE	W96
	BYTE	W48
// 088   ----------------------------------------
	BYTE	W96
	BYTE	W48
// 089   ----------------------------------------
	BYTE	W96
	BYTE	W48
// 090   ----------------------------------------
	BYTE	W96
	BYTE	W48
// 091   ----------------------------------------
	BYTE	W96
	BYTE	W48
// 092   ----------------------------------------
	BYTE	W96
	BYTE	W48
// 093   ----------------------------------------
	BYTE	W96
	BYTE	W48
// 094   ----------------------------------------
	BYTE	W96
	BYTE	W48
// 095   ----------------------------------------
	BYTE	W96
	BYTE	W48
// 096   ----------------------------------------
	BYTE	W96
	BYTE	W48
// 097   ----------------------------------------
	BYTE	W96
	BYTE	W48
// 098   ----------------------------------------
	BYTE	W96
	BYTE	W48
// 099   ----------------------------------------
	BYTE	W96
	BYTE	W48
// 100   ----------------------------------------
	BYTE	W96
	BYTE	W48
// 101   ----------------------------------------
	BYTE	W96
	BYTE	W48
// 102   ----------------------------------------
	BYTE	W96
	BYTE	W48
// 103   ----------------------------------------
	BYTE	W96
	BYTE	W48
// 104   ----------------------------------------
	BYTE	W96
	BYTE	W48
// 105   ----------------------------------------
	BYTE	W96
	BYTE	W48
// 106   ----------------------------------------
	BYTE	W96
	BYTE	W48
// 107   ----------------------------------------
	BYTE	W96
	BYTE	W48
// 108   ----------------------------------------
	BYTE	W96
	BYTE	W48
// 109   ----------------------------------------
	BYTE	W96
	BYTE	W48
// 110   ----------------------------------------
	BYTE	W96
	BYTE	W48
// 111   ----------------------------------------
	BYTE	W96
	BYTE	W48
// 112   ----------------------------------------
	BYTE	W96
	BYTE	W48
// 113   ----------------------------------------
	BYTE	W96
	BYTE	W48
// 114   ----------------------------------------
	BYTE	PATT
	 POIN2	duskfalls_9_036
	BYTE		EOT     Cs2 
	BYTE	W01
// 115   ----------------------------------------
	BYTE	PATT
	 POIN2	duskfalls_9_037
	BYTE		EOT     Ds2 
	BYTE	W01
// 116   ----------------------------------------
	BYTE	PATT
	 POIN2	duskfalls_9_036
	BYTE		EOT     Cs2 
	BYTE	W01
// 117   ----------------------------------------
	BYTE	PATT
	 POIN2	duskfalls_9_037
	BYTE		EOT     Ds2 
	BYTE	W01
// 118   ----------------------------------------
	BYTE	PATT
	 POIN2	duskfalls_9_036
	BYTE		EOT     Cs2 
	BYTE	W01
// 119   ----------------------------------------
	BYTE	PATT
	 POIN2	duskfalls_9_037
	BYTE		EOT     Ds2 
	BYTE	W01
// 120   ----------------------------------------
	BYTE	PATT
	 POIN2	duskfalls_9_042
	BYTE		EOT     Bn1 
	BYTE	W01
// 121   ----------------------------------------
	BYTE	PATT
	 POIN2	duskfalls_9_036
	BYTE		EOT     Cs2 
	BYTE	W01
// 122   ----------------------------------------
	BYTE	PATT
	 POIN2	duskfalls_9_044
	BYTE		EOT     Cs2 
	BYTE	W01
// 123   ----------------------------------------
	BYTE	PATT
	 POIN2	duskfalls_9_045
	BYTE		EOT     Ds2 
	BYTE	W01
// 124   ----------------------------------------
	BYTE	PATT
	 POIN2	duskfalls_9_044
	BYTE		EOT     Cs2 
	BYTE	W01
// 125   ----------------------------------------
	BYTE	PATT
	 POIN2	duskfalls_9_045
	BYTE		EOT     Ds2 
	BYTE	W01
// 126   ----------------------------------------
	BYTE	PATT
	 POIN2	duskfalls_9_044
	BYTE		EOT     Cs2 
	BYTE	W01
// 127   ----------------------------------------
	BYTE	PATT
	 POIN2	duskfalls_9_045
	BYTE		EOT     Ds2 
	BYTE	W01
// 128   ----------------------------------------
	BYTE	PATT
	 POIN2	duskfalls_9_050
	BYTE		EOT     Bn1 
	BYTE	W01
// 129   ----------------------------------------
	BYTE	PATT
	 POIN2	duskfalls_9_044
	BYTE		EOT     Cs2 
	BYTE	W01
// 130   ----------------------------------------
	BYTE	PATT
	 POIN2	duskfalls_9_052
// 131   ----------------------------------------
	BYTE	PATT
	 POIN2	duskfalls_9_053
// 132   ----------------------------------------
	BYTE	PATT
	 POIN2	duskfalls_9_054
// 133   ----------------------------------------
	BYTE	PATT
	 POIN2	duskfalls_9_055
// 134   ----------------------------------------
	BYTE	PATT
	 POIN2	duskfalls_9_056
// 135   ----------------------------------------
	BYTE	PATT
	 POIN2	duskfalls_9_057
// 136   ----------------------------------------
	BYTE	PATT
	 POIN2	duskfalls_9_054
// 137   ----------------------------------------
	BYTE	PATT
	 POIN2	duskfalls_9_055
// 138   ----------------------------------------
	BYTE	PATT
	 POIN2	duskfalls_9_056
// 139   ----------------------------------------
	BYTE	PATT
	 POIN2	duskfalls_9_057
// 140   ----------------------------------------
	BYTE	PATT
	 POIN2	duskfalls_9_054
// 141   ----------------------------------------
	BYTE	PATT
	 POIN2	duskfalls_9_055
// 142   ----------------------------------------
	BYTE	PATT
	 POIN2	duskfalls_9_064
// 143   ----------------------------------------
	BYTE	PATT
	 POIN2	duskfalls_9_065
// 144   ----------------------------------------
	BYTE	PATT
	 POIN2	duskfalls_9_054
// 145   ----------------------------------------
	BYTE	PATT
	 POIN2	duskfalls_9_055
// 146   ----------------------------------------
	BYTE	PATT
	 POIN2	duskfalls_9_064
// 147   ----------------------------------------
	BYTE	PATT
	 POIN2	duskfalls_9_065
	BYTE	GoTo
	 POIN2	duskfalls_9_B1
duskfalls_9_B2:
// 148   ----------------------------------------
	BYTE	W96
	BYTE	W48
// 149   ----------------------------------------
	BYTE	W96
	BYTE	W48
// 150   ----------------------------------------
	BYTE	W96
	BYTE	W48
// 151   ----------------------------------------
	BYTE	W96
	BYTE	W48
// 152   ----------------------------------------
	BYTE	W96
	BYTE	W48
// 153   ----------------------------------------
	BYTE	W96
	BYTE	W48
// 154   ----------------------------------------
	BYTE	W96
	BYTE	W48
// 155   ----------------------------------------
	BYTE	W96
	BYTE	W44
	BYTE	W03
	BYTE	FINE

//**************** Track 10 (Midi-Chn.11) ****************//

duskfalls_10:
	BYTE	KEYSH   duskfalls_key+0
// 000   ----------------------------------------
	BYTE		VOICE   61
	BYTE		VOL     100*duskfalls_mvl/mxv
	BYTE		PAN     c_v+0
	BYTE	W96
	BYTE	W48
// 001   ----------------------------------------
	BYTE	W96
	BYTE	W48
// 002   ----------------------------------------
	BYTE	W96
	BYTE	W48
// 003   ----------------------------------------
	BYTE	W96
	BYTE	W48
duskfalls_10_B1:
// 004   ----------------------------------------
	BYTE	W96
	BYTE	W48
// 005   ----------------------------------------
	BYTE	W96
	BYTE	W48
// 006   ----------------------------------------
duskfalls_10_006:
	BYTE		N32     Bn0   v096
	BYTE	W36
	BYTE		N23   
	BYTE	W24
	BYTE		N11   
	BYTE	W12
	BYTE		N32     Cs1 
	BYTE	W36
	BYTE		N23   
	BYTE	W24
	BYTE		N11   
	BYTE	W12
	BYTE	PEND
// 007   ----------------------------------------
duskfalls_10_007:
	BYTE		N32     Gs0   v096
	BYTE	W36
	BYTE		N23   
	BYTE	W24
	BYTE		N11   
	BYTE	W12
	BYTE		N32   
	BYTE	W36
	BYTE		N23   
	BYTE	W24
	BYTE		N11   
	BYTE	W12
	BYTE	PEND
// 008   ----------------------------------------
duskfalls_10_008:
	BYTE		N32     Ds1   v096
	BYTE	W36
	BYTE		N23   
	BYTE	W24
	BYTE		N11   
	BYTE	W12
	BYTE		N32   
	BYTE	W36
	BYTE		N23   
	BYTE	W24
	BYTE		N11   
	BYTE	W12
	BYTE	PEND
// 009   ----------------------------------------
duskfalls_10_009:
	BYTE		N32     Ds1   v096
	BYTE	W36
	BYTE		N23   
	BYTE	W24
	BYTE		N11   
	BYTE	W12
	BYTE		N32   
	BYTE	W36
	BYTE		N23     Cs1 
	BYTE	W24
	BYTE		N11   
	BYTE	W12
	BYTE	PEND
// 010   ----------------------------------------
	BYTE	PATT
	 POIN2	duskfalls_10_006
// 011   ----------------------------------------
	BYTE	PATT
	 POIN2	duskfalls_10_007
// 012   ----------------------------------------
duskfalls_10_012:
	BYTE		N68     Bn1   v096
	BYTE	W72
	BYTE		N11     Cs2 
	BYTE	W36
	BYTE		TIE     Gs1 
	BYTE	W36
	BYTE	PEND
// 013   ----------------------------------------
duskfalls_10_013:
	BYTE	W96
	BYTE	W44
	BYTE	W03
	BYTE	PEND
	BYTE		EOT     Gs1 
	BYTE	W01
// 014   ----------------------------------------
duskfalls_10_014:
	BYTE		N68     Bn1   v096
	BYTE	W72
	BYTE		N11     Cs2 
	BYTE	W36
	BYTE		TIE     Cn2 
	BYTE	W36
	BYTE	PEND
// 015   ----------------------------------------
	BYTE	PATT
	 POIN2	duskfalls_10_013
	BYTE		EOT     Cn2 
	BYTE	W01
// 016   ----------------------------------------
duskfalls_10_016:
	BYTE		N68     En1   v096
	BYTE	W72
	BYTE		N11     Fs1 
	BYTE	W36
	BYTE		N68     Fn1 
	BYTE	W36
	BYTE	PEND
// 017   ----------------------------------------
duskfalls_10_017:
	BYTE	W36
	BYTE		N68     As1   v096
	BYTE	W72
	BYTE		N32   
	BYTE	W36
	BYTE	PEND
// 018   ----------------------------------------
duskfalls_10_018:
	BYTE		N68     Bn1   v096
	BYTE	W72
	BYTE		N11     Cs2 
	BYTE	W36
	BYTE		TIE     Ds2 
	BYTE	W36
	BYTE	PEND
// 019   ----------------------------------------
	BYTE	PATT
	 POIN2	duskfalls_10_013
	BYTE		EOT     Ds2 
	BYTE	W01
// 020   ----------------------------------------
	BYTE	W96
	BYTE	W48
// 021   ----------------------------------------
	BYTE	W96
	BYTE	W48
// 022   ----------------------------------------
	BYTE	W96
	BYTE	W48
// 023   ----------------------------------------
	BYTE	W96
	BYTE	W48
// 024   ----------------------------------------
	BYTE	PATT
	 POIN2	duskfalls_10_008
// 025   ----------------------------------------
	BYTE	PATT
	 POIN2	duskfalls_10_009
// 026   ----------------------------------------
	BYTE	PATT
	 POIN2	duskfalls_10_006
// 027   ----------------------------------------
	BYTE	PATT
	 POIN2	duskfalls_10_007
// 028   ----------------------------------------
	BYTE	PATT
	 POIN2	duskfalls_10_012
// 029   ----------------------------------------
	BYTE	PATT
	 POIN2	duskfalls_10_013
	BYTE		EOT     Gs1 
	BYTE	W01
// 030   ----------------------------------------
	BYTE	PATT
	 POIN2	duskfalls_10_014
// 031   ----------------------------------------
	BYTE	PATT
	 POIN2	duskfalls_10_013
	BYTE		EOT     Cn2 
	BYTE	W01
// 032   ----------------------------------------
	BYTE	PATT
	 POIN2	duskfalls_10_016
// 033   ----------------------------------------
	BYTE	PATT
	 POIN2	duskfalls_10_017
// 034   ----------------------------------------
	BYTE	PATT
	 POIN2	duskfalls_10_018
// 035   ----------------------------------------
	BYTE	PATT
	 POIN2	duskfalls_10_013
	BYTE		EOT     Ds2 
	BYTE	W01
// 036   ----------------------------------------
	BYTE	W96
	BYTE	W48
// 037   ----------------------------------------
	BYTE	W96
	BYTE	W48
// 038   ----------------------------------------
	BYTE	W96
	BYTE	W48
// 039   ----------------------------------------
	BYTE	W96
	BYTE	W48
// 040   ----------------------------------------
	BYTE	W96
	BYTE	W48
// 041   ----------------------------------------
	BYTE	W96
	BYTE	W48
// 042   ----------------------------------------
	BYTE	W96
	BYTE	W48
// 043   ----------------------------------------
	BYTE	W96
	BYTE	W48
// 044   ----------------------------------------
duskfalls_10_044:
	BYTE		TIE     Fs1   v080
	BYTE	W96
	BYTE	W44
	BYTE	W03
	BYTE	PEND
	BYTE		EOT   
	BYTE	W01
// 045   ----------------------------------------
duskfalls_10_045:
	BYTE		TIE     Gs1   v080
	BYTE	W96
	BYTE	W44
	BYTE	W03
	BYTE	PEND
	BYTE		EOT   
	BYTE	W01
// 046   ----------------------------------------
	BYTE	PATT
	 POIN2	duskfalls_10_044
	BYTE		EOT     Fs1 
	BYTE	W01
// 047   ----------------------------------------
	BYTE	PATT
	 POIN2	duskfalls_10_045
	BYTE		EOT     Gs1 
	BYTE	W01
// 048   ----------------------------------------
	BYTE	PATT
	 POIN2	duskfalls_10_044
	BYTE		EOT     Fs1 
	BYTE	W01
// 049   ----------------------------------------
	BYTE	PATT
	 POIN2	duskfalls_10_045
	BYTE		EOT     Gs1 
	BYTE	W01
// 050   ----------------------------------------
duskfalls_10_050:
	BYTE		TIE     Bn0   v080
	BYTE	W96
	BYTE	W44
	BYTE	W03
	BYTE	PEND
	BYTE		EOT   
	BYTE	W01
// 051   ----------------------------------------
duskfalls_10_051:
	BYTE		TIE     Cs1   v080
	BYTE	W96
	BYTE	W44
	BYTE	W03
	BYTE	PEND
	BYTE		EOT   
	BYTE	W01
// 052   ----------------------------------------
duskfalls_10_052:
	BYTE		N32     Ds1   v080
	BYTE	W36
	BYTE		N23     Ds1   v084
	BYTE	W36
	BYTE		N32     Ds1   v088
	BYTE	W36
	BYTE		N23     Ds1   v092
	BYTE	W36
	BYTE	PEND
// 053   ----------------------------------------
duskfalls_10_053:
	BYTE		N32     Ds1   v096
	BYTE	W36
	BYTE		N23   
	BYTE	W36
	BYTE		N32   
	BYTE	W36
	BYTE		N23   
	BYTE	W36
	BYTE	PEND
// 054   ----------------------------------------
duskfalls_10_054:
	BYTE		N32     Fn1   v096
	BYTE	W96
	BYTE	W12
	BYTE		N32   
	BYTE	W36
	BYTE	PEND
// 055   ----------------------------------------
duskfalls_10_055:
	BYTE		N32     Cs1   v096
	BYTE	W96
	BYTE	W12
	BYTE		N32   
	BYTE	W36
	BYTE	PEND
// 056   ----------------------------------------
duskfalls_10_056:
	BYTE		N32     As0   v096
	BYTE	W96
	BYTE	W12
	BYTE		N32   
	BYTE	W36
	BYTE	PEND
// 057   ----------------------------------------
duskfalls_10_057:
	BYTE		N32     As0   v096
	BYTE	W96
	BYTE	W12
	BYTE		        Fs1 
	BYTE	W36
	BYTE	PEND
// 058   ----------------------------------------
	BYTE	PATT
	 POIN2	duskfalls_10_054
// 059   ----------------------------------------
	BYTE	PATT
	 POIN2	duskfalls_10_055
// 060   ----------------------------------------
	BYTE	PATT
	 POIN2	duskfalls_10_056
// 061   ----------------------------------------
	BYTE	PATT
	 POIN2	duskfalls_10_057
// 062   ----------------------------------------
	BYTE	PATT
	 POIN2	duskfalls_10_054
// 063   ----------------------------------------
	BYTE	PATT
	 POIN2	duskfalls_10_055
// 064   ----------------------------------------
duskfalls_10_064:
	BYTE		N32     Dn1   v096
	BYTE	W96
	BYTE	W12
	BYTE		N32   
	BYTE	W36
	BYTE	PEND
// 065   ----------------------------------------
duskfalls_10_065:
	BYTE		N32     Cn1   v096
	BYTE	W96
	BYTE	W12
	BYTE		N32   
	BYTE	W36
	BYTE	PEND
// 066   ----------------------------------------
	BYTE	PATT
	 POIN2	duskfalls_10_054
// 067   ----------------------------------------
	BYTE	PATT
	 POIN2	duskfalls_10_055
// 068   ----------------------------------------
	BYTE	PATT
	 POIN2	duskfalls_10_064
// 069   ----------------------------------------
	BYTE	PATT
	 POIN2	duskfalls_10_065
// 070   ----------------------------------------
duskfalls_10_070:
	BYTE		N68     Cs1   v096
	BYTE	W72
	BYTE		N11     Ds1 
	BYTE	W36
	BYTE		TIE     As0 
	BYTE	W36
	BYTE	PEND
// 071   ----------------------------------------
	BYTE	PATT
	 POIN2	duskfalls_10_013
	BYTE		EOT     As0 
	BYTE	W01
// 072   ----------------------------------------
duskfalls_10_072:
	BYTE		N68     Cs1   v080
	BYTE	W72
	BYTE		N11     Ds1 
	BYTE	W36
	BYTE		TIE     As0 
	BYTE	W36
	BYTE	PEND
// 073   ----------------------------------------
	BYTE	PATT
	 POIN2	duskfalls_10_013
	BYTE		EOT     As0 
	BYTE	W01
// 074   ----------------------------------------
duskfalls_10_074:
	BYTE		N68     Cs1   v064
	BYTE	W72
	BYTE		N11     Ds1 
	BYTE	W36
	BYTE		TIE     As0 
	BYTE	W36
	BYTE	PEND
// 075   ----------------------------------------
	BYTE	W96
	BYTE	W48
// 076   ----------------------------------------
	BYTE	W96
	BYTE	W48
// 077   ----------------------------------------
	BYTE	PATT
	 POIN2	duskfalls_10_013
	BYTE		EOT     As0 
	BYTE	W01
// 078   ----------------------------------------
	BYTE	W96
	BYTE	W48
// 079   ----------------------------------------
	BYTE	W96
	BYTE	W48
// 080   ----------------------------------------
	BYTE	W96
	BYTE	W48
// 081   ----------------------------------------
	BYTE	W96
	BYTE	W48
// 082   ----------------------------------------
	BYTE	W96
	BYTE	W48
// 083   ----------------------------------------
	BYTE	W96
	BYTE	W48
// 084   ----------------------------------------
	BYTE	PATT
	 POIN2	duskfalls_10_006
// 085   ----------------------------------------
	BYTE	PATT
	 POIN2	duskfalls_10_007
// 086   ----------------------------------------
	BYTE	PATT
	 POIN2	duskfalls_10_008
// 087   ----------------------------------------
	BYTE	PATT
	 POIN2	duskfalls_10_009
// 088   ----------------------------------------
	BYTE	PATT
	 POIN2	duskfalls_10_006
// 089   ----------------------------------------
	BYTE	PATT
	 POIN2	duskfalls_10_007
// 090   ----------------------------------------
	BYTE	PATT
	 POIN2	duskfalls_10_012
// 091   ----------------------------------------
	BYTE	PATT
	 POIN2	duskfalls_10_013
	BYTE		EOT     Gs1 
	BYTE	W01
// 092   ----------------------------------------
	BYTE	PATT
	 POIN2	duskfalls_10_014
// 093   ----------------------------------------
	BYTE	PATT
	 POIN2	duskfalls_10_013
	BYTE		EOT     Cn2 
	BYTE	W01
// 094   ----------------------------------------
	BYTE	PATT
	 POIN2	duskfalls_10_016
// 095   ----------------------------------------
	BYTE	PATT
	 POIN2	duskfalls_10_017
// 096   ----------------------------------------
	BYTE	PATT
	 POIN2	duskfalls_10_018
// 097   ----------------------------------------
	BYTE	PATT
	 POIN2	duskfalls_10_013
	BYTE		EOT     Ds2 
	BYTE	W01
// 098   ----------------------------------------
	BYTE	W96
	BYTE	W48
// 099   ----------------------------------------
	BYTE	W96
	BYTE	W48
// 100   ----------------------------------------
	BYTE	W96
	BYTE	W48
// 101   ----------------------------------------
	BYTE	W96
	BYTE	W48
// 102   ----------------------------------------
	BYTE	PATT
	 POIN2	duskfalls_10_008
// 103   ----------------------------------------
	BYTE	PATT
	 POIN2	duskfalls_10_009
// 104   ----------------------------------------
	BYTE	PATT
	 POIN2	duskfalls_10_006
// 105   ----------------------------------------
	BYTE	PATT
	 POIN2	duskfalls_10_007
// 106   ----------------------------------------
	BYTE	PATT
	 POIN2	duskfalls_10_012
// 107   ----------------------------------------
	BYTE	PATT
	 POIN2	duskfalls_10_013
	BYTE		EOT     Gs1 
	BYTE	W01
// 108   ----------------------------------------
	BYTE	PATT
	 POIN2	duskfalls_10_014
// 109   ----------------------------------------
	BYTE	PATT
	 POIN2	duskfalls_10_013
	BYTE		EOT     Cn2 
	BYTE	W01
// 110   ----------------------------------------
	BYTE	PATT
	 POIN2	duskfalls_10_016
// 111   ----------------------------------------
	BYTE	PATT
	 POIN2	duskfalls_10_017
// 112   ----------------------------------------
	BYTE	PATT
	 POIN2	duskfalls_10_018
// 113   ----------------------------------------
	BYTE	PATT
	 POIN2	duskfalls_10_013
	BYTE		EOT     Ds2 
	BYTE	W01
// 114   ----------------------------------------
	BYTE	W96
	BYTE	W48
// 115   ----------------------------------------
	BYTE	W96
	BYTE	W48
// 116   ----------------------------------------
	BYTE	W96
	BYTE	W48
// 117   ----------------------------------------
	BYTE	W96
	BYTE	W48
// 118   ----------------------------------------
	BYTE	W96
	BYTE	W48
// 119   ----------------------------------------
	BYTE	W96
	BYTE	W48
// 120   ----------------------------------------
	BYTE	W96
	BYTE	W48
// 121   ----------------------------------------
	BYTE	W96
	BYTE	W48
// 122   ----------------------------------------
	BYTE	PATT
	 POIN2	duskfalls_10_044
	BYTE		EOT     Fs1 
	BYTE	W01
// 123   ----------------------------------------
	BYTE	PATT
	 POIN2	duskfalls_10_045
	BYTE		EOT     Gs1 
	BYTE	W01
// 124   ----------------------------------------
	BYTE	PATT
	 POIN2	duskfalls_10_044
	BYTE		EOT     Fs1 
	BYTE	W01
// 125   ----------------------------------------
	BYTE	PATT
	 POIN2	duskfalls_10_045
	BYTE		EOT     Gs1 
	BYTE	W01
// 126   ----------------------------------------
	BYTE	PATT
	 POIN2	duskfalls_10_044
	BYTE		EOT     Fs1 
	BYTE	W01
// 127   ----------------------------------------
	BYTE	PATT
	 POIN2	duskfalls_10_045
	BYTE		EOT     Gs1 
	BYTE	W01
// 128   ----------------------------------------
	BYTE	PATT
	 POIN2	duskfalls_10_050
	BYTE		EOT     Bn0 
	BYTE	W01
// 129   ----------------------------------------
	BYTE	PATT
	 POIN2	duskfalls_10_051
	BYTE		EOT     Cs1 
	BYTE	W01
// 130   ----------------------------------------
	BYTE	PATT
	 POIN2	duskfalls_10_052
// 131   ----------------------------------------
	BYTE	PATT
	 POIN2	duskfalls_10_053
// 132   ----------------------------------------
	BYTE	PATT
	 POIN2	duskfalls_10_054
// 133   ----------------------------------------
	BYTE	PATT
	 POIN2	duskfalls_10_055
// 134   ----------------------------------------
	BYTE	PATT
	 POIN2	duskfalls_10_056
// 135   ----------------------------------------
	BYTE	PATT
	 POIN2	duskfalls_10_057
// 136   ----------------------------------------
	BYTE	PATT
	 POIN2	duskfalls_10_054
// 137   ----------------------------------------
	BYTE	PATT
	 POIN2	duskfalls_10_055
// 138   ----------------------------------------
	BYTE	PATT
	 POIN2	duskfalls_10_056
// 139   ----------------------------------------
	BYTE	PATT
	 POIN2	duskfalls_10_057
// 140   ----------------------------------------
	BYTE	PATT
	 POIN2	duskfalls_10_054
// 141   ----------------------------------------
	BYTE	PATT
	 POIN2	duskfalls_10_055
// 142   ----------------------------------------
	BYTE	PATT
	 POIN2	duskfalls_10_064
// 143   ----------------------------------------
	BYTE	PATT
	 POIN2	duskfalls_10_065
// 144   ----------------------------------------
	BYTE	PATT
	 POIN2	duskfalls_10_054
// 145   ----------------------------------------
	BYTE	PATT
	 POIN2	duskfalls_10_055
// 146   ----------------------------------------
	BYTE	PATT
	 POIN2	duskfalls_10_064
// 147   ----------------------------------------
	BYTE	PATT
	 POIN2	duskfalls_10_065
	BYTE	GoTo
	 POIN2	duskfalls_10_B1
duskfalls_10_B2:
// 148   ----------------------------------------
	BYTE	PATT
	 POIN2	duskfalls_10_070
// 149   ----------------------------------------
	BYTE	PATT
	 POIN2	duskfalls_10_013
	BYTE		EOT     As0 
	BYTE	W01
// 150   ----------------------------------------
	BYTE	PATT
	 POIN2	duskfalls_10_072
// 151   ----------------------------------------
	BYTE	PATT
	 POIN2	duskfalls_10_013
	BYTE		EOT     As0 
	BYTE	W01
// 152   ----------------------------------------
	BYTE	PATT
	 POIN2	duskfalls_10_074
// 153   ----------------------------------------
	BYTE	W96
	BYTE	W48
// 154   ----------------------------------------
	BYTE	W96
	BYTE	W48
// 155   ----------------------------------------
	BYTE	PATT
	 POIN2	duskfalls_10_013
	BYTE		EOT     As0 
	BYTE	FINE

//**************** Track 11 (Midi-Chn.12) ****************//

duskfalls_11:
	BYTE	KEYSH   duskfalls_key+0
// 000   ----------------------------------------
	BYTE		VOICE   28
	BYTE		VOL     100*duskfalls_mvl/mxv
	BYTE		PAN     c_v+0
	BYTE		N32     As2   v096
	BYTE		N32     Fs3 
	BYTE	W36
	BYTE		N23     As2 
	BYTE		N23     Ds3 
	BYTE	W24
	BYTE		N11     As2 
	BYTE		N11     Ds3 
	BYTE	W12
	BYTE		        Cs3 
	BYTE		N11     Gs3 
	BYTE	W12
	BYTE		N23     As2 
	BYTE	W24
	BYTE		N23   
	BYTE		N23     Ds3 
	BYTE	W24
	BYTE		N11     As2 
	BYTE		N11     Ds3 
	BYTE	W12
// 001   ----------------------------------------
duskfalls_11_001:
	BYTE		N32     As2   v096
	BYTE		N32     Fs3 
	BYTE	W36
	BYTE		N23     As2 
	BYTE		N23     Ds3 
	BYTE	W24
	BYTE		N11     As2 
	BYTE		N11     Ds3 
	BYTE	W12
	BYTE		        Cs3 
	BYTE		N11     Gs3 
	BYTE	W12
	BYTE		N23     As2 
	BYTE	W24
	BYTE		N11     Cn3 
	BYTE		N11     Fn3 
	BYTE	W12
	BYTE		N23     As2 
	BYTE		N23     Ds3 
	BYTE	W24
	BYTE	PEND
// 002   ----------------------------------------
duskfalls_11_002:
	BYTE		N32     As2   v096
	BYTE		N32     Fs3 
	BYTE	W36
	BYTE		N23     As2 
	BYTE		N23     Ds3 
	BYTE	W24
	BYTE		N11     As2 
	BYTE		N11     Ds3 
	BYTE	W12
	BYTE		        Cs3 
	BYTE		N11     Gs3 
	BYTE	W12
	BYTE		N23     As2 
	BYTE	W24
	BYTE		N23   
	BYTE		N23     Ds3 
	BYTE	W24
	BYTE		N11     As2 
	BYTE		N11     Ds3 
	BYTE	W12
	BYTE	PEND
// 003   ----------------------------------------
	BYTE	PATT
	 POIN2	duskfalls_11_001
duskfalls_11_B1:
// 004   ----------------------------------------
duskfalls_11_004:
	BYTE		N32     As2   v096
	BYTE		N32     Fs3 
	BYTE	W36
	BYTE		N23     As2 
	BYTE		N23     Ds3 
	BYTE	W24
	BYTE		N11     As2 
	BYTE		N11     Ds3 
	BYTE	W12
	BYTE		        Cn3 
	BYTE		N11     Gs3 
	BYTE	W12
	BYTE		N23     As2 
	BYTE	W24
	BYTE		N23   
	BYTE		N23     Ds3 
	BYTE	W24
	BYTE		N11     As2 
	BYTE		N11     Ds3 
	BYTE	W12
	BYTE	PEND
// 005   ----------------------------------------
duskfalls_11_005:
	BYTE		N32     Cs3   v096
	BYTE		N32     Fs3 
	BYTE	W36
	BYTE		N23     As2 
	BYTE		N23     Ds3 
	BYTE	W24
	BYTE		N11     As2 
	BYTE		N11     Ds3 
	BYTE	W12
	BYTE		        Cn3 
	BYTE		N11     Gs3 
	BYTE	W12
	BYTE		N23     As2 
	BYTE	W24
	BYTE		N11     Cn3 
	BYTE		N11     Fn3 
	BYTE	W12
	BYTE		N23     As2 
	BYTE		N23     Ds3 
	BYTE	W24
	BYTE	PEND
// 006   ----------------------------------------
	BYTE	PATT
	 POIN2	duskfalls_11_002
// 007   ----------------------------------------
duskfalls_11_007:
	BYTE		N32     As2   v096
	BYTE		N32     Fs3 
	BYTE	W36
	BYTE		N23     As2 
	BYTE		N23     Ds3 
	BYTE	W24
	BYTE		N11     As2 
	BYTE		N11     Ds3 
	BYTE	W12
	BYTE		        Cs3 
	BYTE		N11     Fs3 
	BYTE	W12
	BYTE		N23     As2 
	BYTE	W24
	BYTE		N11     Cn3 
	BYTE		N11     Fn3 
	BYTE	W12
	BYTE		N23     As2 
	BYTE		N23     Ds3 
	BYTE	W24
	BYTE	PEND
// 008   ----------------------------------------
duskfalls_11_008:
	BYTE		N32     As2   v112
	BYTE		N32     Fs3 
	BYTE	W36
	BYTE		N23     As2 
	BYTE		N23     Ds3 
	BYTE	W24
	BYTE		N11     As2 
	BYTE		N11     Ds3 
	BYTE	W12
	BYTE		        Cs3 
	BYTE		N11     Gs3 
	BYTE	W12
	BYTE		N23     As2 
	BYTE	W24
	BYTE		N23   
	BYTE		N23     Ds3 
	BYTE	W24
	BYTE		N11     As2 
	BYTE		N11     Ds3 
	BYTE	W12
	BYTE	PEND
// 009   ----------------------------------------
duskfalls_11_009:
	BYTE		N32     As2   v112
	BYTE		N32     Fs3 
	BYTE	W36
	BYTE		N23     As2 
	BYTE		N23     Ds3 
	BYTE	W24
	BYTE		N11     As2 
	BYTE		N11     Ds3 
	BYTE	W12
	BYTE		        Cs3 
	BYTE		N11     Gs3 
	BYTE	W12
	BYTE		N23     As2 
	BYTE	W24
	BYTE		N11     Cn3 
	BYTE		N11     Fn3 
	BYTE	W12
	BYTE		N23     As2 
	BYTE		N23     Ds3 
	BYTE	W24
	BYTE	PEND
// 010   ----------------------------------------
	BYTE	PATT
	 POIN2	duskfalls_11_008
// 011   ----------------------------------------
duskfalls_11_011:
	BYTE		N32     As2   v112
	BYTE		N32     Fs3 
	BYTE	W36
	BYTE		N23     As2 
	BYTE		N23     Ds3 
	BYTE	W24
	BYTE		N11     As2 
	BYTE		N11     Ds3 
	BYTE	W12
	BYTE		        Cs3 
	BYTE		N11     Fs3 
	BYTE	W12
	BYTE		N23     As2 
	BYTE	W24
	BYTE		N11     Cn3 
	BYTE		N11     Fn3 
	BYTE	W12
	BYTE		N23     As2 
	BYTE		N23     Ds3 
	BYTE	W24
	BYTE	PEND
// 012   ----------------------------------------
duskfalls_11_012:
	BYTE		N11     Bn2   v096
	BYTE		N11     Fs3 
	BYTE	W12
	BYTE		N23     Bn2 
	BYTE		N23     Fs3 
	BYTE	W24
	BYTE		        Bn2 
	BYTE		N23     Fs3 
	BYTE	W24
	BYTE		N11     Bn2 
	BYTE		N11     Fs3 
	BYTE	W12
	BYTE		        Cs3 
	BYTE		N11     Gs3 
	BYTE	W12
	BYTE		N23     Cs3 
	BYTE		N23     Gs3 
	BYTE	W24
	BYTE		N32     Gs2 
	BYTE		N32     Ds3 
	BYTE	W36
	BYTE	PEND
// 013   ----------------------------------------
duskfalls_11_013:
	BYTE	W24
	BYTE		N11     Gs2   v096
	BYTE	W12
	BYTE		N23   
	BYTE		N23     Ds3 
	BYTE	W24
	BYTE		N11     Gs2 
	BYTE	W12
	BYTE		N23   
	BYTE		N23     Ds3 
	BYTE	W24
	BYTE		N11     Gs2 
	BYTE	W12
	BYTE		N11   
	BYTE		N11     Ds3 
	BYTE	W12
	BYTE		N23     Gs2 
	BYTE		N23     Ds3 
	BYTE	W24
	BYTE	PEND
// 014   ----------------------------------------
duskfalls_11_014:
	BYTE		N11     Bn2   v096
	BYTE		N11     Fs3 
	BYTE	W12
	BYTE		N23     Bn2 
	BYTE		N23     Fs3 
	BYTE	W24
	BYTE		        Bn2 
	BYTE		N23     Fs3 
	BYTE	W24
	BYTE		N11     Bn2 
	BYTE		N11     Fs3 
	BYTE	W12
	BYTE		        Cs3 
	BYTE		N11     Gs3 
	BYTE	W12
	BYTE		N23     Cs3 
	BYTE		N23     Gs3 
	BYTE	W24
	BYTE		N32     Cn3 
	BYTE		N32     Ds3 
	BYTE	W36
	BYTE	PEND
// 015   ----------------------------------------
duskfalls_11_015:
	BYTE	W24
	BYTE		N11     Ds3   v096
	BYTE	W12
	BYTE		N23     Gs2 
	BYTE		N23     Ds3 
	BYTE	W24
	BYTE		N11   
	BYTE	W12
	BYTE		N23     Gs2 
	BYTE		N23     Ds3 
	BYTE	W24
	BYTE		N11   
	BYTE	W12
	BYTE		        Gs2 
	BYTE		N11     Ds3 
	BYTE	W12
	BYTE		N23     Gs2 
	BYTE		N23     Ds3 
	BYTE	W24
	BYTE	PEND
// 016   ----------------------------------------
duskfalls_11_016:
	BYTE		N11     Bn2   v096
	BYTE		N11     En3 
	BYTE	W12
	BYTE		N23     Bn2 
	BYTE		N23     En3 
	BYTE	W24
	BYTE		        Bn2 
	BYTE		N23     En3 
	BYTE	W24
	BYTE		N11     Bn2 
	BYTE		N11     En3 
	BYTE	W12
	BYTE		        Cs3 
	BYTE		N11     Fs3 
	BYTE	W12
	BYTE		N23     Cs3 
	BYTE		N23     Fs3 
	BYTE	W24
	BYTE		N32     Cn3 
	BYTE		N32     Fn3 
	BYTE	W36
	BYTE	PEND
// 017   ----------------------------------------
duskfalls_11_017:
	BYTE	W24
	BYTE		N11     Gs2   v096
	BYTE	W12
	BYTE		N23   
	BYTE		N23     Cn3 
	BYTE	W24
	BYTE		N11   
	BYTE	W12
	BYTE		N23     Gs2 
	BYTE		N23     Cn3 
	BYTE	W24
	BYTE		N11   
	BYTE	W12
	BYTE		        Gs2 
	BYTE		N11     Ds3 
	BYTE	W12
	BYTE		N23     Gs2 
	BYTE		N23     Ds3 
	BYTE	W24
	BYTE	PEND
// 018   ----------------------------------------
duskfalls_11_018:
	BYTE		N11     Bn2   v096
	BYTE		N11     Fs3 
	BYTE	W12
	BYTE		N23     Bn2 
	BYTE		N23     Fs3 
	BYTE	W24
	BYTE		        Bn2 
	BYTE		N23     Fs3 
	BYTE	W24
	BYTE		N11     Bn2 
	BYTE		N11     Fs3 
	BYTE	W12
	BYTE		        Cs3 
	BYTE		N11     Fn3 
	BYTE	W12
	BYTE		N23     Cs3 
	BYTE		N23     Fn3 
	BYTE	W24
	BYTE		N32     As2 
	BYTE		N32     Ds3 
	BYTE	W36
	BYTE	PEND
// 019   ----------------------------------------
duskfalls_11_019:
	BYTE	W24
	BYTE		N11     As2   v096
	BYTE	W12
	BYTE		N23   
	BYTE		N23     Ds3 
	BYTE	W24
	BYTE		N11     As2 
	BYTE	W12
	BYTE		N23   
	BYTE		N23     Ds3 
	BYTE	W24
	BYTE		N11     As2 
	BYTE	W12
	BYTE		N11   
	BYTE		N11     Ds3 
	BYTE	W12
	BYTE		N23     As2 
	BYTE	W24
	BYTE	PEND
// 020   ----------------------------------------
duskfalls_11_020:
	BYTE		N68     As2   v080
	BYTE		N68     Ds3 
	BYTE	W72
	BYTE		        As2 
	BYTE		N68     Ds3 
	BYTE	W72
	BYTE	PEND
// 021   ----------------------------------------
duskfalls_11_021:
	BYTE		N68     As2   v080
	BYTE		N68     Ds3 
	BYTE	W72
	BYTE		        Gs2   v088
	BYTE		N68     Cs3 
	BYTE	W72
	BYTE	PEND
// 022   ----------------------------------------
duskfalls_11_022:
	BYTE		N68     Fs2   v096
	BYTE		N68     Bn2 
	BYTE	W72
	BYTE		        Gs2 
	BYTE		N68     Cs3 
	BYTE	W72
	BYTE	PEND
// 023   ----------------------------------------
duskfalls_11_023:
	BYTE		N56     Gs2   v096
	BYTE		N56     Cn3 
	BYTE	W60
	BYTE		N11     As2 
	BYTE		N11     Ds3 
	BYTE	W12
	BYTE		        Cn3 
	BYTE		N11     Gs3 
	BYTE	W12
	BYTE		N23     As2 
	BYTE	W24
	BYTE		N11     Cn3 
	BYTE		N11     Fn3 
	BYTE	W12
	BYTE		N23     As2 
	BYTE		N23     Ds3 
	BYTE	W24
	BYTE	PEND
// 024   ----------------------------------------
	BYTE	PATT
	 POIN2	duskfalls_11_008
// 025   ----------------------------------------
	BYTE	PATT
	 POIN2	duskfalls_11_009
// 026   ----------------------------------------
	BYTE	PATT
	 POIN2	duskfalls_11_008
// 027   ----------------------------------------
	BYTE	PATT
	 POIN2	duskfalls_11_011
// 028   ----------------------------------------
duskfalls_11_028:
	BYTE		N11     Bn2   v112
	BYTE		N11     Fs3 
	BYTE	W12
	BYTE		N23     Bn2 
	BYTE		N23     Fs3 
	BYTE	W24
	BYTE		        Bn2 
	BYTE		N23     Fs3 
	BYTE	W24
	BYTE		N11     Bn2 
	BYTE		N11     Fs3 
	BYTE	W12
	BYTE		        Cs3 
	BYTE		N11     Gs3 
	BYTE	W12
	BYTE		N23     Cs3 
	BYTE		N23     Gs3 
	BYTE	W24
	BYTE		N32     Gs2 
	BYTE		N32     Ds3 
	BYTE	W36
	BYTE	PEND
// 029   ----------------------------------------
duskfalls_11_029:
	BYTE	W24
	BYTE		N11     Gs2   v112
	BYTE	W12
	BYTE		N23   
	BYTE		N23     Ds3 
	BYTE	W24
	BYTE		N11     Gs2 
	BYTE	W12
	BYTE		N23   
	BYTE		N23     Ds3 
	BYTE	W24
	BYTE		N11     Gs2 
	BYTE	W12
	BYTE		N11   
	BYTE		N11     Ds3 
	BYTE	W12
	BYTE		N23     Gs2 
	BYTE		N23     Ds3 
	BYTE	W24
	BYTE	PEND
// 030   ----------------------------------------
duskfalls_11_030:
	BYTE		N11     Bn2   v112
	BYTE		N11     Fs3 
	BYTE	W12
	BYTE		N23     Bn2 
	BYTE		N23     Fs3 
	BYTE	W24
	BYTE		        Bn2 
	BYTE		N23     Fs3 
	BYTE	W24
	BYTE		N11     Bn2 
	BYTE		N11     Fs3 
	BYTE	W12
	BYTE		        Cs3 
	BYTE		N11     Gs3 
	BYTE	W12
	BYTE		N23     Cs3 
	BYTE		N23     Gs3 
	BYTE	W24
	BYTE		N32     Cn3 
	BYTE		N32     Ds3 
	BYTE	W36
	BYTE	PEND
// 031   ----------------------------------------
duskfalls_11_031:
	BYTE	W24
	BYTE		N11     Ds3   v112
	BYTE	W12
	BYTE		N23     Gs2 
	BYTE		N23     Ds3 
	BYTE	W24
	BYTE		N11   
	BYTE	W12
	BYTE		N23     Gs2 
	BYTE		N23     Ds3 
	BYTE	W24
	BYTE		N11   
	BYTE	W12
	BYTE		        Gs2 
	BYTE		N11     Ds3 
	BYTE	W12
	BYTE		N23     Gs2 
	BYTE		N23     Ds3 
	BYTE	W24
	BYTE	PEND
// 032   ----------------------------------------
duskfalls_11_032:
	BYTE		N11     Bn2   v112
	BYTE		N11     En3 
	BYTE	W12
	BYTE		N23     Bn2 
	BYTE		N23     En3 
	BYTE	W24
	BYTE		        Bn2 
	BYTE		N23     En3 
	BYTE	W24
	BYTE		N11     Bn2 
	BYTE		N11     En3 
	BYTE	W12
	BYTE		        Cs3 
	BYTE		N11     Fs3 
	BYTE	W12
	BYTE		N23     Cs3 
	BYTE		N23     Fs3 
	BYTE	W24
	BYTE		N32     Cn3 
	BYTE		N32     Fn3 
	BYTE	W36
	BYTE	PEND
// 033   ----------------------------------------
duskfalls_11_033:
	BYTE	W24
	BYTE		N11     Gs2   v112
	BYTE	W12
	BYTE		N23   
	BYTE		N23     Cn3 
	BYTE	W24
	BYTE		N11   
	BYTE	W12
	BYTE		N23     Gs2 
	BYTE		N23     Cn3 
	BYTE	W24
	BYTE		N11   
	BYTE	W12
	BYTE		        Gs2 
	BYTE		N11     Ds3 
	BYTE	W12
	BYTE		N23     Gs2 
	BYTE		N23     Ds3 
	BYTE	W24
	BYTE	PEND
// 034   ----------------------------------------
duskfalls_11_034:
	BYTE		N11     Bn2   v112
	BYTE		N11     Fs3 
	BYTE	W12
	BYTE		N23     Bn2 
	BYTE		N23     Fs3 
	BYTE	W24
	BYTE		        Bn2 
	BYTE		N23     Fs3 
	BYTE	W24
	BYTE		N11     Bn2 
	BYTE		N11     Fs3 
	BYTE	W12
	BYTE		        Cs3 
	BYTE		N11     Fn3 
	BYTE	W12
	BYTE		N23     Cs3 
	BYTE		N23     Fn3 
	BYTE	W24
	BYTE		N32     As2 
	BYTE		N32     Ds3 
	BYTE	W36
	BYTE	PEND
// 035   ----------------------------------------
duskfalls_11_035:
	BYTE	W24
	BYTE		N11     As2   v112
	BYTE	W12
	BYTE		N23   
	BYTE		N23     Ds3 
	BYTE	W24
	BYTE		N11     As2 
	BYTE	W12
	BYTE		N23   
	BYTE		N23     Ds3 
	BYTE	W24
	BYTE		N11     As2 
	BYTE	W12
	BYTE		N11   
	BYTE		N11     Ds3 
	BYTE	W12
	BYTE		N23     As2 
	BYTE	W24
	BYTE	PEND
// 036   ----------------------------------------
duskfalls_11_036:
	BYTE		N56     Cs3   v096
	BYTE	W60
	BYTE		N11     Gs2 
	BYTE	W12
	BYTE		N23     Cs3 
	BYTE	W24
	BYTE		N11     Gs2 
	BYTE	W12
	BYTE		N23     Cs3 
	BYTE	W24
	BYTE		N11     Gs2 
	BYTE	W12
	BYTE	PEND
// 037   ----------------------------------------
duskfalls_11_037:
	BYTE		N56     Ds3   v096
	BYTE	W60
	BYTE		N11     Gs2 
	BYTE	W12
	BYTE		N23     Ds3 
	BYTE	W24
	BYTE		N11     Gs2 
	BYTE	W12
	BYTE		        Ds3 
	BYTE	W12
	BYTE		N23   
	BYTE	W24
	BYTE	PEND
// 038   ----------------------------------------
duskfalls_11_038:
	BYTE		N56     Cs3   v096
	BYTE	W60
	BYTE		N11     Gs2 
	BYTE	W12
	BYTE		        Cs3 
	BYTE	W12
	BYTE		N23   
	BYTE	W24
	BYTE		N23   
	BYTE	W24
	BYTE		N11     Gs2 
	BYTE	W12
	BYTE	PEND
// 039   ----------------------------------------
duskfalls_11_039:
	BYTE		N56     Ds3   v096
	BYTE	W60
	BYTE		N11     Gs2 
	BYTE	W12
	BYTE		        Ds3 
	BYTE	W12
	BYTE		N11   
	BYTE	W12
	BYTE		        Gs2 
	BYTE	W12
	BYTE		N23     Ds3 
	BYTE	W24
	BYTE		N11     Gs2 
	BYTE	W12
	BYTE	PEND
// 040   ----------------------------------------
	BYTE	PATT
	 POIN2	duskfalls_11_036
// 041   ----------------------------------------
duskfalls_11_041:
	BYTE		N56     Ds3   v096
	BYTE	W60
	BYTE		N11     Gs2 
	BYTE	W12
	BYTE		N23     Ds3 
	BYTE	W24
	BYTE		N11     Gs2 
	BYTE	W12
	BYTE		        Cs3 
	BYTE	W12
	BYTE		N23   
	BYTE	W24
	BYTE	PEND
// 042   ----------------------------------------
duskfalls_11_042:
	BYTE		TIE     Bn2   v096
	BYTE		TIE     Ds3 
	BYTE	W96
	BYTE	W44
	BYTE	W03
	BYTE	PEND
	BYTE		EOT     Bn2 
	BYTE		        Ds3 
	BYTE	W01
// 043   ----------------------------------------
duskfalls_11_043:
	BYTE		N68     Cs3   v096
	BYTE		N68     Fn3 
	BYTE	W72
	BYTE		N32     As2 
	BYTE		N32     Ds3 
	BYTE	W36
	BYTE		        Gs2 
	BYTE		N32     Cs3 
	BYTE	W36
	BYTE	PEND
// 044   ----------------------------------------
	BYTE	PATT
	 POIN2	duskfalls_11_036
// 045   ----------------------------------------
	BYTE	PATT
	 POIN2	duskfalls_11_037
// 046   ----------------------------------------
	BYTE	PATT
	 POIN2	duskfalls_11_038
// 047   ----------------------------------------
	BYTE	PATT
	 POIN2	duskfalls_11_039
// 048   ----------------------------------------
duskfalls_11_048:
	BYTE		N56     Cs3   v096
	BYTE	W60
	BYTE		N11     Gs2   v104
	BYTE	W12
	BYTE		N23     Cs3 
	BYTE	W24
	BYTE		N11     Gs2   v108
	BYTE	W12
	BYTE		N23     Cs3 
	BYTE	W24
	BYTE		N11     Gs2   v112
	BYTE	W12
	BYTE	PEND
// 049   ----------------------------------------
duskfalls_11_049:
	BYTE		N56     Ds3   v112
	BYTE	W60
	BYTE		N11     Gs2 
	BYTE	W12
	BYTE		N23     Ds3 
	BYTE	W24
	BYTE		N11     Gs2 
	BYTE	W12
	BYTE		        Cs3 
	BYTE	W12
	BYTE		N23   
	BYTE	W24
	BYTE	PEND
// 050   ----------------------------------------
duskfalls_11_050:
	BYTE		TIE     Bn2   v112
	BYTE		TIE     Ds3 
	BYTE	W96
	BYTE	W44
	BYTE	W03
	BYTE	PEND
	BYTE		EOT     Bn2 
	BYTE		        Ds3 
	BYTE	W01
// 051   ----------------------------------------
duskfalls_11_051:
	BYTE		N68     Cs3   v112
	BYTE		N68     Fn3 
	BYTE	W72
	BYTE		N32     As2 
	BYTE		N32     Ds3 
	BYTE	W36
	BYTE		        Gs2 
	BYTE		N32     Cs3 
	BYTE	W36
	BYTE	PEND
// 052   ----------------------------------------
duskfalls_11_052:
	BYTE		N11     As2   v112
	BYTE		N11     Ds3 
	BYTE	W12
	BYTE		        As2 
	BYTE	W12
	BYTE		N11   
	BYTE	W12
	BYTE		N23   
	BYTE	W24
	BYTE		N11   
	BYTE	W12
	BYTE		N11   
	BYTE		N11     Gs3 
	BYTE	W12
	BYTE		N23     As2 
	BYTE	W24
	BYTE		N23   
	BYTE	W24
	BYTE		N11   
	BYTE	W12
	BYTE	PEND
// 053   ----------------------------------------
duskfalls_11_053:
	BYTE		N11     As2   v112
	BYTE		N11     Gn3 
	BYTE	W12
	BYTE		N23     As2 
	BYTE	W24
	BYTE		N23   
	BYTE	W24
	BYTE		N11   
	BYTE	W12
	BYTE		N11   
	BYTE		N11     As3 
	BYTE	W12
	BYTE		N23     As2 
	BYTE	W24
	BYTE		N23   
	BYTE	W24
	BYTE		N11   
	BYTE	W12
	BYTE	PEND
// 054   ----------------------------------------
duskfalls_11_054:
	BYTE		N32     Cn3   v112
	BYTE		N32     Fn3 
	BYTE	W36
	BYTE		N23     Cn3 
	BYTE	W24
	BYTE		N11   
	BYTE	W12
	BYTE		N11   
	BYTE		N11     Fn3 
	BYTE	W12
	BYTE		N23     Cn3 
	BYTE	W24
	BYTE		N23   
	BYTE		N23     Fn3 
	BYTE	W24
	BYTE		N11     Cn3 
	BYTE		N11     Fn3 
	BYTE	W12
	BYTE	PEND
// 055   ----------------------------------------
duskfalls_11_055:
	BYTE		N32     Fn3   v112
	BYTE		N32     Gs3 
	BYTE	W36
	BYTE		N23     Gs2 
	BYTE		N23     Fn3 
	BYTE	W24
	BYTE		N11     Gs2 
	BYTE		N11     Fn3 
	BYTE	W12
	BYTE		        Cs3 
	BYTE		N11     Fn3 
	BYTE	W12
	BYTE		N23     Gs2 
	BYTE	W24
	BYTE		N11     Cs3 
	BYTE		N11     Fn3 
	BYTE	W12
	BYTE		N23     Gs2 
	BYTE		N23     Ds3 
	BYTE	W24
	BYTE	PEND
// 056   ----------------------------------------
duskfalls_11_056:
	BYTE		N32     Fn3   v112
	BYTE		N32     Gs3 
	BYTE	W36
	BYTE		N23     As2 
	BYTE		N23     Fn3 
	BYTE	W24
	BYTE		N11     As2 
	BYTE		N11     Fn3 
	BYTE	W12
	BYTE		N11   
	BYTE		N11     Gs3 
	BYTE	W12
	BYTE		N23     As2 
	BYTE	W24
	BYTE		N23   
	BYTE		N23     Fn3 
	BYTE	W24
	BYTE		N11     As2 
	BYTE		N11     Fn3 
	BYTE	W12
	BYTE	PEND
// 057   ----------------------------------------
duskfalls_11_057:
	BYTE		N32     As2   v112
	BYTE		N32     Gs3 
	BYTE	W36
	BYTE		N23     As2 
	BYTE		N23     Fn3 
	BYTE	W24
	BYTE		N11     As2 
	BYTE		N11     Fn3 
	BYTE	W12
	BYTE		        As2 
	BYTE		N11     Fn3 
	BYTE	W12
	BYTE		N23     As2 
	BYTE	W24
	BYTE		N11   
	BYTE		N11     Fn3 
	BYTE	W12
	BYTE		N23     Cs3 
	BYTE		N23     Fs3 
	BYTE	W24
	BYTE	PEND
// 058   ----------------------------------------
	BYTE	PATT
	 POIN2	duskfalls_11_054
// 059   ----------------------------------------
	BYTE	PATT
	 POIN2	duskfalls_11_055
// 060   ----------------------------------------
	BYTE	PATT
	 POIN2	duskfalls_11_056
// 061   ----------------------------------------
	BYTE	PATT
	 POIN2	duskfalls_11_057
// 062   ----------------------------------------
	BYTE	PATT
	 POIN2	duskfalls_11_054
// 063   ----------------------------------------
	BYTE	PATT
	 POIN2	duskfalls_11_055
// 064   ----------------------------------------
	BYTE	PATT
	 POIN2	duskfalls_11_056
// 065   ----------------------------------------
duskfalls_11_065:
	BYTE		N32     Cn3   v112
	BYTE		N32     Gs3 
	BYTE	W36
	BYTE		N23     Cn3 
	BYTE		N23     Fn3 
	BYTE	W24
	BYTE		N11     Cn3 
	BYTE		N11     Fn3 
	BYTE	W12
	BYTE		        Cn3 
	BYTE		N11     Fn3 
	BYTE	W12
	BYTE		N23     Cn3 
	BYTE	W24
	BYTE		N11   
	BYTE		N11     Fn3 
	BYTE	W12
	BYTE		N23     As2 
	BYTE		N23     Gn3 
	BYTE	W24
	BYTE	PEND
// 066   ----------------------------------------
	BYTE	PATT
	 POIN2	duskfalls_11_054
// 067   ----------------------------------------
	BYTE	PATT
	 POIN2	duskfalls_11_055
// 068   ----------------------------------------
	BYTE	PATT
	 POIN2	duskfalls_11_056
// 069   ----------------------------------------
	BYTE	PATT
	 POIN2	duskfalls_11_065
// 070   ----------------------------------------
duskfalls_11_070:
	BYTE		N23     Fn3   v112
	BYTE	W24
	BYTE		N11     Ds3 
	BYTE	W12
	BYTE		        Fn3 
	BYTE	W12
	BYTE		        Gn3 
	BYTE	W12
	BYTE		        Gs3 
	BYTE	W12
	BYTE		N32     Gn3 
	BYTE	W36
	BYTE		        Fn3 
	BYTE	W36
	BYTE	PEND
// 071   ----------------------------------------
duskfalls_11_071:
	BYTE	W24
	BYTE		N11     Cn3   v112
	BYTE	W12
	BYTE		        Fn3 
	BYTE	W12
	BYTE		        Ds3 
	BYTE	W12
	BYTE		        Cn3 
	BYTE	W12
	BYTE		N23     Fn3 
	BYTE	W24
	BYTE		N11     Cn3 
	BYTE	W12
	BYTE		        Fn3 
	BYTE	W12
	BYTE		N23   
	BYTE	W24
	BYTE	PEND
// 072   ----------------------------------------
	BYTE	PATT
	 POIN2	duskfalls_11_070
// 073   ----------------------------------------
duskfalls_11_073:
	BYTE	W24
	BYTE		N11     As2   v112
	BYTE	W12
	BYTE		        Ds3 
	BYTE	W12
	BYTE		        As2 
	BYTE	W12
	BYTE		        As2   v108
	BYTE	W12
	BYTE		N23     Ds3 
	BYTE	W24
	BYTE		N11     As2   v104
	BYTE	W12
	BYTE		        Ds3 
	BYTE	W12
	BYTE		N23     As2   v100
	BYTE	W24
	BYTE	PEND
// 074   ----------------------------------------
duskfalls_11_074:
	BYTE		N23     Fn3   v096
	BYTE	W24
	BYTE		N11     Ds3 
	BYTE	W12
	BYTE		        Fn3 
	BYTE	W12
	BYTE		        Gn3 
	BYTE	W12
	BYTE		        Gs3 
	BYTE	W12
	BYTE		N32     Gn3 
	BYTE	W36
	BYTE		        Fn3 
	BYTE	W36
	BYTE	PEND
// 075   ----------------------------------------
duskfalls_11_075:
	BYTE	W24
	BYTE		N11     Cn3   v096
	BYTE	W12
	BYTE		        Fn3 
	BYTE	W12
	BYTE		        Cn3 
	BYTE	W12
	BYTE		        Cn3   v092
	BYTE	W12
	BYTE		N23     Ds3 
	BYTE	W24
	BYTE		N11     Cn3   v088
	BYTE	W12
	BYTE		        Ds3 
	BYTE	W12
	BYTE		N23     Cn3   v084
	BYTE	W24
	BYTE	PEND
// 076   ----------------------------------------
duskfalls_11_076:
	BYTE		N11     Ds3   v080
	BYTE	W12
	BYTE		        As2 
	BYTE	W12
	BYTE		        Gs2 
	BYTE	W12
	BYTE		N23     Ds3 
	BYTE	W24
	BYTE		N11     As2 
	BYTE	W12
	BYTE		N23     Ds3 
	BYTE	W24
	BYTE		N11     As2 
	BYTE	W12
	BYTE		        Ds3 
	BYTE	W12
	BYTE		N23     As2 
	BYTE	W24
	BYTE	PEND
// 077   ----------------------------------------
	BYTE		        Ds3 
	BYTE	W24
	BYTE		N11     As2 
	BYTE	W12
	BYTE		        Ds3 
	BYTE	W12
	BYTE		        As2 
	BYTE	W12
	BYTE		        Gs2 
	BYTE	W12
	BYTE		N23     As2 
	BYTE	W24
	BYTE		N11     Gs2 
	BYTE	W12
	BYTE		        Ds3 
	BYTE	W12
	BYTE		N23     As2 
	BYTE	W24
// 078   ----------------------------------------
	BYTE	PATT
	 POIN2	duskfalls_11_002
// 079   ----------------------------------------
	BYTE	PATT
	 POIN2	duskfalls_11_001
// 080   ----------------------------------------
	BYTE	PATT
	 POIN2	duskfalls_11_002
// 081   ----------------------------------------
	BYTE	PATT
	 POIN2	duskfalls_11_001
// 082   ----------------------------------------
	BYTE	PATT
	 POIN2	duskfalls_11_004
// 083   ----------------------------------------
	BYTE	PATT
	 POIN2	duskfalls_11_005
// 084   ----------------------------------------
	BYTE	PATT
	 POIN2	duskfalls_11_002
// 085   ----------------------------------------
	BYTE	PATT
	 POIN2	duskfalls_11_007
// 086   ----------------------------------------
	BYTE	PATT
	 POIN2	duskfalls_11_008
// 087   ----------------------------------------
	BYTE	PATT
	 POIN2	duskfalls_11_009
// 088   ----------------------------------------
	BYTE	PATT
	 POIN2	duskfalls_11_008
// 089   ----------------------------------------
	BYTE	PATT
	 POIN2	duskfalls_11_011
// 090   ----------------------------------------
	BYTE	PATT
	 POIN2	duskfalls_11_012
// 091   ----------------------------------------
	BYTE	PATT
	 POIN2	duskfalls_11_013
// 092   ----------------------------------------
	BYTE	PATT
	 POIN2	duskfalls_11_014
// 093   ----------------------------------------
	BYTE	PATT
	 POIN2	duskfalls_11_015
// 094   ----------------------------------------
	BYTE	PATT
	 POIN2	duskfalls_11_016
// 095   ----------------------------------------
	BYTE	PATT
	 POIN2	duskfalls_11_017
// 096   ----------------------------------------
	BYTE	PATT
	 POIN2	duskfalls_11_018
// 097   ----------------------------------------
	BYTE	PATT
	 POIN2	duskfalls_11_019
// 098   ----------------------------------------
	BYTE	PATT
	 POIN2	duskfalls_11_020
// 099   ----------------------------------------
	BYTE	PATT
	 POIN2	duskfalls_11_021
// 100   ----------------------------------------
	BYTE	PATT
	 POIN2	duskfalls_11_022
// 101   ----------------------------------------
	BYTE	PATT
	 POIN2	duskfalls_11_023
// 102   ----------------------------------------
	BYTE	PATT
	 POIN2	duskfalls_11_008
// 103   ----------------------------------------
	BYTE	PATT
	 POIN2	duskfalls_11_009
// 104   ----------------------------------------
	BYTE	PATT
	 POIN2	duskfalls_11_008
// 105   ----------------------------------------
	BYTE	PATT
	 POIN2	duskfalls_11_011
// 106   ----------------------------------------
	BYTE	PATT
	 POIN2	duskfalls_11_028
// 107   ----------------------------------------
	BYTE	PATT
	 POIN2	duskfalls_11_029
// 108   ----------------------------------------
	BYTE	PATT
	 POIN2	duskfalls_11_030
// 109   ----------------------------------------
	BYTE	PATT
	 POIN2	duskfalls_11_031
// 110   ----------------------------------------
	BYTE	PATT
	 POIN2	duskfalls_11_032
// 111   ----------------------------------------
	BYTE	PATT
	 POIN2	duskfalls_11_033
// 112   ----------------------------------------
	BYTE	PATT
	 POIN2	duskfalls_11_034
// 113   ----------------------------------------
	BYTE	PATT
	 POIN2	duskfalls_11_035
// 114   ----------------------------------------
	BYTE	PATT
	 POIN2	duskfalls_11_036
// 115   ----------------------------------------
	BYTE	PATT
	 POIN2	duskfalls_11_037
// 116   ----------------------------------------
	BYTE	PATT
	 POIN2	duskfalls_11_038
// 117   ----------------------------------------
	BYTE	PATT
	 POIN2	duskfalls_11_039
// 118   ----------------------------------------
	BYTE	PATT
	 POIN2	duskfalls_11_036
// 119   ----------------------------------------
	BYTE	PATT
	 POIN2	duskfalls_11_041
// 120   ----------------------------------------
	BYTE	PATT
	 POIN2	duskfalls_11_042
	BYTE		EOT     Bn2 
	BYTE		        Ds3 
	BYTE	W01
// 121   ----------------------------------------
	BYTE	PATT
	 POIN2	duskfalls_11_043
// 122   ----------------------------------------
	BYTE	PATT
	 POIN2	duskfalls_11_036
// 123   ----------------------------------------
	BYTE	PATT
	 POIN2	duskfalls_11_037
// 124   ----------------------------------------
	BYTE	PATT
	 POIN2	duskfalls_11_038
// 125   ----------------------------------------
	BYTE	PATT
	 POIN2	duskfalls_11_039
// 126   ----------------------------------------
	BYTE	PATT
	 POIN2	duskfalls_11_048
// 127   ----------------------------------------
	BYTE	PATT
	 POIN2	duskfalls_11_049
// 128   ----------------------------------------
	BYTE	PATT
	 POIN2	duskfalls_11_050
	BYTE		EOT     Bn2 
	BYTE		        Ds3 
	BYTE	W01
// 129   ----------------------------------------
	BYTE	PATT
	 POIN2	duskfalls_11_051
// 130   ----------------------------------------
	BYTE	PATT
	 POIN2	duskfalls_11_052
// 131   ----------------------------------------
	BYTE	PATT
	 POIN2	duskfalls_11_053
// 132   ----------------------------------------
	BYTE	PATT
	 POIN2	duskfalls_11_054
// 133   ----------------------------------------
	BYTE	PATT
	 POIN2	duskfalls_11_055
// 134   ----------------------------------------
	BYTE	PATT
	 POIN2	duskfalls_11_056
// 135   ----------------------------------------
	BYTE	PATT
	 POIN2	duskfalls_11_057
// 136   ----------------------------------------
	BYTE	PATT
	 POIN2	duskfalls_11_054
// 137   ----------------------------------------
	BYTE	PATT
	 POIN2	duskfalls_11_055
// 138   ----------------------------------------
	BYTE	PATT
	 POIN2	duskfalls_11_056
// 139   ----------------------------------------
	BYTE	PATT
	 POIN2	duskfalls_11_057
// 140   ----------------------------------------
	BYTE	PATT
	 POIN2	duskfalls_11_054
// 141   ----------------------------------------
	BYTE	PATT
	 POIN2	duskfalls_11_055
// 142   ----------------------------------------
	BYTE	PATT
	 POIN2	duskfalls_11_056
// 143   ----------------------------------------
	BYTE	PATT
	 POIN2	duskfalls_11_065
// 144   ----------------------------------------
	BYTE	PATT
	 POIN2	duskfalls_11_054
// 145   ----------------------------------------
	BYTE	PATT
	 POIN2	duskfalls_11_055
// 146   ----------------------------------------
	BYTE	PATT
	 POIN2	duskfalls_11_056
// 147   ----------------------------------------
	BYTE	PATT
	 POIN2	duskfalls_11_065
	BYTE	GoTo
	 POIN2	duskfalls_11_B1
duskfalls_11_B2:
// 148   ----------------------------------------
	BYTE	PATT
	 POIN2	duskfalls_11_070
// 149   ----------------------------------------
	BYTE	PATT
	 POIN2	duskfalls_11_071
// 150   ----------------------------------------
	BYTE	PATT
	 POIN2	duskfalls_11_070
// 151   ----------------------------------------
	BYTE	PATT
	 POIN2	duskfalls_11_073
// 152   ----------------------------------------
	BYTE	PATT
	 POIN2	duskfalls_11_074
// 153   ----------------------------------------
	BYTE	PATT
	 POIN2	duskfalls_11_075
// 154   ----------------------------------------
	BYTE	PATT
	 POIN2	duskfalls_11_076
// 155   ----------------------------------------
	BYTE		N23     Ds3   v080
	BYTE	W24
	BYTE		N11     As2 
	BYTE	W12
	BYTE		        Ds3 
	BYTE	W12
	BYTE		        As2 
	BYTE	W12
	BYTE		        Gs2 
	BYTE	W12
	BYTE		N23     As2 
	BYTE	W24
	BYTE		N11     Gs2 
	BYTE	W12
	BYTE		        Ds3 
	BYTE	W12
	BYTE		N23     As2 
	BYTE	W23
	BYTE	FINE

//**************** Track 12 (Midi-Chn.13) ****************//

duskfalls_12:
	BYTE	KEYSH   duskfalls_key+0
// 000   ----------------------------------------
	BYTE		VOICE   33
	BYTE		VOL     100*duskfalls_mvl/mxv
	BYTE		PAN     c_v+0
	BYTE		N11     Ds3   v096
	BYTE	W12
	BYTE		N11   
	BYTE	W12
	BYTE		N11   
	BYTE	W12
	BYTE		N23   
	BYTE	W24
	BYTE		N11   
	BYTE	W12
	BYTE		N11   
	BYTE	W12
	BYTE		N11   
	BYTE	W12
	BYTE		N11   
	BYTE	W12
	BYTE		N23   
	BYTE	W24
	BYTE		N11   
	BYTE	W12
// 001   ----------------------------------------
duskfalls_12_001:
	BYTE		N11     Ds3   v096
	BYTE	W12
	BYTE		N11   
	BYTE	W12
	BYTE		N11   
	BYTE	W12
	BYTE		N23   
	BYTE	W24
	BYTE		N11   
	BYTE	W12
	BYTE		N11   
	BYTE	W12
	BYTE		N11   
	BYTE	W12
	BYTE		N11   
	BYTE	W12
	BYTE		N23   
	BYTE	W24
	BYTE		N11   
	BYTE	W12
	BYTE	PEND
// 002   ----------------------------------------
	BYTE	PATT
	 POIN2	duskfalls_12_001
// 003   ----------------------------------------
	BYTE	PATT
	 POIN2	duskfalls_12_001
duskfalls_12_B1:
// 004   ----------------------------------------
	BYTE	PATT
	 POIN2	duskfalls_12_001
// 005   ----------------------------------------
	BYTE	PATT
	 POIN2	duskfalls_12_001
// 006   ----------------------------------------
duskfalls_12_006:
	BYTE		N11     Bn2   v096
	BYTE	W12
	BYTE		N11   
	BYTE	W12
	BYTE		N11   
	BYTE	W12
	BYTE		N23   
	BYTE	W24
	BYTE		N11   
	BYTE	W12
	BYTE		        Cs3 
	BYTE	W12
	BYTE		N11   
	BYTE	W12
	BYTE		N11   
	BYTE	W12
	BYTE		N23   
	BYTE	W24
	BYTE		N11   
	BYTE	W12
	BYTE	PEND
// 007   ----------------------------------------
	BYTE	PATT
	 POIN2	duskfalls_12_001
// 008   ----------------------------------------
duskfalls_12_008:
	BYTE		N11     Ds3   v112
	BYTE	W12
	BYTE		N11   
	BYTE	W12
	BYTE		N11   
	BYTE	W12
	BYTE		N23   
	BYTE	W24
	BYTE		N11   
	BYTE	W12
	BYTE		N11   
	BYTE	W12
	BYTE		N11   
	BYTE	W12
	BYTE		N11   
	BYTE	W12
	BYTE		N23   
	BYTE	W24
	BYTE		N11   
	BYTE	W12
	BYTE	PEND
// 009   ----------------------------------------
duskfalls_12_009:
	BYTE		N11     Ds3   v112
	BYTE	W12
	BYTE		N11   
	BYTE	W12
	BYTE		N11   
	BYTE	W12
	BYTE		N23   
	BYTE	W24
	BYTE		N11   
	BYTE	W12
	BYTE		N11   
	BYTE	W12
	BYTE		N11   
	BYTE	W12
	BYTE		N11   
	BYTE	W12
	BYTE		N23     Cs3 
	BYTE	W24
	BYTE		N11   
	BYTE	W12
	BYTE	PEND
// 010   ----------------------------------------
duskfalls_12_010:
	BYTE		N11     Bn2   v112
	BYTE	W12
	BYTE		N11   
	BYTE	W12
	BYTE		N11   
	BYTE	W12
	BYTE		N23   
	BYTE	W24
	BYTE		N11   
	BYTE	W12
	BYTE		        Cs3 
	BYTE	W12
	BYTE		N11   
	BYTE	W12
	BYTE		N11   
	BYTE	W12
	BYTE		N23   
	BYTE	W24
	BYTE		N11   
	BYTE	W12
	BYTE	PEND
// 011   ----------------------------------------
	BYTE	PATT
	 POIN2	duskfalls_12_008
// 012   ----------------------------------------
duskfalls_12_012:
	BYTE		N11     Ds3   v096
	BYTE	W12
	BYTE		N11   
	BYTE	W12
	BYTE		N11   
	BYTE	W12
	BYTE		N23   
	BYTE	W24
	BYTE		N11   
	BYTE	W12
	BYTE		N11   
	BYTE	W12
	BYTE		N11   
	BYTE	W12
	BYTE		N11   
	BYTE	W12
	BYTE		N32   
	BYTE	W36
	BYTE	PEND
// 013   ----------------------------------------
duskfalls_12_013:
	BYTE		N32     Ds3   v096
	BYTE	W36
	BYTE		N11   
	BYTE	W12
	BYTE		N11   
	BYTE	W12
	BYTE		N11   
	BYTE	W12
	BYTE		N23   
	BYTE	W24
	BYTE		N11   
	BYTE	W12
	BYTE		N11   
	BYTE	W12
	BYTE		N11   
	BYTE	W12
	BYTE		N11   
	BYTE	W12
	BYTE	PEND
// 014   ----------------------------------------
	BYTE	PATT
	 POIN2	duskfalls_12_012
// 015   ----------------------------------------
	BYTE	PATT
	 POIN2	duskfalls_12_013
// 016   ----------------------------------------
	BYTE	PATT
	 POIN2	duskfalls_12_012
// 017   ----------------------------------------
	BYTE	PATT
	 POIN2	duskfalls_12_013
// 018   ----------------------------------------
duskfalls_12_018:
	BYTE		N11     Bn2   v096
	BYTE	W12
	BYTE		N11   
	BYTE	W12
	BYTE		N11   
	BYTE	W12
	BYTE		N23   
	BYTE	W24
	BYTE		N11   
	BYTE	W12
	BYTE		        Cs3 
	BYTE	W12
	BYTE		N23   
	BYTE	W24
	BYTE		N32     Ds3 
	BYTE	W36
	BYTE	PEND
// 019   ----------------------------------------
duskfalls_12_019:
	BYTE	W24
	BYTE		N11     Ds3   v096
	BYTE	W12
	BYTE		N11   
	BYTE	W12
	BYTE		N11   
	BYTE	W12
	BYTE		N11   
	BYTE	W12
	BYTE		N23   
	BYTE	W24
	BYTE		N11   
	BYTE	W12
	BYTE		N11   
	BYTE	W12
	BYTE		N23   
	BYTE	W24
	BYTE	PEND
// 020   ----------------------------------------
duskfalls_12_020:
	BYTE		N68     As2   v080
	BYTE		N68     Fs3 
	BYTE	W72
	BYTE		        As2 
	BYTE		N68     Fn3 
	BYTE	W72
	BYTE	PEND
// 021   ----------------------------------------
duskfalls_12_021:
	BYTE		N68     As2   v080
	BYTE		N68     Fs3 
	BYTE	W72
	BYTE		        As2   v088
	BYTE		N68     Fn3 
	BYTE	W72
	BYTE	PEND
// 022   ----------------------------------------
duskfalls_12_022:
	BYTE		N68     Bn2   v096
	BYTE		N68     Fs3 
	BYTE	W72
	BYTE		        Cs3 
	BYTE		N68     Gs3 
	BYTE	W72
	BYTE	PEND
// 023   ----------------------------------------
duskfalls_12_023:
	BYTE		N56     Cn3   v096
	BYTE		N56     Gs3 
	BYTE	W60
	BYTE		N11     Ds3 
	BYTE	W12
	BYTE		N11   
	BYTE	W12
	BYTE		N11   
	BYTE	W12
	BYTE		N11   
	BYTE	W12
	BYTE		N23   
	BYTE	W24
	BYTE		N11   
	BYTE	W12
	BYTE	PEND
// 024   ----------------------------------------
	BYTE	PATT
	 POIN2	duskfalls_12_008
// 025   ----------------------------------------
	BYTE	PATT
	 POIN2	duskfalls_12_009
// 026   ----------------------------------------
	BYTE	PATT
	 POIN2	duskfalls_12_010
// 027   ----------------------------------------
	BYTE	PATT
	 POIN2	duskfalls_12_008
// 028   ----------------------------------------
duskfalls_12_028:
	BYTE		N11     Ds3   v112
	BYTE	W12
	BYTE		N11   
	BYTE	W12
	BYTE		N11   
	BYTE	W12
	BYTE		N23   
	BYTE	W24
	BYTE		N11   
	BYTE	W12
	BYTE		N11   
	BYTE	W12
	BYTE		N11   
	BYTE	W12
	BYTE		N11   
	BYTE	W12
	BYTE		N32   
	BYTE	W36
	BYTE	PEND
// 029   ----------------------------------------
duskfalls_12_029:
	BYTE		N32     Ds3   v112
	BYTE	W36
	BYTE		N11   
	BYTE	W12
	BYTE		N11   
	BYTE	W12
	BYTE		N11   
	BYTE	W12
	BYTE		N23   
	BYTE	W24
	BYTE		N11   
	BYTE	W12
	BYTE		N11   
	BYTE	W12
	BYTE		N11   
	BYTE	W12
	BYTE		N11   
	BYTE	W12
	BYTE	PEND
// 030   ----------------------------------------
	BYTE	PATT
	 POIN2	duskfalls_12_028
// 031   ----------------------------------------
	BYTE	PATT
	 POIN2	duskfalls_12_029
// 032   ----------------------------------------
	BYTE	PATT
	 POIN2	duskfalls_12_028
// 033   ----------------------------------------
	BYTE	PATT
	 POIN2	duskfalls_12_029
// 034   ----------------------------------------
duskfalls_12_034:
	BYTE		N11     Bn2   v112
	BYTE	W12
	BYTE		N11   
	BYTE	W12
	BYTE		N11   
	BYTE	W12
	BYTE		N23   
	BYTE	W24
	BYTE		N11   
	BYTE	W12
	BYTE		        Cs3 
	BYTE	W12
	BYTE		N23   
	BYTE	W24
	BYTE		N32     Ds3 
	BYTE	W36
	BYTE	PEND
// 035   ----------------------------------------
duskfalls_12_035:
	BYTE	W24
	BYTE		N11     Ds3   v112
	BYTE	W12
	BYTE		N11   
	BYTE	W12
	BYTE		N11   
	BYTE	W12
	BYTE		N11   
	BYTE	W12
	BYTE		N23   
	BYTE	W24
	BYTE		N11   
	BYTE	W12
	BYTE		N11   
	BYTE	W12
	BYTE		N23   
	BYTE	W24
	BYTE	PEND
// 036   ----------------------------------------
duskfalls_12_036:
	BYTE		N56     Fs3   v096
	BYTE	W60
	BYTE		N11     Ds3 
	BYTE	W12
	BYTE		N23     Fs3 
	BYTE	W24
	BYTE		N11     Ds3 
	BYTE	W12
	BYTE		N23     Fs3 
	BYTE	W24
	BYTE		N11     Ds3 
	BYTE	W12
	BYTE	PEND
// 037   ----------------------------------------
duskfalls_12_037:
	BYTE		N56     Gs3   v096
	BYTE	W60
	BYTE		N11     Ds3 
	BYTE	W12
	BYTE		N23     Gs3 
	BYTE	W24
	BYTE		N11     Ds3 
	BYTE	W12
	BYTE		        Gs3 
	BYTE	W12
	BYTE		N23   
	BYTE	W24
	BYTE	PEND
// 038   ----------------------------------------
duskfalls_12_038:
	BYTE		N56     Fs3   v096
	BYTE	W60
	BYTE		N11     Ds3 
	BYTE	W12
	BYTE		        Fs3 
	BYTE	W12
	BYTE		N23   
	BYTE	W24
	BYTE		N23   
	BYTE	W24
	BYTE		N11     Ds3 
	BYTE	W12
	BYTE	PEND
// 039   ----------------------------------------
duskfalls_12_039:
	BYTE		N56     Gs3   v096
	BYTE	W60
	BYTE		N11     Ds3 
	BYTE	W12
	BYTE		N23     Gs3 
	BYTE	W24
	BYTE		N11     Ds3 
	BYTE	W12
	BYTE		N23     Gs3 
	BYTE	W24
	BYTE		N11     Ds3 
	BYTE	W12
	BYTE	PEND
// 040   ----------------------------------------
	BYTE	PATT
	 POIN2	duskfalls_12_036
// 041   ----------------------------------------
duskfalls_12_041:
	BYTE		N56     Gs3   v096
	BYTE	W60
	BYTE		N11     Ds3 
	BYTE	W12
	BYTE		N23     Gs3 
	BYTE	W24
	BYTE		N11     Ds3 
	BYTE	W12
	BYTE		        Fn3 
	BYTE	W12
	BYTE		N23   
	BYTE	W24
	BYTE	PEND
// 042   ----------------------------------------
duskfalls_12_042:
	BYTE		TIE     Bn2   v096
	BYTE		TIE     Fs3 
	BYTE	W96
	BYTE	W44
	BYTE	W03
	BYTE	PEND
	BYTE		EOT     Bn2 
	BYTE		        Fs3 
	BYTE	W01
// 043   ----------------------------------------
duskfalls_12_043:
	BYTE		N68     Cs3   v096
	BYTE		N68     Gs3 
	BYTE	W72
	BYTE		N32     Ds3 
	BYTE		N32     Fs3 
	BYTE	W36
	BYTE		        Cs3 
	BYTE		N32     Fn3 
	BYTE	W36
	BYTE	PEND
// 044   ----------------------------------------
	BYTE	PATT
	 POIN2	duskfalls_12_036
// 045   ----------------------------------------
	BYTE	PATT
	 POIN2	duskfalls_12_037
// 046   ----------------------------------------
	BYTE	PATT
	 POIN2	duskfalls_12_038
// 047   ----------------------------------------
	BYTE	PATT
	 POIN2	duskfalls_12_039
// 048   ----------------------------------------
duskfalls_12_048:
	BYTE		N56     Fs3   v096
	BYTE	W60
	BYTE		N11     Ds3   v104
	BYTE	W12
	BYTE		N23     Fs3 
	BYTE	W24
	BYTE		N11     Ds3   v108
	BYTE	W12
	BYTE		N23     Fs3 
	BYTE	W24
	BYTE		N11     Ds3   v112
	BYTE	W12
	BYTE	PEND
// 049   ----------------------------------------
duskfalls_12_049:
	BYTE		N56     Gs3   v112
	BYTE	W60
	BYTE		N11     Ds3 
	BYTE	W12
	BYTE		N23     Gs3 
	BYTE	W24
	BYTE		N11     Ds3 
	BYTE	W12
	BYTE		        Fn3 
	BYTE	W12
	BYTE		N23   
	BYTE	W24
	BYTE	PEND
// 050   ----------------------------------------
duskfalls_12_050:
	BYTE		TIE     Bn2   v112
	BYTE		TIE     Fs3 
	BYTE	W96
	BYTE	W44
	BYTE	W03
	BYTE	PEND
	BYTE		EOT     Bn2 
	BYTE		        Fs3 
	BYTE	W01
// 051   ----------------------------------------
duskfalls_12_051:
	BYTE		N68     Cs3   v112
	BYTE		N68     Gs3 
	BYTE	W72
	BYTE		N32     Ds3 
	BYTE		N32     Fs3 
	BYTE	W36
	BYTE		        Cs3 
	BYTE		N32     Fn3 
	BYTE	W36
	BYTE	PEND
// 052   ----------------------------------------
duskfalls_12_052:
	BYTE		N11     Fn3   v112
	BYTE	W12
	BYTE		N11   
	BYTE	W12
	BYTE		N11   
	BYTE	W12
	BYTE		N23   
	BYTE	W24
	BYTE		N11   
	BYTE	W12
	BYTE		        Gs3 
	BYTE	W12
	BYTE		N11   
	BYTE	W12
	BYTE		N11   
	BYTE	W12
	BYTE		N23   
	BYTE	W24
	BYTE		N11   
	BYTE	W12
	BYTE	PEND
// 053   ----------------------------------------
duskfalls_12_053:
	BYTE		N11     Gn3   v112
	BYTE	W12
	BYTE		N23   
	BYTE	W24
	BYTE		N23   
	BYTE	W24
	BYTE		N11   
	BYTE	W12
	BYTE		        As3 
	BYTE	W12
	BYTE		N23   
	BYTE	W24
	BYTE		N23   
	BYTE	W24
	BYTE		N11   
	BYTE	W12
	BYTE	PEND
// 054   ----------------------------------------
duskfalls_12_054:
	BYTE		N11     Fn3   v112
	BYTE	W12
	BYTE		N11   
	BYTE	W12
	BYTE		N11   
	BYTE	W12
	BYTE		N23   
	BYTE	W24
	BYTE		N11   
	BYTE	W12
	BYTE		N11   
	BYTE	W12
	BYTE		N11   
	BYTE	W12
	BYTE		N11   
	BYTE	W12
	BYTE		N23   
	BYTE	W24
	BYTE		N11   
	BYTE	W12
	BYTE	PEND
// 055   ----------------------------------------
duskfalls_12_055:
	BYTE		N11     Cs3   v112
	BYTE	W12
	BYTE		N11   
	BYTE	W12
	BYTE		N11   
	BYTE	W12
	BYTE		N23   
	BYTE	W24
	BYTE		N11   
	BYTE	W12
	BYTE		N11   
	BYTE	W12
	BYTE		N11   
	BYTE	W12
	BYTE		N11   
	BYTE	W12
	BYTE		N23   
	BYTE	W24
	BYTE		N11   
	BYTE	W12
	BYTE	PEND
// 056   ----------------------------------------
duskfalls_12_056:
	BYTE		N11     As2   v112
	BYTE	W12
	BYTE		N11   
	BYTE	W12
	BYTE		N11   
	BYTE	W12
	BYTE		N23   
	BYTE	W24
	BYTE		N11   
	BYTE	W12
	BYTE		N11   
	BYTE	W12
	BYTE		N11   
	BYTE	W12
	BYTE		N11   
	BYTE	W12
	BYTE		N23   
	BYTE	W24
	BYTE		N11   
	BYTE	W12
	BYTE	PEND
// 057   ----------------------------------------
duskfalls_12_057:
	BYTE		N11     As2   v112
	BYTE	W12
	BYTE		N11   
	BYTE	W12
	BYTE		N11   
	BYTE	W12
	BYTE		N23   
	BYTE	W24
	BYTE		N11   
	BYTE	W12
	BYTE		        Cn3 
	BYTE	W12
	BYTE		N11   
	BYTE	W12
	BYTE		N11   
	BYTE	W12
	BYTE		N23   
	BYTE	W24
	BYTE		N11   
	BYTE	W12
	BYTE	PEND
// 058   ----------------------------------------
	BYTE	PATT
	 POIN2	duskfalls_12_054
// 059   ----------------------------------------
	BYTE	PATT
	 POIN2	duskfalls_12_055
// 060   ----------------------------------------
	BYTE	PATT
	 POIN2	duskfalls_12_056
// 061   ----------------------------------------
	BYTE	PATT
	 POIN2	duskfalls_12_057
// 062   ----------------------------------------
	BYTE	PATT
	 POIN2	duskfalls_12_054
// 063   ----------------------------------------
	BYTE	PATT
	 POIN2	duskfalls_12_055
// 064   ----------------------------------------
	BYTE	PATT
	 POIN2	duskfalls_12_056
// 065   ----------------------------------------
duskfalls_12_065:
	BYTE		N11     Cn3   v112
	BYTE	W12
	BYTE		N11   
	BYTE	W12
	BYTE		N11   
	BYTE	W12
	BYTE		N23   
	BYTE	W24
	BYTE		N11   
	BYTE	W12
	BYTE		N11   
	BYTE	W12
	BYTE		N11   
	BYTE	W12
	BYTE		N11   
	BYTE	W12
	BYTE		N23   
	BYTE	W24
	BYTE		N11   
	BYTE	W12
	BYTE	PEND
// 066   ----------------------------------------
	BYTE	PATT
	 POIN2	duskfalls_12_054
// 067   ----------------------------------------
	BYTE	PATT
	 POIN2	duskfalls_12_055
// 068   ----------------------------------------
	BYTE	PATT
	 POIN2	duskfalls_12_056
// 069   ----------------------------------------
	BYTE	PATT
	 POIN2	duskfalls_12_057
// 070   ----------------------------------------
duskfalls_12_070:
	BYTE		N23     Cs3   v112
	BYTE	W24
	BYTE		N11   
	BYTE	W12
	BYTE		N11   
	BYTE	W12
	BYTE		N11   
	BYTE	W12
	BYTE		N11   
	BYTE	W12
	BYTE		N32     Cn3 
	BYTE	W36
	BYTE		        As2 
	BYTE	W36
	BYTE	PEND
// 071   ----------------------------------------
duskfalls_12_071:
	BYTE	W24
	BYTE		N11     As2   v112
	BYTE	W12
	BYTE		N11   
	BYTE	W12
	BYTE		N23   
	BYTE	W24
	BYTE		N23   
	BYTE	W24
	BYTE		N11   
	BYTE	W12
	BYTE		N11   
	BYTE	W12
	BYTE		N23   
	BYTE	W24
	BYTE	PEND
// 072   ----------------------------------------
	BYTE	PATT
	 POIN2	duskfalls_12_070
// 073   ----------------------------------------
duskfalls_12_073:
	BYTE	W24
	BYTE		N11     As2   v112
	BYTE	W12
	BYTE		N11   
	BYTE	W12
	BYTE		N23   
	BYTE	W24
	BYTE		        As2   v108
	BYTE	W24
	BYTE		N11     As2   v104
	BYTE	W12
	BYTE		N11   
	BYTE	W12
	BYTE		N23     As2   v100
	BYTE	W24
	BYTE	PEND
// 074   ----------------------------------------
duskfalls_12_074:
	BYTE		N23     Cs3   v096
	BYTE	W24
	BYTE		N11   
	BYTE	W12
	BYTE		N11   
	BYTE	W12
	BYTE		N11   
	BYTE	W12
	BYTE		N11   
	BYTE	W12
	BYTE		N32     Cn3 
	BYTE	W36
	BYTE		        As2 
	BYTE	W36
	BYTE	PEND
// 075   ----------------------------------------
duskfalls_12_075:
	BYTE	W24
	BYTE		N11     As2   v096
	BYTE	W12
	BYTE		N11   
	BYTE	W12
	BYTE		N23   
	BYTE	W24
	BYTE		        As2   v092
	BYTE	W24
	BYTE		N11     As2   v088
	BYTE	W12
	BYTE		N11   
	BYTE	W12
	BYTE		N23     As2   v084
	BYTE	W24
	BYTE	PEND
// 076   ----------------------------------------
duskfalls_12_076:
	BYTE		N23     Fn3   v080
	BYTE	W24
	BYTE		N11   
	BYTE	W12
	BYTE		N11   
	BYTE	W12
	BYTE		N11   
	BYTE	W12
	BYTE		N11   
	BYTE	W12
	BYTE		N23   
	BYTE	W24
	BYTE		N11   
	BYTE	W12
	BYTE		N23   
	BYTE	W24
	BYTE		N11   
	BYTE	W12
	BYTE	PEND
// 077   ----------------------------------------
	BYTE		N11   
	BYTE	W12
	BYTE		N11   
	BYTE	W12
	BYTE		N11   
	BYTE	W12
	BYTE		N23   
	BYTE	W24
	BYTE		N11   
	BYTE	W12
	BYTE		N23   
	BYTE	W24
	BYTE		N11   
	BYTE	W12
	BYTE		        Ds3 
	BYTE	W12
	BYTE		N23   
	BYTE	W24
// 078   ----------------------------------------
	BYTE	PATT
	 POIN2	duskfalls_12_001
// 079   ----------------------------------------
	BYTE	PATT
	 POIN2	duskfalls_12_001
// 080   ----------------------------------------
	BYTE	PATT
	 POIN2	duskfalls_12_001
// 081   ----------------------------------------
	BYTE	PATT
	 POIN2	duskfalls_12_001
// 082   ----------------------------------------
	BYTE	PATT
	 POIN2	duskfalls_12_001
// 083   ----------------------------------------
	BYTE	PATT
	 POIN2	duskfalls_12_001
// 084   ----------------------------------------
	BYTE	PATT
	 POIN2	duskfalls_12_006
// 085   ----------------------------------------
	BYTE	PATT
	 POIN2	duskfalls_12_001
// 086   ----------------------------------------
	BYTE	PATT
	 POIN2	duskfalls_12_008
// 087   ----------------------------------------
	BYTE	PATT
	 POIN2	duskfalls_12_009
// 088   ----------------------------------------
	BYTE	PATT
	 POIN2	duskfalls_12_010
// 089   ----------------------------------------
	BYTE	PATT
	 POIN2	duskfalls_12_008
// 090   ----------------------------------------
	BYTE	PATT
	 POIN2	duskfalls_12_012
// 091   ----------------------------------------
	BYTE	PATT
	 POIN2	duskfalls_12_013
// 092   ----------------------------------------
	BYTE	PATT
	 POIN2	duskfalls_12_012
// 093   ----------------------------------------
	BYTE	PATT
	 POIN2	duskfalls_12_013
// 094   ----------------------------------------
	BYTE	PATT
	 POIN2	duskfalls_12_012
// 095   ----------------------------------------
	BYTE	PATT
	 POIN2	duskfalls_12_013
// 096   ----------------------------------------
	BYTE	PATT
	 POIN2	duskfalls_12_018
// 097   ----------------------------------------
	BYTE	PATT
	 POIN2	duskfalls_12_019
// 098   ----------------------------------------
	BYTE	PATT
	 POIN2	duskfalls_12_020
// 099   ----------------------------------------
	BYTE	PATT
	 POIN2	duskfalls_12_021
// 100   ----------------------------------------
	BYTE	PATT
	 POIN2	duskfalls_12_022
// 101   ----------------------------------------
	BYTE	PATT
	 POIN2	duskfalls_12_023
// 102   ----------------------------------------
	BYTE	PATT
	 POIN2	duskfalls_12_008
// 103   ----------------------------------------
	BYTE	PATT
	 POIN2	duskfalls_12_009
// 104   ----------------------------------------
	BYTE	PATT
	 POIN2	duskfalls_12_010
// 105   ----------------------------------------
	BYTE	PATT
	 POIN2	duskfalls_12_008
// 106   ----------------------------------------
	BYTE	PATT
	 POIN2	duskfalls_12_028
// 107   ----------------------------------------
	BYTE	PATT
	 POIN2	duskfalls_12_029
// 108   ----------------------------------------
	BYTE	PATT
	 POIN2	duskfalls_12_028
// 109   ----------------------------------------
	BYTE	PATT
	 POIN2	duskfalls_12_029
// 110   ----------------------------------------
	BYTE	PATT
	 POIN2	duskfalls_12_028
// 111   ----------------------------------------
	BYTE	PATT
	 POIN2	duskfalls_12_029
// 112   ----------------------------------------
	BYTE	PATT
	 POIN2	duskfalls_12_034
// 113   ----------------------------------------
	BYTE	PATT
	 POIN2	duskfalls_12_035
// 114   ----------------------------------------
	BYTE	PATT
	 POIN2	duskfalls_12_036
// 115   ----------------------------------------
	BYTE	PATT
	 POIN2	duskfalls_12_037
// 116   ----------------------------------------
	BYTE	PATT
	 POIN2	duskfalls_12_038
// 117   ----------------------------------------
	BYTE	PATT
	 POIN2	duskfalls_12_039
// 118   ----------------------------------------
	BYTE	PATT
	 POIN2	duskfalls_12_036
// 119   ----------------------------------------
	BYTE	PATT
	 POIN2	duskfalls_12_041
// 120   ----------------------------------------
	BYTE	PATT
	 POIN2	duskfalls_12_042
	BYTE		EOT     Bn2 
	BYTE		        Fs3 
	BYTE	W01
// 121   ----------------------------------------
	BYTE	PATT
	 POIN2	duskfalls_12_043
// 122   ----------------------------------------
	BYTE	PATT
	 POIN2	duskfalls_12_036
// 123   ----------------------------------------
	BYTE	PATT
	 POIN2	duskfalls_12_037
// 124   ----------------------------------------
	BYTE	PATT
	 POIN2	duskfalls_12_038
// 125   ----------------------------------------
	BYTE	PATT
	 POIN2	duskfalls_12_039
// 126   ----------------------------------------
	BYTE	PATT
	 POIN2	duskfalls_12_048
// 127   ----------------------------------------
	BYTE	PATT
	 POIN2	duskfalls_12_049
// 128   ----------------------------------------
	BYTE	PATT
	 POIN2	duskfalls_12_050
	BYTE		EOT     Bn2 
	BYTE		        Fs3 
	BYTE	W01
// 129   ----------------------------------------
	BYTE	PATT
	 POIN2	duskfalls_12_051
// 130   ----------------------------------------
	BYTE	PATT
	 POIN2	duskfalls_12_052
// 131   ----------------------------------------
	BYTE	PATT
	 POIN2	duskfalls_12_053
// 132   ----------------------------------------
	BYTE	PATT
	 POIN2	duskfalls_12_054
// 133   ----------------------------------------
	BYTE	PATT
	 POIN2	duskfalls_12_055
// 134   ----------------------------------------
	BYTE	PATT
	 POIN2	duskfalls_12_056
// 135   ----------------------------------------
	BYTE	PATT
	 POIN2	duskfalls_12_057
// 136   ----------------------------------------
	BYTE	PATT
	 POIN2	duskfalls_12_054
// 137   ----------------------------------------
	BYTE	PATT
	 POIN2	duskfalls_12_055
// 138   ----------------------------------------
	BYTE	PATT
	 POIN2	duskfalls_12_056
// 139   ----------------------------------------
	BYTE	PATT
	 POIN2	duskfalls_12_057
// 140   ----------------------------------------
	BYTE	PATT
	 POIN2	duskfalls_12_054
// 141   ----------------------------------------
	BYTE	PATT
	 POIN2	duskfalls_12_055
// 142   ----------------------------------------
	BYTE	PATT
	 POIN2	duskfalls_12_056
// 143   ----------------------------------------
	BYTE	PATT
	 POIN2	duskfalls_12_065
// 144   ----------------------------------------
	BYTE	PATT
	 POIN2	duskfalls_12_054
// 145   ----------------------------------------
	BYTE	PATT
	 POIN2	duskfalls_12_055
// 146   ----------------------------------------
	BYTE	PATT
	 POIN2	duskfalls_12_056
// 147   ----------------------------------------
	BYTE	PATT
	 POIN2	duskfalls_12_057
	BYTE	GoTo
	 POIN2	duskfalls_12_B1
duskfalls_12_B2:
// 148   ----------------------------------------
	BYTE	PATT
	 POIN2	duskfalls_12_070
// 149   ----------------------------------------
	BYTE	PATT
	 POIN2	duskfalls_12_071
// 150   ----------------------------------------
	BYTE	PATT
	 POIN2	duskfalls_12_070
// 151   ----------------------------------------
	BYTE	PATT
	 POIN2	duskfalls_12_073
// 152   ----------------------------------------
	BYTE	PATT
	 POIN2	duskfalls_12_074
// 153   ----------------------------------------
	BYTE	PATT
	 POIN2	duskfalls_12_075
// 154   ----------------------------------------
	BYTE	PATT
	 POIN2	duskfalls_12_076
// 155   ----------------------------------------
	BYTE		N11     Fn3   v080
	BYTE	W12
	BYTE		N11   
	BYTE	W12
	BYTE		N11   
	BYTE	W12
	BYTE		N23   
	BYTE	W24
	BYTE		N11   
	BYTE	W12
	BYTE		N23   
	BYTE	W24
	BYTE		N11   
	BYTE	W12
	BYTE		        Ds3 
	BYTE	W12
	BYTE		N23   
	BYTE	W23
	BYTE	FINE

//**************** Track 13 (Midi-Chn.14) ****************//

duskfalls_13:
	BYTE	KEYSH   duskfalls_key+0
// 000   ----------------------------------------
	BYTE		VOICE   24
	BYTE		VOL     100*duskfalls_mvl/mxv
	BYTE		PAN     c_v+0
	BYTE		N32     As2   v096
	BYTE		N32     Fs3 
	BYTE	W36
	BYTE		N22     As2 
	BYTE		N22     Ds3 
	BYTE	W24
	BYTE		N11     As2 
	BYTE		N11     Ds3 
	BYTE	W12
	BYTE		        Cs3 
	BYTE		N11     Gs3 
	BYTE	W12
	BYTE		N22     As2 
	BYTE	W24
	BYTE		N22   
	BYTE		N22     Ds3 
	BYTE	W24
	BYTE		N11     As2 
	BYTE		N11     Ds3 
	BYTE	W12
// 001   ----------------------------------------
duskfalls_13_001:
	BYTE		N32     As2   v096
	BYTE		N32     Fs3 
	BYTE	W36
	BYTE		N22     As2 
	BYTE		N22     Ds3 
	BYTE	W24
	BYTE		N11     As2 
	BYTE		N11     Ds3 
	BYTE	W12
	BYTE		        Cs3 
	BYTE		N11     Gs3 
	BYTE	W12
	BYTE		N22     As2 
	BYTE	W24
	BYTE		N11     Cn3 
	BYTE		N11     Fn3 
	BYTE	W12
	BYTE		N22     As2 
	BYTE		N22     Ds3 
	BYTE	W24
	BYTE	PEND
// 002   ----------------------------------------
duskfalls_13_002:
	BYTE		N32     As2   v096
	BYTE		N32     Fs3 
	BYTE	W36
	BYTE		N22     As2 
	BYTE		N22     Ds3 
	BYTE	W24
	BYTE		N11     As2 
	BYTE		N11     Ds3 
	BYTE	W12
	BYTE		        Cs3 
	BYTE		N11     Gs3 
	BYTE	W12
	BYTE		N22     As2 
	BYTE	W24
	BYTE		N22   
	BYTE		N22     Ds3 
	BYTE	W24
	BYTE		N11     As2 
	BYTE		N11     Ds3 
	BYTE	W12
	BYTE	PEND
// 003   ----------------------------------------
	BYTE	PATT
	 POIN2	duskfalls_13_001
duskfalls_13_B1:
// 004   ----------------------------------------
duskfalls_13_004:
	BYTE		N32     As2   v096
	BYTE		N32     Fs3 
	BYTE	W36
	BYTE		N22     As2 
	BYTE		N22     Ds3 
	BYTE	W24
	BYTE		N11     As2 
	BYTE		N11     Ds3 
	BYTE	W12
	BYTE		        Cn3 
	BYTE		N11     Gs3 
	BYTE	W12
	BYTE		N22     As2 
	BYTE	W24
	BYTE		N22   
	BYTE		N22     Ds3 
	BYTE	W24
	BYTE		N11     As2 
	BYTE		N11     Ds3 
	BYTE	W12
	BYTE	PEND
// 005   ----------------------------------------
duskfalls_13_005:
	BYTE		N32     Cs3   v096
	BYTE		N32     Fs3 
	BYTE	W36
	BYTE		N22     As2 
	BYTE		N22     Ds3 
	BYTE	W24
	BYTE		N11     As2 
	BYTE		N11     Ds3 
	BYTE	W12
	BYTE		        Cn3 
	BYTE		N11     Gs3 
	BYTE	W12
	BYTE		N22     As2 
	BYTE	W24
	BYTE		N11     Cn3 
	BYTE		N11     Fn3 
	BYTE	W12
	BYTE		N22     As2 
	BYTE		N22     Ds3 
	BYTE	W24
	BYTE	PEND
// 006   ----------------------------------------
	BYTE	PATT
	 POIN2	duskfalls_13_002
// 007   ----------------------------------------
duskfalls_13_007:
	BYTE		N32     As2   v096
	BYTE		N32     Fs3 
	BYTE	W36
	BYTE		N22     As2 
	BYTE		N22     Ds3 
	BYTE	W24
	BYTE		N11     As2 
	BYTE		N11     Ds3 
	BYTE	W12
	BYTE		        Cs3 
	BYTE		N11     Fs3 
	BYTE	W12
	BYTE		N22     As2 
	BYTE	W24
	BYTE		N11     Cn3 
	BYTE		N11     Fn3 
	BYTE	W12
	BYTE		N22     As2 
	BYTE		N22     Ds3 
	BYTE	W24
	BYTE	PEND
// 008   ----------------------------------------
duskfalls_13_008:
	BYTE		N32     As2   v112
	BYTE		N32     Fs3 
	BYTE	W36
	BYTE		N22     As2 
	BYTE		N22     Ds3 
	BYTE	W24
	BYTE		N11     As2 
	BYTE		N11     Ds3 
	BYTE	W12
	BYTE		        Cs3 
	BYTE		N11     Gs3 
	BYTE	W12
	BYTE		N22     As2 
	BYTE	W24
	BYTE		N22   
	BYTE		N22     Ds3 
	BYTE	W24
	BYTE		N11     As2 
	BYTE		N11     Ds3 
	BYTE	W12
	BYTE	PEND
// 009   ----------------------------------------
duskfalls_13_009:
	BYTE		N32     As2   v112
	BYTE		N32     Fs3 
	BYTE	W36
	BYTE		N22     As2 
	BYTE		N22     Ds3 
	BYTE	W24
	BYTE		N11     As2 
	BYTE		N11     Ds3 
	BYTE	W12
	BYTE		        Cs3 
	BYTE		N11     Gs3 
	BYTE	W12
	BYTE		N22     As2 
	BYTE	W24
	BYTE		N11     Cn3 
	BYTE		N11     Fn3 
	BYTE	W12
	BYTE		N22     As2 
	BYTE		N22     Ds3 
	BYTE	W24
	BYTE	PEND
// 010   ----------------------------------------
	BYTE	PATT
	 POIN2	duskfalls_13_008
// 011   ----------------------------------------
duskfalls_13_011:
	BYTE		N32     As2   v112
	BYTE		N32     Fs3 
	BYTE	W36
	BYTE		N22     As2 
	BYTE		N22     Ds3 
	BYTE	W24
	BYTE		N11     As2 
	BYTE		N11     Ds3 
	BYTE	W12
	BYTE		        Cs3 
	BYTE		N11     Fs3 
	BYTE	W12
	BYTE		N22     As2 
	BYTE	W24
	BYTE		N11     Cn3 
	BYTE		N11     Fn3 
	BYTE	W12
	BYTE		N22     As2 
	BYTE		N22     Ds3 
	BYTE	W24
	BYTE	PEND
// 012   ----------------------------------------
duskfalls_13_012:
	BYTE		N11     Bn2   v096
	BYTE		N11     Fs3 
	BYTE	W12
	BYTE		N22     Bn2 
	BYTE		N22     Fs3 
	BYTE	W24
	BYTE		        Bn2 
	BYTE		N22     Fs3 
	BYTE	W24
	BYTE		N11     Bn2 
	BYTE		N11     Fs3 
	BYTE	W12
	BYTE		        Cs3 
	BYTE		N11     Gs3 
	BYTE	W12
	BYTE		N22     Cs3 
	BYTE		N22     Gs3 
	BYTE	W24
	BYTE		N32     Gs2 
	BYTE		N32     Ds3 
	BYTE	W36
	BYTE	PEND
// 013   ----------------------------------------
duskfalls_13_013:
	BYTE	W24
	BYTE		N11     Gs2   v096
	BYTE	W12
	BYTE		N22   
	BYTE		N22     Ds3 
	BYTE	W24
	BYTE		N11     Gs2 
	BYTE	W12
	BYTE		N22   
	BYTE		N22     Ds3 
	BYTE	W24
	BYTE		N11     Gs2 
	BYTE	W12
	BYTE		N11   
	BYTE		N11     Ds3 
	BYTE	W12
	BYTE		N22     Gs2 
	BYTE		N22     Ds3 
	BYTE	W24
	BYTE	PEND
// 014   ----------------------------------------
duskfalls_13_014:
	BYTE		N11     Bn2   v096
	BYTE		N11     Fs3 
	BYTE	W12
	BYTE		N22     Bn2 
	BYTE		N22     Fs3 
	BYTE	W24
	BYTE		        Bn2 
	BYTE		N22     Fs3 
	BYTE	W24
	BYTE		N11     Bn2 
	BYTE		N11     Fs3 
	BYTE	W12
	BYTE		        Cs3 
	BYTE		N11     Gs3 
	BYTE	W12
	BYTE		N22     Cs3 
	BYTE		N22     Gs3 
	BYTE	W24
	BYTE		N32     Cn3 
	BYTE		N32     Ds3 
	BYTE	W36
	BYTE	PEND
// 015   ----------------------------------------
duskfalls_13_015:
	BYTE	W24
	BYTE		N11     Gs2   v096
	BYTE	W12
	BYTE		        Ds3 
	BYTE	W12
	BYTE		        As2 
	BYTE	W12
	BYTE		        Gs2 
	BYTE	W12
	BYTE		N22   
	BYTE		N22     Ds3 
	BYTE	W24
	BYTE		N11     Gs2 
	BYTE	W12
	BYTE		N11   
	BYTE		N11     Ds3 
	BYTE	W12
	BYTE		        Gs2 
	BYTE		N11     As2 
	BYTE	W12
	BYTE		        Gs2 
	BYTE	W12
	BYTE	PEND
// 016   ----------------------------------------
duskfalls_13_016:
	BYTE		N11     Bn2   v096
	BYTE		N11     En3 
	BYTE	W12
	BYTE		N22     Bn2 
	BYTE		N22     En3 
	BYTE	W24
	BYTE		        Bn2 
	BYTE		N22     En3 
	BYTE	W24
	BYTE		N11     Bn2 
	BYTE		N11     En3 
	BYTE	W12
	BYTE		        Cs3 
	BYTE		N11     Fs3 
	BYTE	W12
	BYTE		N22     Cs3 
	BYTE		N22     Fs3 
	BYTE	W24
	BYTE		N32     Cn3 
	BYTE		N32     Fn3 
	BYTE	W36
	BYTE	PEND
// 017   ----------------------------------------
duskfalls_13_017:
	BYTE	W24
	BYTE		N11     Gs2   v096
	BYTE	W12
	BYTE		N22   
	BYTE		N22     Cn3 
	BYTE	W24
	BYTE		N11   
	BYTE	W12
	BYTE		N22     Gs2 
	BYTE		N22     Cn3 
	BYTE	W24
	BYTE		N11   
	BYTE	W12
	BYTE		        Gs2 
	BYTE		N11     Ds3 
	BYTE	W12
	BYTE		N22     Gs2 
	BYTE		N22     Ds3 
	BYTE	W24
	BYTE	PEND
// 018   ----------------------------------------
duskfalls_13_018:
	BYTE		N11     Bn2   v096
	BYTE		N11     Fs3 
	BYTE	W12
	BYTE		N22     Bn2 
	BYTE		N22     Fs3 
	BYTE	W24
	BYTE		        Bn2 
	BYTE		N22     Fs3 
	BYTE	W24
	BYTE		N11     Bn2 
	BYTE		N11     Fs3 
	BYTE	W12
	BYTE		        Cs3 
	BYTE		N11     Fn3 
	BYTE	W12
	BYTE		N22     Cs3 
	BYTE		N22     Fn3 
	BYTE	W24
	BYTE		N32     As2 
	BYTE		N32     Ds3 
	BYTE	W36
	BYTE	PEND
// 019   ----------------------------------------
duskfalls_13_019:
	BYTE	W24
	BYTE		N11     Ds2   v096
	BYTE	W12
	BYTE		        Ds3 
	BYTE	W12
	BYTE		        As2 
	BYTE	W12
	BYTE		        Ds2 
	BYTE	W12
	BYTE		N22     Ds3 
	BYTE	W24
	BYTE		N11     Ds2 
	BYTE	W12
	BYTE		        Ds3 
	BYTE	W12
	BYTE		N22     As2 
	BYTE	W24
	BYTE	PEND
// 020   ----------------------------------------
duskfalls_13_020:
	BYTE		N68     Ds3   v080
	BYTE		N68     Fs3 
	BYTE	W72
	BYTE		        Ds3 
	BYTE		N68     Gs3 
	BYTE	W72
	BYTE	PEND
// 021   ----------------------------------------
duskfalls_13_021:
	BYTE		N68     Ds3   v080
	BYTE		N68     Fs3 
	BYTE	W72
	BYTE		        Cs3   v088
	BYTE		N68     Fn3 
	BYTE	W72
	BYTE	PEND
// 022   ----------------------------------------
duskfalls_13_022:
	BYTE		N68     Bn2   v096
	BYTE		N68     Fs3 
	BYTE	W72
	BYTE		        Cs3 
	BYTE		N68     Gs3 
	BYTE	W72
	BYTE	PEND
// 023   ----------------------------------------
duskfalls_13_023:
	BYTE		N56     Ds3   v096
	BYTE		N56     Gs3 
	BYTE	W60
	BYTE		N11     As2 
	BYTE		N11     Ds3 
	BYTE	W12
	BYTE		        Cn3 
	BYTE		N11     Gs3 
	BYTE	W12
	BYTE		N22     As2 
	BYTE	W24
	BYTE		N11     Cn3 
	BYTE		N11     Fn3 
	BYTE	W12
	BYTE		N22     As2 
	BYTE		N22     Ds3 
	BYTE	W24
	BYTE	PEND
// 024   ----------------------------------------
	BYTE	PATT
	 POIN2	duskfalls_13_008
// 025   ----------------------------------------
	BYTE	PATT
	 POIN2	duskfalls_13_009
// 026   ----------------------------------------
	BYTE	PATT
	 POIN2	duskfalls_13_008
// 027   ----------------------------------------
	BYTE	PATT
	 POIN2	duskfalls_13_011
// 028   ----------------------------------------
duskfalls_13_028:
	BYTE		N11     Bn2   v112
	BYTE		N11     Fs3 
	BYTE	W12
	BYTE		N22     Bn2 
	BYTE		N22     Fs3 
	BYTE	W24
	BYTE		        Bn2 
	BYTE		N22     Fs3 
	BYTE	W24
	BYTE		N11     Bn2 
	BYTE		N11     Fs3 
	BYTE	W12
	BYTE		        Cs3 
	BYTE		N11     Gs3 
	BYTE	W12
	BYTE		N22     Cs3 
	BYTE		N22     Gs3 
	BYTE	W24
	BYTE		N32     Gs2 
	BYTE		N32     Ds3 
	BYTE	W36
	BYTE	PEND
// 029   ----------------------------------------
duskfalls_13_029:
	BYTE	W24
	BYTE		N11     Gs2   v112
	BYTE	W12
	BYTE		N22   
	BYTE		N22     Ds3 
	BYTE	W24
	BYTE		N11     Gs2 
	BYTE	W12
	BYTE		N22   
	BYTE		N22     Ds3 
	BYTE	W24
	BYTE		N11     Gs2 
	BYTE	W12
	BYTE		N11   
	BYTE		N11     Ds3 
	BYTE	W12
	BYTE		N22     Gs2 
	BYTE		N22     Ds3 
	BYTE	W24
	BYTE	PEND
// 030   ----------------------------------------
duskfalls_13_030:
	BYTE		N11     Bn2   v112
	BYTE		N11     Fs3 
	BYTE	W12
	BYTE		N22     Bn2 
	BYTE		N22     Fs3 
	BYTE	W24
	BYTE		        Bn2 
	BYTE		N22     Fs3 
	BYTE	W24
	BYTE		N11     Bn2 
	BYTE		N11     Fs3 
	BYTE	W12
	BYTE		        Cs3 
	BYTE		N11     Gs3 
	BYTE	W12
	BYTE		N22     Cs3 
	BYTE		N22     Gs3 
	BYTE	W24
	BYTE		N32     Cn3 
	BYTE		N32     Ds3 
	BYTE	W36
	BYTE	PEND
// 031   ----------------------------------------
duskfalls_13_031:
	BYTE	W24
	BYTE		N11     Gs2   v112
	BYTE	W12
	BYTE		        Ds3 
	BYTE	W12
	BYTE		        As2 
	BYTE	W12
	BYTE		        Gs2 
	BYTE	W12
	BYTE		N22   
	BYTE		N22     Ds3 
	BYTE	W24
	BYTE		N11     Gs2 
	BYTE	W12
	BYTE		N11   
	BYTE		N11     Ds3 
	BYTE	W12
	BYTE		        Gs2 
	BYTE		N11     As2 
	BYTE	W12
	BYTE		        Gs2 
	BYTE	W12
	BYTE	PEND
// 032   ----------------------------------------
duskfalls_13_032:
	BYTE		N11     Bn2   v112
	BYTE		N11     En3 
	BYTE	W12
	BYTE		N22     Bn2 
	BYTE		N22     En3 
	BYTE	W24
	BYTE		        Bn2 
	BYTE		N22     En3 
	BYTE	W24
	BYTE		N11     Bn2 
	BYTE		N11     En3 
	BYTE	W12
	BYTE		        Cs3 
	BYTE		N11     Fs3 
	BYTE	W12
	BYTE		N22     Cs3 
	BYTE		N22     Fs3 
	BYTE	W24
	BYTE		N32     Cn3 
	BYTE		N32     Fn3 
	BYTE	W36
	BYTE	PEND
// 033   ----------------------------------------
duskfalls_13_033:
	BYTE	W24
	BYTE		N11     Gs2   v112
	BYTE	W12
	BYTE		N22   
	BYTE		N22     Cn3 
	BYTE	W24
	BYTE		N11   
	BYTE	W12
	BYTE		N22     Gs2 
	BYTE		N22     Cn3 
	BYTE	W24
	BYTE		N11   
	BYTE	W12
	BYTE		        Gs2 
	BYTE		N11     Ds3 
	BYTE	W12
	BYTE		N22     Gs2 
	BYTE		N22     Ds3 
	BYTE	W24
	BYTE	PEND
// 034   ----------------------------------------
duskfalls_13_034:
	BYTE		N11     Bn2   v112
	BYTE		N11     Fs3 
	BYTE	W12
	BYTE		N22     Bn2 
	BYTE		N22     Fs3 
	BYTE	W24
	BYTE		        Bn2 
	BYTE		N22     Fs3 
	BYTE	W24
	BYTE		N11     Bn2 
	BYTE		N11     Fs3 
	BYTE	W12
	BYTE		        Cs3 
	BYTE		N11     Fn3 
	BYTE	W12
	BYTE		N22     Cs3 
	BYTE		N22     Fn3 
	BYTE	W24
	BYTE		N32     As2 
	BYTE		N32     Ds3 
	BYTE	W36
	BYTE	PEND
// 035   ----------------------------------------
duskfalls_13_035:
	BYTE	W24
	BYTE		N11     Ds2   v112
	BYTE	W12
	BYTE		        Ds3 
	BYTE	W12
	BYTE		        As2 
	BYTE	W12
	BYTE		        Ds2 
	BYTE	W12
	BYTE		N22     Ds3 
	BYTE	W24
	BYTE		N11     Ds2 
	BYTE	W12
	BYTE		        Ds3 
	BYTE	W12
	BYTE		N22     As2 
	BYTE	W24
	BYTE	PEND
// 036   ----------------------------------------
duskfalls_13_036:
	BYTE		N56     Fs2   v096
	BYTE	W60
	BYTE		N11   
	BYTE	W12
	BYTE		N22   
	BYTE	W24
	BYTE		N11   
	BYTE	W12
	BYTE		N22   
	BYTE	W24
	BYTE		N11   
	BYTE	W12
	BYTE	PEND
// 037   ----------------------------------------
duskfalls_13_037:
	BYTE		N56     Gs2   v096
	BYTE	W60
	BYTE		N11   
	BYTE	W12
	BYTE		N22   
	BYTE	W24
	BYTE		N11   
	BYTE	W12
	BYTE		N11   
	BYTE	W12
	BYTE		N22   
	BYTE	W24
	BYTE	PEND
// 038   ----------------------------------------
duskfalls_13_038:
	BYTE		N56     Fs2   v096
	BYTE	W60
	BYTE		N11   
	BYTE	W12
	BYTE		N11   
	BYTE	W12
	BYTE		N22   
	BYTE	W24
	BYTE		N22   
	BYTE	W24
	BYTE		N11   
	BYTE	W12
	BYTE	PEND
// 039   ----------------------------------------
duskfalls_13_039:
	BYTE		N56     Gs2   v096
	BYTE	W60
	BYTE		N11   
	BYTE	W12
	BYTE		N11   
	BYTE	W12
	BYTE		N11   
	BYTE	W12
	BYTE		N11   
	BYTE	W12
	BYTE		N22   
	BYTE	W24
	BYTE		N11   
	BYTE	W12
	BYTE	PEND
// 040   ----------------------------------------
	BYTE	PATT
	 POIN2	duskfalls_13_036
// 041   ----------------------------------------
	BYTE	PATT
	 POIN2	duskfalls_13_037
// 042   ----------------------------------------
duskfalls_13_042:
	BYTE		N44     Ds3   v096
	BYTE		N44     Fs3 
	BYTE	W48
	BYTE		N11     Fn3 
	BYTE	W12
	BYTE		        Ds3 
	BYTE	W12
	BYTE		N44     Cs3 
	BYTE	W48
	BYTE		N11     Ds3 
	BYTE	W12
	BYTE		        Fn3 
	BYTE	W12
	BYTE	PEND
// 043   ----------------------------------------
duskfalls_13_043:
	BYTE		N44     Cs3   v096
	BYTE		N44     Gs3 
	BYTE	W48
	BYTE		N11     Fs3 
	BYTE	W12
	BYTE		        Fn3 
	BYTE	W12
	BYTE		N32     Ds3 
	BYTE	W36
	BYTE		        Cs3 
	BYTE	W36
	BYTE	PEND
// 044   ----------------------------------------
	BYTE	PATT
	 POIN2	duskfalls_13_036
// 045   ----------------------------------------
	BYTE	PATT
	 POIN2	duskfalls_13_037
// 046   ----------------------------------------
	BYTE	PATT
	 POIN2	duskfalls_13_038
// 047   ----------------------------------------
	BYTE	PATT
	 POIN2	duskfalls_13_039
// 048   ----------------------------------------
duskfalls_13_048:
	BYTE		N56     Fs2   v096
	BYTE	W60
	BYTE		N11     Fs2   v104
	BYTE	W12
	BYTE		N22   
	BYTE	W24
	BYTE		N11     Fs2   v108
	BYTE	W12
	BYTE		N22   
	BYTE	W24
	BYTE		N11     Fs2   v112
	BYTE	W12
	BYTE	PEND
// 049   ----------------------------------------
duskfalls_13_049:
	BYTE		N56     Gs2   v112
	BYTE	W60
	BYTE		N11   
	BYTE	W12
	BYTE		N22   
	BYTE	W24
	BYTE		N11   
	BYTE	W12
	BYTE		N11   
	BYTE	W12
	BYTE		N22   
	BYTE	W24
	BYTE	PEND
// 050   ----------------------------------------
duskfalls_13_050:
	BYTE		N44     Ds3   v112
	BYTE		N44     Fs3 
	BYTE	W48
	BYTE		N11     Fn3 
	BYTE	W12
	BYTE		        Ds3 
	BYTE	W12
	BYTE		N44     Cs3 
	BYTE	W48
	BYTE		N11     Ds3 
	BYTE	W12
	BYTE		        Fn3 
	BYTE	W12
	BYTE	PEND
// 051   ----------------------------------------
duskfalls_13_051:
	BYTE		N44     Cs3   v112
	BYTE		N44     Gs3 
	BYTE	W48
	BYTE		N11     Fs3 
	BYTE	W12
	BYTE		        Fn3 
	BYTE	W12
	BYTE		N32     Ds3 
	BYTE	W36
	BYTE		        Cs3 
	BYTE	W36
	BYTE	PEND
// 052   ----------------------------------------
duskfalls_13_052:
	BYTE		N11     Ds3   v112
	BYTE		N11     Fn3 
	BYTE	W12
	BYTE		N22     Ds3 
	BYTE	W24
	BYTE		N22   
	BYTE	W24
	BYTE		N11   
	BYTE	W12
	BYTE		N11   
	BYTE		N11     Gs3 
	BYTE	W12
	BYTE		N22     Ds3 
	BYTE	W24
	BYTE		N22   
	BYTE	W24
	BYTE		N11   
	BYTE	W12
	BYTE	PEND
// 053   ----------------------------------------
duskfalls_13_053:
	BYTE		N11     Ds3   v112
	BYTE		N11     Gn3 
	BYTE	W12
	BYTE		N22     Ds3 
	BYTE	W24
	BYTE		N22   
	BYTE	W24
	BYTE		N11   
	BYTE	W12
	BYTE		N11   
	BYTE		N11     As3 
	BYTE	W12
	BYTE		N22     Ds3 
	BYTE	W24
	BYTE		N22   
	BYTE	W24
	BYTE		N11   
	BYTE	W12
	BYTE	PEND
// 054   ----------------------------------------
duskfalls_13_054:
	BYTE		N11     Fn3   v112
	BYTE	W12
	BYTE		        Gn3 
	BYTE	W12
	BYTE		        Gs3 
	BYTE	W12
	BYTE		N22     Fn3 
	BYTE	W24
	BYTE		N11     Cn3 
	BYTE	W12
	BYTE		        Fn3 
	BYTE	W12
	BYTE		        Gn3 
	BYTE	W12
	BYTE		        Gs3 
	BYTE	W12
	BYTE		N22     Fn3 
	BYTE	W24
	BYTE		N11     Cn3 
	BYTE	W12
	BYTE	PEND
// 055   ----------------------------------------
	BYTE	PATT
	 POIN2	duskfalls_13_054
// 056   ----------------------------------------
duskfalls_13_056:
	BYTE		N11     Fn3   v112
	BYTE	W12
	BYTE		        Gn3 
	BYTE	W12
	BYTE		        Gs3 
	BYTE	W12
	BYTE		N22     Fn3 
	BYTE	W24
	BYTE		N11     Cn3 
	BYTE	W12
	BYTE		        Fn3 
	BYTE	W12
	BYTE		        Gn3 
	BYTE	W12
	BYTE		        Gs3 
	BYTE	W12
	BYTE		N22     Fn3 
	BYTE	W24
	BYTE		N11   
	BYTE	W12
	BYTE	PEND
// 057   ----------------------------------------
duskfalls_13_057:
	BYTE		N11     Gn3   v112
	BYTE	W12
	BYTE		        Gs3 
	BYTE	W12
	BYTE		        As3 
	BYTE	W12
	BYTE		N22     Gn3 
	BYTE	W24
	BYTE		N11   
	BYTE	W12
	BYTE		        Gs3 
	BYTE	W12
	BYTE		        As3 
	BYTE	W12
	BYTE		        Gs3 
	BYTE	W12
	BYTE		        Gn3 
	BYTE	W12
	BYTE		        Fn3 
	BYTE	W12
	BYTE		        Ds3 
	BYTE	W12
	BYTE	PEND
// 058   ----------------------------------------
	BYTE	PATT
	 POIN2	duskfalls_13_054
// 059   ----------------------------------------
	BYTE	PATT
	 POIN2	duskfalls_13_054
// 060   ----------------------------------------
	BYTE	PATT
	 POIN2	duskfalls_13_056
// 061   ----------------------------------------
duskfalls_13_061:
	BYTE		N11     Gn3   v112
	BYTE	W12
	BYTE		        Gs3   v116
	BYTE	W12
	BYTE		        As3 
	BYTE	W12
	BYTE		N22     Gn3 
	BYTE	W24
	BYTE		N11     Gn3   v120
	BYTE	W12
	BYTE		        Gs3 
	BYTE	W12
	BYTE		        As3 
	BYTE	W12
	BYTE		        Gs3   v124
	BYTE	W12
	BYTE		        Gn3 
	BYTE	W12
	BYTE		        Fn3 
	BYTE	W12
	BYTE		        Ds3 
	BYTE	W12
	BYTE	PEND
// 062   ----------------------------------------
duskfalls_13_062:
	BYTE		N11     Fn3   v127
	BYTE	W12
	BYTE		        Gn3 
	BYTE	W12
	BYTE		        Gs3 
	BYTE	W12
	BYTE		N22     Fn3 
	BYTE	W24
	BYTE		N11     Cn3 
	BYTE	W12
	BYTE		        Fn3 
	BYTE	W12
	BYTE		        Gn3 
	BYTE	W12
	BYTE		        Gs3 
	BYTE	W12
	BYTE		N22     Fn3 
	BYTE	W24
	BYTE		N11     Cn3 
	BYTE	W12
	BYTE	PEND
// 063   ----------------------------------------
	BYTE	PATT
	 POIN2	duskfalls_13_062
// 064   ----------------------------------------
duskfalls_13_064:
	BYTE		N11     Fn3   v127
	BYTE	W12
	BYTE		        Gn3 
	BYTE	W12
	BYTE		        Gs3 
	BYTE	W12
	BYTE		N22     Fn3 
	BYTE	W24
	BYTE		N11     Cn3 
	BYTE	W12
	BYTE		        Fn3 
	BYTE	W12
	BYTE		        Gn3 
	BYTE	W12
	BYTE		        Gs3 
	BYTE	W12
	BYTE		N22     Fn3 
	BYTE	W24
	BYTE		N11   
	BYTE	W12
	BYTE	PEND
// 065   ----------------------------------------
duskfalls_13_065:
	BYTE		N11     Gn3   v127
	BYTE	W12
	BYTE		        Gs3 
	BYTE	W12
	BYTE		        As3 
	BYTE	W12
	BYTE		N22     Gn3 
	BYTE	W24
	BYTE		N11   
	BYTE	W12
	BYTE		        Gs3 
	BYTE	W12
	BYTE		        As3 
	BYTE	W12
	BYTE		        Gs3 
	BYTE	W12
	BYTE		        Gn3 
	BYTE	W12
	BYTE		        Fn3 
	BYTE	W12
	BYTE		        Ds3 
	BYTE	W12
	BYTE	PEND
// 066   ----------------------------------------
	BYTE	PATT
	 POIN2	duskfalls_13_062
// 067   ----------------------------------------
	BYTE	PATT
	 POIN2	duskfalls_13_062
// 068   ----------------------------------------
	BYTE	PATT
	 POIN2	duskfalls_13_064
// 069   ----------------------------------------
	BYTE	PATT
	 POIN2	duskfalls_13_065
// 070   ----------------------------------------
duskfalls_13_070:
	BYTE		N22     Cs3   v127
	BYTE	W24
	BYTE		N11     As2 
	BYTE	W12
	BYTE		        Cs3 
	BYTE	W12
	BYTE		        Ds3 
	BYTE	W12
	BYTE		        Fn3 
	BYTE	W12
	BYTE		N32     Ds3 
	BYTE	W36
	BYTE		        As2 
	BYTE	W36
	BYTE	PEND
// 071   ----------------------------------------
duskfalls_13_071:
	BYTE	W24
	BYTE		N11     As2   v127
	BYTE	W12
	BYTE		        Ds3 
	BYTE	W12
	BYTE		        As2   v124
	BYTE	W12
	BYTE		N11   
	BYTE	W12
	BYTE		N22     Ds3 
	BYTE	W24
	BYTE		N11     As2   v120
	BYTE	W12
	BYTE		        Ds3 
	BYTE	W12
	BYTE		N22     Ds3   v116
	BYTE	W24
	BYTE	PEND
// 072   ----------------------------------------
duskfalls_13_072:
	BYTE		N22     Cs3   v112
	BYTE	W24
	BYTE		N11     As2 
	BYTE	W12
	BYTE		        Cs3 
	BYTE	W12
	BYTE		        Ds3 
	BYTE	W12
	BYTE		        Fn3 
	BYTE	W12
	BYTE		N32     Ds3 
	BYTE	W36
	BYTE		        As2 
	BYTE	W36
	BYTE	PEND
// 073   ----------------------------------------
duskfalls_13_073:
	BYTE	W24
	BYTE		N11     As2   v112
	BYTE	W12
	BYTE		        Ds3 
	BYTE	W12
	BYTE		        As2 
	BYTE	W12
	BYTE		        As2   v108
	BYTE	W12
	BYTE		N22     Ds3 
	BYTE	W24
	BYTE		N11     As2   v104
	BYTE	W12
	BYTE		        Ds3 
	BYTE	W12
	BYTE		N22     Ds3   v100
	BYTE	W24
	BYTE	PEND
// 074   ----------------------------------------
duskfalls_13_074:
	BYTE		N22     Cs3   v096
	BYTE	W24
	BYTE		N11     As2 
	BYTE	W12
	BYTE		        Cs3 
	BYTE	W12
	BYTE		        Ds3 
	BYTE	W12
	BYTE		        Fn3 
	BYTE	W12
	BYTE		N32     Ds3 
	BYTE	W36
	BYTE		        As2 
	BYTE	W36
	BYTE	PEND
// 075   ----------------------------------------
duskfalls_13_075:
	BYTE	W24
	BYTE		N11     As2   v096
	BYTE	W12
	BYTE		        Fn3 
	BYTE	W12
	BYTE		        Cn3 
	BYTE	W12
	BYTE		        As2   v092
	BYTE	W12
	BYTE		N22     Fn3 
	BYTE	W24
	BYTE		N11     Cn3   v088
	BYTE	W12
	BYTE		        Fn3 
	BYTE	W12
	BYTE		N22     Cn3   v084
	BYTE	W24
	BYTE	PEND
// 076   ----------------------------------------
duskfalls_13_076:
	BYTE		N11     Fn3   v080
	BYTE	W12
	BYTE		        Ds3 
	BYTE	W12
	BYTE		        Cn3 
	BYTE	W12
	BYTE		N22     Fn3 
	BYTE	W24
	BYTE		N11     Cn3 
	BYTE	W12
	BYTE		N22     Fn3 
	BYTE	W24
	BYTE		N11     Cn3 
	BYTE	W12
	BYTE		        Fn3 
	BYTE	W12
	BYTE		N22     Ds3 
	BYTE	W24
	BYTE	PEND
// 077   ----------------------------------------
	BYTE		        Fn3 
	BYTE	W24
	BYTE		N11     Cn3 
	BYTE	W12
	BYTE		        Fn3 
	BYTE	W12
	BYTE		        Ds3 
	BYTE	W12
	BYTE		        Cn3 
	BYTE	W12
	BYTE		N22     Fn3 
	BYTE	W24
	BYTE		N11     Cn3 
	BYTE	W12
	BYTE		        Fn3 
	BYTE	W12
	BYTE		N22     Ds3 
	BYTE	W24
// 078   ----------------------------------------
	BYTE	PATT
	 POIN2	duskfalls_13_002
// 079   ----------------------------------------
	BYTE	PATT
	 POIN2	duskfalls_13_001
// 080   ----------------------------------------
	BYTE	PATT
	 POIN2	duskfalls_13_002
// 081   ----------------------------------------
	BYTE	PATT
	 POIN2	duskfalls_13_001
// 082   ----------------------------------------
	BYTE	PATT
	 POIN2	duskfalls_13_004
// 083   ----------------------------------------
	BYTE	PATT
	 POIN2	duskfalls_13_005
// 084   ----------------------------------------
	BYTE	PATT
	 POIN2	duskfalls_13_002
// 085   ----------------------------------------
	BYTE	PATT
	 POIN2	duskfalls_13_007
// 086   ----------------------------------------
	BYTE	PATT
	 POIN2	duskfalls_13_008
// 087   ----------------------------------------
	BYTE	PATT
	 POIN2	duskfalls_13_009
// 088   ----------------------------------------
	BYTE	PATT
	 POIN2	duskfalls_13_008
// 089   ----------------------------------------
	BYTE	PATT
	 POIN2	duskfalls_13_011
// 090   ----------------------------------------
	BYTE	PATT
	 POIN2	duskfalls_13_012
// 091   ----------------------------------------
	BYTE	PATT
	 POIN2	duskfalls_13_013
// 092   ----------------------------------------
	BYTE	PATT
	 POIN2	duskfalls_13_014
// 093   ----------------------------------------
	BYTE	PATT
	 POIN2	duskfalls_13_015
// 094   ----------------------------------------
	BYTE	PATT
	 POIN2	duskfalls_13_016
// 095   ----------------------------------------
	BYTE	PATT
	 POIN2	duskfalls_13_017
// 096   ----------------------------------------
	BYTE	PATT
	 POIN2	duskfalls_13_018
// 097   ----------------------------------------
	BYTE	PATT
	 POIN2	duskfalls_13_019
// 098   ----------------------------------------
	BYTE	PATT
	 POIN2	duskfalls_13_020
// 099   ----------------------------------------
	BYTE	PATT
	 POIN2	duskfalls_13_021
// 100   ----------------------------------------
	BYTE	PATT
	 POIN2	duskfalls_13_022
// 101   ----------------------------------------
	BYTE	PATT
	 POIN2	duskfalls_13_023
// 102   ----------------------------------------
	BYTE	PATT
	 POIN2	duskfalls_13_008
// 103   ----------------------------------------
	BYTE	PATT
	 POIN2	duskfalls_13_009
// 104   ----------------------------------------
	BYTE	PATT
	 POIN2	duskfalls_13_008
// 105   ----------------------------------------
	BYTE	PATT
	 POIN2	duskfalls_13_011
// 106   ----------------------------------------
	BYTE	PATT
	 POIN2	duskfalls_13_028
// 107   ----------------------------------------
	BYTE	PATT
	 POIN2	duskfalls_13_029
// 108   ----------------------------------------
	BYTE	PATT
	 POIN2	duskfalls_13_030
// 109   ----------------------------------------
	BYTE	PATT
	 POIN2	duskfalls_13_031
// 110   ----------------------------------------
	BYTE	PATT
	 POIN2	duskfalls_13_032
// 111   ----------------------------------------
	BYTE	PATT
	 POIN2	duskfalls_13_033
// 112   ----------------------------------------
	BYTE	PATT
	 POIN2	duskfalls_13_034
// 113   ----------------------------------------
	BYTE	PATT
	 POIN2	duskfalls_13_035
// 114   ----------------------------------------
	BYTE	PATT
	 POIN2	duskfalls_13_036
// 115   ----------------------------------------
	BYTE	PATT
	 POIN2	duskfalls_13_037
// 116   ----------------------------------------
	BYTE	PATT
	 POIN2	duskfalls_13_038
// 117   ----------------------------------------
	BYTE	PATT
	 POIN2	duskfalls_13_039
// 118   ----------------------------------------
	BYTE	PATT
	 POIN2	duskfalls_13_036
// 119   ----------------------------------------
	BYTE	PATT
	 POIN2	duskfalls_13_037
// 120   ----------------------------------------
	BYTE	PATT
	 POIN2	duskfalls_13_042
// 121   ----------------------------------------
	BYTE	PATT
	 POIN2	duskfalls_13_043
// 122   ----------------------------------------
	BYTE	PATT
	 POIN2	duskfalls_13_036
// 123   ----------------------------------------
	BYTE	PATT
	 POIN2	duskfalls_13_037
// 124   ----------------------------------------
	BYTE	PATT
	 POIN2	duskfalls_13_038
// 125   ----------------------------------------
	BYTE	PATT
	 POIN2	duskfalls_13_039
// 126   ----------------------------------------
	BYTE	PATT
	 POIN2	duskfalls_13_048
// 127   ----------------------------------------
	BYTE	PATT
	 POIN2	duskfalls_13_049
// 128   ----------------------------------------
	BYTE	PATT
	 POIN2	duskfalls_13_050
// 129   ----------------------------------------
	BYTE	PATT
	 POIN2	duskfalls_13_051
// 130   ----------------------------------------
	BYTE	PATT
	 POIN2	duskfalls_13_052
// 131   ----------------------------------------
	BYTE	PATT
	 POIN2	duskfalls_13_053
// 132   ----------------------------------------
	BYTE	PATT
	 POIN2	duskfalls_13_054
// 133   ----------------------------------------
	BYTE	PATT
	 POIN2	duskfalls_13_054
// 134   ----------------------------------------
	BYTE	PATT
	 POIN2	duskfalls_13_056
// 135   ----------------------------------------
	BYTE	PATT
	 POIN2	duskfalls_13_057
// 136   ----------------------------------------
	BYTE	PATT
	 POIN2	duskfalls_13_054
// 137   ----------------------------------------
	BYTE	PATT
	 POIN2	duskfalls_13_054
// 138   ----------------------------------------
	BYTE	PATT
	 POIN2	duskfalls_13_056
// 139   ----------------------------------------
	BYTE	PATT
	 POIN2	duskfalls_13_061
// 140   ----------------------------------------
	BYTE	PATT
	 POIN2	duskfalls_13_062
// 141   ----------------------------------------
	BYTE	PATT
	 POIN2	duskfalls_13_062
// 142   ----------------------------------------
	BYTE	PATT
	 POIN2	duskfalls_13_064
// 143   ----------------------------------------
	BYTE	PATT
	 POIN2	duskfalls_13_065
// 144   ----------------------------------------
	BYTE	PATT
	 POIN2	duskfalls_13_062
// 145   ----------------------------------------
	BYTE	PATT
	 POIN2	duskfalls_13_062
// 146   ----------------------------------------
	BYTE	PATT
	 POIN2	duskfalls_13_064
// 147   ----------------------------------------
	BYTE	PATT
	 POIN2	duskfalls_13_065
	BYTE	GoTo
	 POIN2	duskfalls_13_B1
duskfalls_13_B2:
// 148   ----------------------------------------
	BYTE	PATT
	 POIN2	duskfalls_13_070
// 149   ----------------------------------------
	BYTE	PATT
	 POIN2	duskfalls_13_071
// 150   ----------------------------------------
	BYTE	PATT
	 POIN2	duskfalls_13_072
// 151   ----------------------------------------
	BYTE	PATT
	 POIN2	duskfalls_13_073
// 152   ----------------------------------------
	BYTE	PATT
	 POIN2	duskfalls_13_074
// 153   ----------------------------------------
	BYTE	PATT
	 POIN2	duskfalls_13_075
// 154   ----------------------------------------
	BYTE	PATT
	 POIN2	duskfalls_13_076
// 155   ----------------------------------------
	BYTE		N22     Fn3   v080
	BYTE	W24
	BYTE		N11     Cn3 
	BYTE	W12
	BYTE		        Fn3 
	BYTE	W12
	BYTE		        Ds3 
	BYTE	W12
	BYTE		        Cn3 
	BYTE	W12
	BYTE		N22     Fn3 
	BYTE	W24
	BYTE		N11     Cn3 
	BYTE	W12
	BYTE		        Fn3 
	BYTE	W12
	BYTE		N22     Ds3 
	BYTE	W23
	BYTE	FINE

//******************************************************//
	ALIGN 4

duskfalls:
	BYTE	13	// NumTrks
	BYTE	0	// NumBlks
	BYTE	duskfalls_pri	// Priority
	BYTE	duskfalls_rev	// Reverb.

	POIN2	duskfalls_grp

	POIN2	duskfalls_1
	POIN2	duskfalls_2
	POIN2	duskfalls_3
	POIN2	duskfalls_4
	POIN2	duskfalls_5
	POIN2	duskfalls_6
	POIN2	duskfalls_7
	POIN2	duskfalls_8
	POIN2	duskfalls_9
	POIN2	duskfalls_10
	POIN2	duskfalls_11
	POIN2	duskfalls_12
	POIN2	duskfalls_13

	
